<?xml version="1.0" encoding="utf-8" standalone="no"?>
<!DOCTYPE svg PUBLIC "-//W3C//DTD SVG 1.1//EN"
  "http://www.w3.org/Graphics/SVG/1.1/DTD/svg11.dtd">
<svg xmlns:xlink="http://www.w3.org/1999/xlink" width="460.8pt" height="345.6pt" viewBox="0 0 460.8 345.6" xmlns="http://www.w3.org/2000/svg" version="1.1">
 <metadata>
  <rdf:RDF xmlns:dc="http://purl.org/dc/elements/1.1/" xmlns:cc="http://creativecommons.org/ns#" xmlns:rdf="http://www.w3.org/1999/02/22-rdf-syntax-ns#">
   <cc:Work>
    <dc:type rdf:resource="http://purl.org/dc/dcmitype/StillImage"/>
    <dc:date>2023-02-23T21:46:31.612143</dc:date>
    <dc:format>image/svg+xml</dc:format>
    <dc:creator>
     <cc:Agent>
      <dc:title>Matplotlib v3.5.3, https://matplotlib.org/</dc:title>
     </cc:Agent>
    </dc:creator>
   </cc:Work>
  </rdf:RDF>
 </metadata>
 <defs>
  <style type="text/css">*{stroke-linejoin: round; stroke-linecap: butt}</style>
 </defs>
 <g id="figure_1">
  <g id="patch_1">
   <path d="M 0 345.6 
L 460.8 345.6 
L 460.8 0 
L 0 0 
z
" style="fill: #ffffff"/>
  </g>
  <g id="axes_1">
   <g id="patch_2">
    <path d="M 57.6 307.584 
L 414.72 307.584 
L 414.72 41.472 
L 57.6 41.472 
z
" style="fill: #ffffff"/>
   </g>
   <g id="matplotlib.axis_1">
    <g id="xtick_1">
     <g id="line2d_1">
      <path d="M 104.269091 307.584 
L 104.269091 41.472 
" clip-path="url(#p4ec0c26c51)" style="fill: none; stroke-dasharray: 1.85,0.8; stroke-dashoffset: 0; stroke: #b0b0b0; stroke-width: 0.5"/>
     </g>
     <g id="line2d_2">
      <defs>
       <path id="m260bb89bce" d="M 0 0 
L 0 3.5 
" style="stroke: #000000; stroke-width: 0.8"/>
      </defs>
      <g>
       <use xlink:href="#m260bb89bce" x="104.269091" y="307.584" style="stroke: #000000; stroke-width: 0.8"/>
      </g>
     </g>
     <g id="text_1">
      <!-- 20 -->
      <g transform="translate(98.708153 321.741812)scale(0.1 -0.1)">
       <defs>
        <path id="ArialUnicodeMS-32" d="M 3231 0 
L 197 0 
Q 197 388 467 784 
Q 738 1181 1478 1778 
Q 1931 2141 2287 2539 
Q 2644 2938 2644 3341 
Q 2644 3688 2398 3914 
Q 2153 4141 1778 4141 
Q 1400 4141 1144 3908 
Q 888 3675 884 3213 
L 306 3278 
Q 359 3922 764 4262 
Q 1169 4603 1791 4603 
Q 2466 4603 2842 4229 
Q 3219 3856 3219 3328 
Q 3219 2888 2901 2436 
Q 2584 1984 1638 1228 
Q 1141 831 978 544 
L 3231 544 
L 3231 0 
z
" transform="scale(0.015625)"/>
        <path id="ArialUnicodeMS-30" d="M 1778 4603 
Q 3272 4603 3272 2259 
Q 3272 1075 2886 498 
Q 2500 -78 1778 -78 
Q 288 -78 288 2259 
Q 288 3444 673 4023 
Q 1059 4603 1778 4603 
z
M 1778 384 
Q 2231 384 2462 823 
Q 2694 1263 2694 2259 
Q 2694 2953 2592 3351 
Q 2491 3750 2286 3945 
Q 2081 4141 1772 4141 
Q 1319 4141 1091 3694 
Q 863 3247 863 2259 
Q 863 1575 966 1175 
Q 1069 775 1272 579 
Q 1475 384 1778 384 
z
" transform="scale(0.015625)"/>
       </defs>
       <use xlink:href="#ArialUnicodeMS-32"/>
       <use xlink:href="#ArialUnicodeMS-30" x="55.615234"/>
      </g>
     </g>
    </g>
    <g id="xtick_2">
     <g id="line2d_3">
      <path d="M 154.996364 307.584 
L 154.996364 41.472 
" clip-path="url(#p4ec0c26c51)" style="fill: none; stroke-dasharray: 1.85,0.8; stroke-dashoffset: 0; stroke: #b0b0b0; stroke-width: 0.5"/>
     </g>
     <g id="line2d_4">
      <g>
       <use xlink:href="#m260bb89bce" x="154.996364" y="307.584" style="stroke: #000000; stroke-width: 0.8"/>
      </g>
     </g>
     <g id="text_2">
      <!-- 40 -->
      <g transform="translate(149.435426 321.741812)scale(0.1 -0.1)">
       <defs>
        <path id="ArialUnicodeMS-34" d="M 3263 1094 
L 2644 1094 
L 2644 0 
L 2081 0 
L 2081 1094 
L 97 1094 
L 97 1613 
L 2181 4581 
L 2644 4581 
L 2644 1613 
L 3263 1613 
L 3263 1094 
z
M 2081 1613 
L 2081 3681 
L 2069 3681 
L 647 1613 
L 2081 1613 
z
" transform="scale(0.015625)"/>
       </defs>
       <use xlink:href="#ArialUnicodeMS-34"/>
       <use xlink:href="#ArialUnicodeMS-30" x="55.615234"/>
      </g>
     </g>
    </g>
    <g id="xtick_3">
     <g id="line2d_5">
      <path d="M 205.723636 307.584 
L 205.723636 41.472 
" clip-path="url(#p4ec0c26c51)" style="fill: none; stroke-dasharray: 1.85,0.8; stroke-dashoffset: 0; stroke: #b0b0b0; stroke-width: 0.5"/>
     </g>
     <g id="line2d_6">
      <g>
       <use xlink:href="#m260bb89bce" x="205.723636" y="307.584" style="stroke: #000000; stroke-width: 0.8"/>
      </g>
     </g>
     <g id="text_3">
      <!-- 60 -->
      <g transform="translate(200.162699 321.741812)scale(0.1 -0.1)">
       <defs>
        <path id="ArialUnicodeMS-36" d="M 838 2363 
Q 1225 2969 1941 2969 
Q 2503 2969 2897 2553 
Q 3291 2138 3291 1491 
Q 3291 838 2898 380 
Q 2506 -78 1856 -78 
Q 1197 -78 733 409 
Q 269 897 269 2144 
Q 269 3369 689 3986 
Q 1109 4603 1906 4603 
Q 2422 4603 2778 4315 
Q 3134 4028 3213 3463 
L 2650 3413 
Q 2497 4141 1875 4141 
Q 1444 4141 1134 3712 
Q 825 3284 825 2363 
L 838 2363 
z
M 1844 384 
Q 2231 384 2472 696 
Q 2713 1009 2713 1453 
Q 2713 1897 2472 2187 
Q 2231 2478 1825 2478 
Q 1453 2478 1184 2204 
Q 916 1931 916 1484 
Q 916 1028 1180 706 
Q 1444 384 1844 384 
z
" transform="scale(0.015625)"/>
       </defs>
       <use xlink:href="#ArialUnicodeMS-36"/>
       <use xlink:href="#ArialUnicodeMS-30" x="55.615234"/>
      </g>
     </g>
    </g>
    <g id="xtick_4">
     <g id="line2d_7">
      <path d="M 256.450909 307.584 
L 256.450909 41.472 
" clip-path="url(#p4ec0c26c51)" style="fill: none; stroke-dasharray: 1.85,0.8; stroke-dashoffset: 0; stroke: #b0b0b0; stroke-width: 0.5"/>
     </g>
     <g id="line2d_8">
      <g>
       <use xlink:href="#m260bb89bce" x="256.450909" y="307.584" style="stroke: #000000; stroke-width: 0.8"/>
      </g>
     </g>
     <g id="text_4">
      <!-- 80 -->
      <g transform="translate(250.889972 321.741812)scale(0.1 -0.1)">
       <defs>
        <path id="ArialUnicodeMS-38" d="M 2425 2478 
Q 3284 2203 3284 1306 
Q 3284 716 2862 319 
Q 2441 -78 1778 -78 
Q 1109 -78 689 322 
Q 269 722 269 1325 
Q 269 1759 505 2084 
Q 741 2409 1141 2478 
L 1141 2491 
Q 453 2703 453 3419 
Q 453 3925 815 4264 
Q 1178 4603 1766 4603 
Q 2363 4603 2730 4253 
Q 3097 3903 3097 3406 
Q 3097 2731 2425 2491 
L 2425 2478 
z
M 1778 2700 
Q 2094 2700 2308 2901 
Q 2522 3103 2522 3406 
Q 2522 3716 2305 3928 
Q 2088 4141 1772 4141 
Q 1450 4141 1240 3931 
Q 1031 3722 1031 3438 
Q 1031 3097 1247 2898 
Q 1463 2700 1778 2700 
z
M 1778 384 
Q 2175 384 2440 640 
Q 2706 897 2706 1306 
Q 2706 1716 2432 1978 
Q 2159 2241 1766 2241 
Q 1356 2241 1100 1970 
Q 844 1700 844 1319 
Q 844 922 1108 653 
Q 1372 384 1778 384 
z
" transform="scale(0.015625)"/>
       </defs>
       <use xlink:href="#ArialUnicodeMS-38"/>
       <use xlink:href="#ArialUnicodeMS-30" x="55.615234"/>
      </g>
     </g>
    </g>
    <g id="xtick_5">
     <g id="line2d_9">
      <path d="M 307.178182 307.584 
L 307.178182 41.472 
" clip-path="url(#p4ec0c26c51)" style="fill: none; stroke-dasharray: 1.85,0.8; stroke-dashoffset: 0; stroke: #b0b0b0; stroke-width: 0.5"/>
     </g>
     <g id="line2d_10">
      <g>
       <use xlink:href="#m260bb89bce" x="307.178182" y="307.584" style="stroke: #000000; stroke-width: 0.8"/>
      </g>
     </g>
     <g id="text_5">
      <!-- 100 -->
      <g transform="translate(298.836776 321.741812)scale(0.1 -0.1)">
       <defs>
        <path id="ArialUnicodeMS-31" d="M 2400 0 
L 1838 0 
L 1838 3584 
Q 1416 3184 709 2906 
L 709 3450 
Q 1681 3916 2034 4603 
L 2400 4603 
L 2400 0 
z
" transform="scale(0.015625)"/>
       </defs>
       <use xlink:href="#ArialUnicodeMS-31"/>
       <use xlink:href="#ArialUnicodeMS-30" x="55.615234"/>
       <use xlink:href="#ArialUnicodeMS-30" x="111.230469"/>
      </g>
     </g>
    </g>
    <g id="xtick_6">
     <g id="line2d_11">
      <path d="M 357.905455 307.584 
L 357.905455 41.472 
" clip-path="url(#p4ec0c26c51)" style="fill: none; stroke-dasharray: 1.85,0.8; stroke-dashoffset: 0; stroke: #b0b0b0; stroke-width: 0.5"/>
     </g>
     <g id="line2d_12">
      <g>
       <use xlink:href="#m260bb89bce" x="357.905455" y="307.584" style="stroke: #000000; stroke-width: 0.8"/>
      </g>
     </g>
     <g id="text_6">
      <!-- 120 -->
      <g transform="translate(349.564048 321.741812)scale(0.1 -0.1)">
       <use xlink:href="#ArialUnicodeMS-31"/>
       <use xlink:href="#ArialUnicodeMS-32" x="55.615234"/>
       <use xlink:href="#ArialUnicodeMS-30" x="111.230469"/>
      </g>
     </g>
    </g>
    <g id="xtick_7">
     <g id="line2d_13">
      <path d="M 408.632727 307.584 
L 408.632727 41.472 
" clip-path="url(#p4ec0c26c51)" style="fill: none; stroke-dasharray: 1.85,0.8; stroke-dashoffset: 0; stroke: #b0b0b0; stroke-width: 0.5"/>
     </g>
     <g id="line2d_14">
      <g>
       <use xlink:href="#m260bb89bce" x="408.632727" y="307.584" style="stroke: #000000; stroke-width: 0.8"/>
      </g>
     </g>
     <g id="text_7">
      <!-- 140 -->
      <g transform="translate(400.291321 321.741812)scale(0.1 -0.1)">
       <use xlink:href="#ArialUnicodeMS-31"/>
       <use xlink:href="#ArialUnicodeMS-34" x="55.615234"/>
       <use xlink:href="#ArialUnicodeMS-30" x="111.230469"/>
      </g>
     </g>
    </g>
    <g id="text_8">
     <!-- 边缘节点个数(台) -->
     <g transform="translate(197.830312 336.132437)scale(0.1 -0.1)">
      <defs>
       <path id="ArialUnicodeMS-8fb9" d="M 5313 4056 
Q 5284 3438 5206 2703 
Q 5128 1969 5061 1462 
Q 4994 956 4858 825 
Q 4722 694 4592 642 
Q 4463 591 4259 591 
Q 4094 591 3775 616 
L 3603 1166 
Q 3994 1100 4188 1100 
Q 4447 1100 4494 1172 
Q 4541 1244 4655 2023 
Q 4769 2803 4819 3591 
L 3872 3591 
Q 3772 2244 3420 1637 
Q 3069 1031 2419 563 
L 2100 941 
Q 2769 1413 3061 2020 
Q 3353 2628 3384 3591 
L 2075 3591 
L 2075 4056 
L 3384 4056 
L 3384 5269 
L 3872 5269 
L 3872 4056 
L 5313 4056 
z
M 1772 4134 
L 1325 3822 
Q 959 4506 538 4850 
L 909 5147 
Q 1375 4722 1772 4134 
z
M 6009 341 
L 5850 -147 
L 3231 -147 
Q 2241 -147 1434 697 
L 603 -153 
L 213 244 
L 1234 1119 
L 1234 2747 
L 372 2747 
L 372 3213 
L 1691 3213 
L 1691 1106 
Q 1981 750 2398 534 
Q 2816 319 3175 301 
Q 3534 284 4122 284 
Q 4909 284 6009 341 
z
" transform="scale(0.015625)"/>
       <path id="ArialUnicodeMS-7f18" d="M 5997 469 
L 5619 141 
Q 4994 734 4831 1600 
L 4581 1484 
Q 4706 953 4706 334 
Q 4706 -109 4532 -287 
Q 4359 -466 4116 -466 
Q 3944 -466 3591 -384 
L 3425 128 
L 4056 0 
Q 4241 -47 4241 363 
Q 4241 747 4213 856 
Q 3597 247 2541 -122 
L 2247 281 
Q 3484 672 4116 1369 
Q 4038 1647 4025 1678 
Q 3547 1209 2688 897 
L 2413 1319 
Q 3303 1613 3809 2088 
Q 3781 2153 3688 2284 
Q 3159 2000 2644 1869 
L 2375 2284 
Q 3138 2459 3847 2853 
L 3847 2869 
L 2259 2869 
L 2259 3334 
L 4325 3334 
L 4422 3609 
L 2597 3609 
L 3128 5338 
L 3591 5203 
L 3475 4891 
L 5313 4891 
L 4850 3334 
L 5709 3334 
L 5709 2869 
L 4500 2869 
Q 4328 2697 4050 2503 
Q 4294 2206 4434 1888 
Q 4966 2128 5381 2631 
L 5703 2278 
Q 5625 2169 5451 2025 
Q 5278 1881 5209 1850 
Q 5388 991 5997 469 
z
M 4672 4422 
L 3366 4422 
L 3238 4078 
L 4550 4078 
L 4672 4422 
z
M 2309 3891 
Q 1809 2809 1568 2462 
Q 1328 2116 1069 1863 
L 1081 1850 
L 2297 2106 
L 2297 1684 
Q 1128 1441 550 1253 
L 372 1697 
Q 756 2078 1313 2975 
Q 1128 2975 581 2834 
L 384 3219 
Q 1016 4231 1375 5294 
L 1791 5063 
Q 1513 4163 978 3353 
Q 1147 3366 1550 3438 
Q 1678 3659 1906 4116 
L 2309 3891 
z
M 2356 672 
L 581 78 
L 341 481 
Q 1272 741 2356 1153 
L 2356 672 
z
" transform="scale(0.015625)"/>
       <path id="ArialUnicodeMS-8282" d="M 5831 4128 
L 4256 4128 
L 4256 3384 
L 3769 3384 
L 3769 4128 
L 2431 4128 
L 2431 3384 
L 1947 3384 
L 1947 4128 
L 391 4128 
L 403 4588 
L 1947 4588 
L 1947 5319 
L 2431 5319 
L 2431 4588 
L 3769 4588 
L 3769 5319 
L 4256 5319 
L 4256 4588 
L 5831 4588 
L 5831 4128 
z
M 5113 3272 
Q 5050 1375 4948 1004 
Q 4847 634 4456 634 
Q 4238 634 3781 703 
L 3647 1234 
Q 4203 1056 4341 1056 
Q 4466 1056 4511 1322 
Q 4556 1588 4622 2809 
L 2834 2809 
L 2834 -366 
L 2350 -366 
L 2350 2809 
L 756 2809 
L 756 3272 
L 5113 3272 
z
" transform="scale(0.015625)"/>
       <path id="ArialUnicodeMS-70b9" d="M 5522 4225 
L 3213 4225 
L 3213 3597 
L 4972 3597 
L 4972 1459 
L 1338 1459 
L 1338 3597 
L 2725 3597 
L 2725 5313 
L 3213 5313 
L 3213 4666 
L 5522 4666 
L 5522 4225 
z
M 4513 1900 
L 4513 3156 
L 1825 3156 
L 1825 1900 
L 4513 1900 
z
M 6081 -56 
L 5619 -325 
Q 5188 509 4544 1031 
L 4922 1288 
Q 5672 631 6081 -56 
z
M 1856 1044 
Q 1550 141 763 -453 
L 319 -91 
Q 1059 356 1447 1247 
L 1850 1044 
L 1856 1044 
z
M 4538 -109 
L 4072 -288 
Q 3759 481 3272 997 
L 3681 1197 
Q 4216 653 4538 -109 
z
M 3200 -134 
L 2700 -275 
Q 2519 444 2047 1013 
L 2463 1184 
Q 2925 600 3200 -134 
z
" transform="scale(0.015625)"/>
       <path id="ArialUnicodeMS-4e2a" d="M 6113 2503 
L 5728 2163 
Q 3956 3153 3200 4469 
Q 2788 3750 2070 3109 
Q 1353 2469 609 2156 
L 191 2491 
Q 2191 3438 3116 5325 
L 3547 5125 
L 3463 4947 
Q 4066 3694 6113 2503 
z
M 3406 -447 
L 2919 -447 
L 2919 3531 
L 3406 3531 
L 3406 -447 
z
" transform="scale(0.015625)"/>
       <path id="ArialUnicodeMS-6570" d="M 6138 19 
L 5806 -378 
Q 5031 194 4697 716 
Q 4344 144 3328 -441 
L 2981 -50 
Q 3966 434 4403 1153 
Q 4038 1834 3866 2753 
Q 3678 2356 3353 1919 
L 2950 2203 
Q 3838 3172 3963 5253 
L 4409 5125 
Q 4341 4384 4269 4006 
L 5984 4006 
L 5984 3547 
L 5619 3541 
L 5594 3341 
Q 5441 2113 4978 1191 
Q 5281 672 6138 19 
z
M 5166 3541 
L 4172 3541 
Q 4297 2419 4691 1650 
Q 5038 2513 5166 3541 
z
M 3438 3653 
L 2209 3653 
L 2209 2338 
L 1919 2338 
Q 1900 2269 1753 1931 
L 3225 1931 
L 3225 1472 
L 2913 1472 
Q 2763 991 2503 666 
Q 2947 353 3103 184 
L 2747 -172 
Q 2463 138 2150 313 
Q 1322 -225 563 -428 
L 269 6 
Q 1106 163 1684 563 
Q 1291 756 703 884 
L 1038 1472 
L 403 1472 
L 403 1931 
L 1259 1931 
Q 1328 2056 1466 2553 
L 1747 2484 
L 1747 3653 
L 1716 3653 
Q 1413 2881 678 2456 
L 378 2803 
Q 938 3091 1241 3653 
L 403 3653 
L 403 4122 
L 1747 4122 
L 1747 5228 
L 2209 5228 
L 2209 4122 
L 3438 4122 
L 3438 3653 
z
M 2406 1472 
L 1538 1472 
Q 1422 1241 1369 1153 
Q 1388 1159 2069 884 
Q 2219 1031 2406 1472 
z
M 1625 4441 
L 1288 4159 
Q 1022 4547 575 4813 
L 878 5075 
Q 1394 4844 1625 4441 
z
M 3384 4844 
Q 3097 4409 2669 4172 
L 2322 4481 
Q 2806 4759 3047 5069 
L 3384 4844 
z
M 3303 2888 
L 2944 2578 
Q 2706 3025 2291 3297 
L 2584 3566 
Q 2988 3359 3303 2888 
z
" transform="scale(0.015625)"/>
       <path id="ArialUnicodeMS-28" d="M 1900 -1344 
L 1497 -1344 
Q 978 -681 681 103 
Q 384 888 384 1656 
Q 384 2528 700 3275 
Q 1016 4022 1497 4659 
L 1900 4659 
Q 1344 3747 1155 3059 
Q 966 2372 966 1663 
Q 966 153 1900 -1344 
z
" transform="scale(0.015625)"/>
       <path id="ArialUnicodeMS-53f0" d="M 5784 2656 
L 5369 2322 
Q 5228 2594 4928 3016 
L 978 2834 
L 794 3334 
L 1697 3359 
Q 2372 4347 2797 5375 
L 3322 5147 
Q 2744 3988 2272 3372 
L 4575 3463 
Q 4197 3850 3719 4166 
L 4109 4469 
Q 5166 3766 5784 2656 
z
M 5044 -325 
L 4556 -325 
L 4556 159 
L 1791 159 
L 1791 -325 
L 1288 -325 
L 1288 2322 
L 5044 2322 
L 5044 -325 
z
M 4556 628 
L 4556 1856 
L 1791 1856 
L 1791 628 
L 4556 628 
z
" transform="scale(0.015625)"/>
       <path id="ArialUnicodeMS-29" d="M 634 4659 
Q 1153 3997 1450 3212 
Q 1747 2428 1747 1656 
Q 1747 788 1431 41 
Q 1116 -706 634 -1344 
L 231 -1344 
Q 788 -431 977 255 
Q 1166 941 1166 1650 
Q 1166 3163 231 4659 
L 634 4659 
z
" transform="scale(0.015625)"/>
      </defs>
      <use xlink:href="#ArialUnicodeMS-8fb9"/>
      <use xlink:href="#ArialUnicodeMS-7f18" x="100"/>
      <use xlink:href="#ArialUnicodeMS-8282" x="200"/>
      <use xlink:href="#ArialUnicodeMS-70b9" x="300"/>
      <use xlink:href="#ArialUnicodeMS-4e2a" x="400"/>
      <use xlink:href="#ArialUnicodeMS-6570" x="500"/>
      <use xlink:href="#ArialUnicodeMS-28" x="600"/>
      <use xlink:href="#ArialUnicodeMS-53f0" x="633.300781"/>
      <use xlink:href="#ArialUnicodeMS-29" x="733.300781"/>
     </g>
    </g>
   </g>
   <g id="matplotlib.axis_2">
    <g id="ytick_1">
     <g id="line2d_15">
      <path d="M 57.6 276.876593 
L 414.72 276.876593 
" clip-path="url(#p4ec0c26c51)" style="fill: none; stroke-dasharray: 1.85,0.8; stroke-dashoffset: 0; stroke: #b0b0b0; stroke-width: 0.5"/>
     </g>
     <g id="line2d_16">
      <defs>
       <path id="m1af3673d75" d="M 0 0 
L -3.5 0 
" style="stroke: #000000; stroke-width: 0.8"/>
      </defs>
      <g>
       <use xlink:href="#m1af3673d75" x="57.6" y="276.876593" style="stroke: #000000; stroke-width: 0.8"/>
      </g>
     </g>
     <g id="text_9">
      <!-- 0.2 -->
      <g transform="translate(36.7 280.4555)scale(0.1 -0.1)">
       <defs>
        <path id="ArialUnicodeMS-2e" d="M 1209 0 
L 569 0 
L 569 641 
L 1209 641 
L 1209 0 
z
" transform="scale(0.015625)"/>
       </defs>
       <use xlink:href="#ArialUnicodeMS-30"/>
       <use xlink:href="#ArialUnicodeMS-2e" x="55.615234"/>
       <use xlink:href="#ArialUnicodeMS-32" x="83.398438"/>
      </g>
     </g>
    </g>
    <g id="ytick_2">
     <g id="line2d_17">
      <path d="M 57.6 220.306969 
L 414.72 220.306969 
" clip-path="url(#p4ec0c26c51)" style="fill: none; stroke-dasharray: 1.85,0.8; stroke-dashoffset: 0; stroke: #b0b0b0; stroke-width: 0.5"/>
     </g>
     <g id="line2d_18">
      <g>
       <use xlink:href="#m1af3673d75" x="57.6" y="220.306969" style="stroke: #000000; stroke-width: 0.8"/>
      </g>
     </g>
     <g id="text_10">
      <!-- 0.4 -->
      <g transform="translate(36.7 223.885875)scale(0.1 -0.1)">
       <use xlink:href="#ArialUnicodeMS-30"/>
       <use xlink:href="#ArialUnicodeMS-2e" x="55.615234"/>
       <use xlink:href="#ArialUnicodeMS-34" x="83.398438"/>
      </g>
     </g>
    </g>
    <g id="ytick_3">
     <g id="line2d_19">
      <path d="M 57.6 163.737344 
L 414.72 163.737344 
" clip-path="url(#p4ec0c26c51)" style="fill: none; stroke-dasharray: 1.85,0.8; stroke-dashoffset: 0; stroke: #b0b0b0; stroke-width: 0.5"/>
     </g>
     <g id="line2d_20">
      <g>
       <use xlink:href="#m1af3673d75" x="57.6" y="163.737344" style="stroke: #000000; stroke-width: 0.8"/>
      </g>
     </g>
     <g id="text_11">
      <!-- 0.6 -->
      <g transform="translate(36.7 167.31625)scale(0.1 -0.1)">
       <use xlink:href="#ArialUnicodeMS-30"/>
       <use xlink:href="#ArialUnicodeMS-2e" x="55.615234"/>
       <use xlink:href="#ArialUnicodeMS-36" x="83.398438"/>
      </g>
     </g>
    </g>
    <g id="ytick_4">
     <g id="line2d_21">
      <path d="M 57.6 107.167719 
L 414.72 107.167719 
" clip-path="url(#p4ec0c26c51)" style="fill: none; stroke-dasharray: 1.85,0.8; stroke-dashoffset: 0; stroke: #b0b0b0; stroke-width: 0.5"/>
     </g>
     <g id="line2d_22">
      <g>
       <use xlink:href="#m1af3673d75" x="57.6" y="107.167719" style="stroke: #000000; stroke-width: 0.8"/>
      </g>
     </g>
     <g id="text_12">
      <!-- 0.8 -->
      <g transform="translate(36.7 110.746626)scale(0.1 -0.1)">
       <use xlink:href="#ArialUnicodeMS-30"/>
       <use xlink:href="#ArialUnicodeMS-2e" x="55.615234"/>
       <use xlink:href="#ArialUnicodeMS-38" x="83.398438"/>
      </g>
     </g>
    </g>
    <g id="ytick_5">
     <g id="line2d_23">
      <path d="M 57.6 50.598095 
L 414.72 50.598095 
" clip-path="url(#p4ec0c26c51)" style="fill: none; stroke-dasharray: 1.85,0.8; stroke-dashoffset: 0; stroke: #b0b0b0; stroke-width: 0.5"/>
     </g>
     <g id="line2d_24">
      <g>
       <use xlink:href="#m1af3673d75" x="57.6" y="50.598095" style="stroke: #000000; stroke-width: 0.8"/>
      </g>
     </g>
     <g id="text_13">
      <!-- 1.0 -->
      <g transform="translate(36.7 54.177001)scale(0.1 -0.1)">
       <use xlink:href="#ArialUnicodeMS-31"/>
       <use xlink:href="#ArialUnicodeMS-2e" x="55.615234"/>
       <use xlink:href="#ArialUnicodeMS-30" x="83.398438"/>
      </g>
     </g>
    </g>
    <g id="text_14">
     <!-- 任务处理受益率 -->
     <g transform="translate(30.707813 209.528)rotate(-90)scale(0.1 -0.1)">
      <defs>
       <path id="ArialUnicodeMS-4efb" d="M 2322 5081 
L 1741 3859 
L 1741 -469 
L 1228 -469 
L 1228 3059 
Q 1013 2653 575 2266 
L 172 2613 
Q 1034 3388 1844 5313 
L 2322 5081 
z
M 6075 2028 
L 4231 2028 
L 4231 225 
L 5650 225 
L 5650 -244 
L 2272 -244 
L 2272 225 
L 3694 225 
L 3694 2028 
L 1919 2028 
L 1919 2516 
L 3694 2516 
L 3694 4078 
Q 3072 4022 2491 4013 
L 2228 4500 
Q 4097 4491 5306 4928 
L 5613 4556 
Q 4978 4278 4231 4153 
L 4231 2516 
L 6075 2516 
L 6075 2028 
z
" transform="scale(0.015625)"/>
       <path id="ArialUnicodeMS-52a1" d="M 6131 2516 
L 5819 2088 
Q 4191 2431 3272 2981 
Q 2244 2309 422 2016 
L 225 2478 
Q 1959 2775 2828 3278 
Q 2081 3847 1966 4013 
Q 1447 3406 794 3144 
L 428 3584 
Q 1728 4050 2188 5306 
L 2613 5069 
Q 2597 5031 2456 4756 
L 4856 4756 
L 4856 4325 
Q 4434 3797 3700 3272 
Q 4516 2819 6131 2516 
z
M 4191 4288 
L 2297 4288 
Q 2516 4016 3256 3547 
Q 3853 3931 4191 4288 
z
M 5088 1978 
Q 5084 1322 4968 661 
Q 4853 0 4689 -208 
Q 4525 -416 4206 -416 
Q 3994 -416 3531 -347 
L 3413 213 
Q 3963 53 4178 53 
Q 4284 53 4345 156 
Q 4406 259 4490 770 
Q 4575 1281 4588 1509 
L 3206 1509 
Q 2841 -22 666 -441 
Q 441 -41 409 38 
Q 2394 316 2706 1509 
L 878 1509 
L 878 1978 
L 2784 1978 
Q 2794 2047 2794 2206 
Q 2794 2394 2803 2534 
L 3278 2472 
L 3272 1978 
L 5088 1978 
z
" transform="scale(0.015625)"/>
       <path id="ArialUnicodeMS-5904" d="M 5984 250 
L 5791 -238 
L 4728 -238 
Q 3650 -238 2995 50 
Q 2341 338 1931 909 
Q 1456 213 469 -428 
L 134 -50 
Q 1022 403 1672 1306 
Q 1313 1881 1125 2522 
L 1113 2522 
Q 947 2056 500 1575 
L 116 1888 
Q 1194 3222 1381 5234 
L 1825 5069 
L 1644 4091 
L 3016 4091 
Q 2791 2206 2188 1281 
Q 2572 744 3111 478 
Q 3650 213 4850 213 
Q 5259 213 5984 250 
z
M 2509 3653 
L 1550 3653 
Q 1406 3147 1394 3122 
Q 1556 2344 1925 1734 
Q 2353 2516 2509 3653 
z
M 4244 384 
L 3756 384 
L 3756 5178 
L 4244 5178 
L 4244 384 
z
M 5863 2209 
L 5466 1900 
Q 4988 2759 4331 3206 
L 4628 3513 
Q 5384 3028 5863 2209 
z
" transform="scale(0.015625)"/>
       <path id="ArialUnicodeMS-7406" d="M 6047 -103 
L 2163 -103 
L 2163 366 
L 3853 366 
L 3853 1094 
L 2572 1094 
L 2572 1563 
L 3853 1563 
L 3853 2163 
L 2528 2163 
L 2528 4959 
L 5656 4959 
L 5656 2163 
L 4341 2163 
L 4341 1563 
L 5613 1563 
L 5613 1094 
L 4341 1094 
L 4341 366 
L 6047 366 
L 6047 -103 
z
M 5191 4494 
L 4341 4494 
L 4341 3822 
L 5178 3822 
L 5191 4494 
z
M 3853 3822 
L 3853 4494 
L 3016 4494 
L 3016 3822 
L 3853 3822 
z
M 5172 2631 
L 5172 3353 
L 4341 3353 
L 4341 2631 
L 5172 2631 
z
M 3853 2631 
L 3853 3353 
L 3016 3353 
L 3016 2631 
L 3853 2631 
z
M 2456 1153 
L 647 409 
L 225 794 
Q 553 891 1191 1131 
L 1191 2606 
L 544 2606 
L 544 3072 
L 1191 3072 
L 1191 4319 
L 416 4319 
L 416 4788 
L 2400 4788 
L 2400 4319 
L 1678 4319 
L 1678 3072 
L 2309 3072 
L 2309 2606 
L 1678 2606 
L 1678 1319 
Q 2200 1538 2456 1631 
L 2456 1153 
z
" transform="scale(0.015625)"/>
       <path id="ArialUnicodeMS-53d7" d="M 5556 4909 
Q 3675 4353 997 4313 
L 756 4781 
Q 3653 4756 5300 5306 
L 5556 4909 
z
M 5613 2216 
L 5125 2216 
L 5125 2784 
L 1253 2784 
L 1253 2181 
L 769 2181 
L 769 3250 
L 1947 3250 
Q 1644 3794 1141 4091 
L 1613 4306 
Q 2059 4056 2419 3431 
L 2075 3250 
L 3928 3250 
Q 4506 3884 4697 4672 
L 5203 4481 
Q 4959 3891 4488 3250 
L 5613 3250 
L 5613 2216 
z
M 3756 3456 
L 3303 3284 
Q 3119 3806 2638 4250 
L 3097 4416 
Q 3578 3925 3756 3456 
z
M 5991 91 
L 5691 -378 
Q 4122 -156 3244 359 
Q 2316 -125 728 -434 
L 409 13 
Q 1972 259 2772 653 
Q 2041 1219 1772 1844 
L 1416 1844 
L 1416 2309 
L 4916 2309 
L 4916 1913 
Q 4550 1225 3719 641 
Q 4538 206 5991 91 
z
M 4300 1844 
L 2303 1844 
Q 2663 1247 3244 909 
Q 3941 1319 4300 1844 
z
" transform="scale(0.015625)"/>
       <path id="ArialUnicodeMS-76ca" d="M 5191 5063 
Q 4775 4500 4072 4000 
L 3706 4341 
Q 4428 4822 4788 5375 
L 5191 5063 
z
M 2675 4306 
L 2259 3994 
Q 1838 4713 1197 5075 
L 1631 5350 
Q 2178 5041 2675 4306 
z
M 5869 3506 
L 531 3506 
L 531 3975 
L 5869 3975 
L 5869 3506 
z
M 6144 2150 
L 5831 1753 
Q 5544 1859 5209 2034 
L 5209 353 
L 5984 353 
L 5984 -116 
L 403 -116 
L 403 353 
L 1203 353 
L 1203 2113 
Q 906 1969 609 1875 
L 288 2284 
Q 1559 2691 2322 3463 
L 2688 3116 
Q 2044 2509 1313 2150 
L 5006 2150 
Q 4272 2588 3738 3169 
L 4128 3481 
Q 4856 2681 6144 2150 
z
M 4691 366 
L 4691 1709 
L 4044 1709 
L 4044 366 
L 4691 366 
z
M 3547 366 
L 3547 1709 
L 2847 1709 
L 2847 366 
L 3547 366 
z
M 2350 353 
L 2350 1684 
L 1703 1684 
L 1703 353 
L 2350 353 
z
" transform="scale(0.015625)"/>
       <path id="ArialUnicodeMS-7387" d="M 5663 4313 
L 3469 4313 
Q 3113 3806 2828 3488 
L 3244 3309 
Q 3453 3538 3822 4078 
L 4263 3872 
Q 3531 2878 3022 2356 
L 3809 2406 
Q 3738 2594 3591 2822 
L 4019 2969 
Q 4375 2419 4459 1813 
L 3988 1678 
Q 3988 1806 3938 1966 
L 2150 1819 
L 1997 2316 
L 2431 2328 
Q 2616 2500 2931 2906 
Q 2372 3163 1978 3278 
L 2203 3731 
L 2419 3647 
Q 2634 3900 2888 4313 
L 709 4313 
L 709 4781 
L 2956 4781 
L 2956 5375 
L 3444 5375 
L 3444 4781 
L 5663 4781 
L 5663 4313 
z
M 5734 3922 
Q 5091 3316 4581 3128 
L 4294 3553 
Q 4947 3791 5447 4281 
L 5734 3922 
z
M 1984 3397 
L 1619 3059 
Q 1263 3534 653 3853 
L 947 4184 
Q 1531 3975 1984 3397 
z
M 2131 2597 
Q 1419 2031 763 1813 
L 459 2209 
Q 1238 2447 1863 2994 
L 2131 2597 
z
M 5906 2216 
L 5619 1831 
Q 5109 2341 4306 2553 
L 4550 2938 
Q 5391 2722 5906 2216 
z
M 5941 1038 
L 3456 1038 
L 3456 -441 
L 2963 -441 
L 2963 1038 
L 459 1038 
L 459 1503 
L 2963 1503 
L 2963 1831 
L 3456 1831 
L 3456 1503 
L 5941 1503 
L 5941 1038 
z
" transform="scale(0.015625)"/>
      </defs>
      <use xlink:href="#ArialUnicodeMS-4efb"/>
      <use xlink:href="#ArialUnicodeMS-52a1" x="100"/>
      <use xlink:href="#ArialUnicodeMS-5904" x="200"/>
      <use xlink:href="#ArialUnicodeMS-7406" x="300"/>
      <use xlink:href="#ArialUnicodeMS-53d7" x="400"/>
      <use xlink:href="#ArialUnicodeMS-76ca" x="500"/>
      <use xlink:href="#ArialUnicodeMS-7387" x="600"/>
     </g>
    </g>
   </g>
   <g id="line2d_25">
    <path d="M 73.832727 167.668933 
L 94.123636 117.604815 
L 114.414545 116.897695 
L 134.705455 116.784556 
L 154.996364 115.455169 
L 175.287273 107.705131 
L 195.578182 70.96316 
L 215.869091 82.390224 
L 236.16 82.390224 
L 256.450909 82.390224 
L 276.741818 71.67028 
L 297.032727 70.454033 
L 317.323636 64.259659 
L 337.614545 59.818944 
L 357.905455 56.396481 
L 378.196364 56.057063 
L 398.487273 55.8025 
" clip-path="url(#p4ec0c26c51)" style="fill: none; stroke: #ff0000; stroke-width: 2; stroke-linecap: square"/>
    <defs>
     <path id="m1f95e2915f" d="M 0 3 
C 0.795609 3 1.55874 2.683901 2.12132 2.12132 
C 2.683901 1.55874 3 0.795609 3 0 
C 3 -0.795609 2.683901 -1.55874 2.12132 -2.12132 
C 1.55874 -2.683901 0.795609 -3 0 -3 
C -0.795609 -3 -1.55874 -2.683901 -2.12132 -2.12132 
C -2.683901 -1.55874 -3 -0.795609 -3 0 
C -3 0.795609 -2.683901 1.55874 -2.12132 2.12132 
C -1.55874 2.683901 -0.795609 3 0 3 
z
" style="stroke: #ff0000"/>
    </defs>
    <g clip-path="url(#p4ec0c26c51)">
     <use xlink:href="#m1f95e2915f" x="73.832727" y="167.668933" style="fill: #ff0000; stroke: #ff0000"/>
     <use xlink:href="#m1f95e2915f" x="94.123636" y="117.604815" style="fill: #ff0000; stroke: #ff0000"/>
     <use xlink:href="#m1f95e2915f" x="114.414545" y="116.897695" style="fill: #ff0000; stroke: #ff0000"/>
     <use xlink:href="#m1f95e2915f" x="134.705455" y="116.784556" style="fill: #ff0000; stroke: #ff0000"/>
     <use xlink:href="#m1f95e2915f" x="154.996364" y="115.455169" style="fill: #ff0000; stroke: #ff0000"/>
     <use xlink:href="#m1f95e2915f" x="175.287273" y="107.705131" style="fill: #ff0000; stroke: #ff0000"/>
     <use xlink:href="#m1f95e2915f" x="195.578182" y="70.96316" style="fill: #ff0000; stroke: #ff0000"/>
     <use xlink:href="#m1f95e2915f" x="215.869091" y="82.390224" style="fill: #ff0000; stroke: #ff0000"/>
     <use xlink:href="#m1f95e2915f" x="236.16" y="82.390224" style="fill: #ff0000; stroke: #ff0000"/>
     <use xlink:href="#m1f95e2915f" x="256.450909" y="82.390224" style="fill: #ff0000; stroke: #ff0000"/>
     <use xlink:href="#m1f95e2915f" x="276.741818" y="71.67028" style="fill: #ff0000; stroke: #ff0000"/>
     <use xlink:href="#m1f95e2915f" x="297.032727" y="70.454033" style="fill: #ff0000; stroke: #ff0000"/>
     <use xlink:href="#m1f95e2915f" x="317.323636" y="64.259659" style="fill: #ff0000; stroke: #ff0000"/>
     <use xlink:href="#m1f95e2915f" x="337.614545" y="59.818944" style="fill: #ff0000; stroke: #ff0000"/>
     <use xlink:href="#m1f95e2915f" x="357.905455" y="56.396481" style="fill: #ff0000; stroke: #ff0000"/>
     <use xlink:href="#m1f95e2915f" x="378.196364" y="56.057063" style="fill: #ff0000; stroke: #ff0000"/>
     <use xlink:href="#m1f95e2915f" x="398.487273" y="55.8025" style="fill: #ff0000; stroke: #ff0000"/>
    </g>
   </g>
   <g id="line2d_26">
    <path d="M 73.832727 295.488 
L 94.123636 192.022156 
L 114.414545 192.135296 
L 134.705455 191.117042 
L 154.996364 175.928098 
L 175.287273 157.146983 
L 195.578182 94.835541 
L 215.869091 62.477716 
L 236.16 62.421146 
L 256.450909 64.287944 
L 276.741818 63.043412 
L 297.032727 59.394671 
L 317.323636 57.216741 
L 337.614545 56.651045 
L 357.905455 56.62276 
L 378.196364 56.62276 
L 398.487273 56.62276 
" clip-path="url(#p4ec0c26c51)" style="fill: none; stroke: #0000ff; stroke-width: 2; stroke-linecap: square"/>
    <defs>
     <path id="m7d0fd4e791" d="M -3 3 
L 3 3 
L 3 -3 
L -3 -3 
z
" style="stroke: #0000ff; stroke-linejoin: miter"/>
    </defs>
    <g clip-path="url(#p4ec0c26c51)">
     <use xlink:href="#m7d0fd4e791" x="73.832727" y="295.488" style="fill: #0000ff; stroke: #0000ff; stroke-linejoin: miter"/>
     <use xlink:href="#m7d0fd4e791" x="94.123636" y="192.022156" style="fill: #0000ff; stroke: #0000ff; stroke-linejoin: miter"/>
     <use xlink:href="#m7d0fd4e791" x="114.414545" y="192.135296" style="fill: #0000ff; stroke: #0000ff; stroke-linejoin: miter"/>
     <use xlink:href="#m7d0fd4e791" x="134.705455" y="191.117042" style="fill: #0000ff; stroke: #0000ff; stroke-linejoin: miter"/>
     <use xlink:href="#m7d0fd4e791" x="154.996364" y="175.928098" style="fill: #0000ff; stroke: #0000ff; stroke-linejoin: miter"/>
     <use xlink:href="#m7d0fd4e791" x="175.287273" y="157.146983" style="fill: #0000ff; stroke: #0000ff; stroke-linejoin: miter"/>
     <use xlink:href="#m7d0fd4e791" x="195.578182" y="94.835541" style="fill: #0000ff; stroke: #0000ff; stroke-linejoin: miter"/>
     <use xlink:href="#m7d0fd4e791" x="215.869091" y="62.477716" style="fill: #0000ff; stroke: #0000ff; stroke-linejoin: miter"/>
     <use xlink:href="#m7d0fd4e791" x="236.16" y="62.421146" style="fill: #0000ff; stroke: #0000ff; stroke-linejoin: miter"/>
     <use xlink:href="#m7d0fd4e791" x="256.450909" y="64.287944" style="fill: #0000ff; stroke: #0000ff; stroke-linejoin: miter"/>
     <use xlink:href="#m7d0fd4e791" x="276.741818" y="63.043412" style="fill: #0000ff; stroke: #0000ff; stroke-linejoin: miter"/>
     <use xlink:href="#m7d0fd4e791" x="297.032727" y="59.394671" style="fill: #0000ff; stroke: #0000ff; stroke-linejoin: miter"/>
     <use xlink:href="#m7d0fd4e791" x="317.323636" y="57.216741" style="fill: #0000ff; stroke: #0000ff; stroke-linejoin: miter"/>
     <use xlink:href="#m7d0fd4e791" x="337.614545" y="56.651045" style="fill: #0000ff; stroke: #0000ff; stroke-linejoin: miter"/>
     <use xlink:href="#m7d0fd4e791" x="357.905455" y="56.62276" style="fill: #0000ff; stroke: #0000ff; stroke-linejoin: miter"/>
     <use xlink:href="#m7d0fd4e791" x="378.196364" y="56.62276" style="fill: #0000ff; stroke: #0000ff; stroke-linejoin: miter"/>
     <use xlink:href="#m7d0fd4e791" x="398.487273" y="56.62276" style="fill: #0000ff; stroke: #0000ff; stroke-linejoin: miter"/>
    </g>
   </g>
   <g id="line2d_27">
    <path d="M 73.832727 191.51303 
L 94.123636 158.985496 
L 114.414545 136.753633 
L 134.705455 126.825664 
L 154.996364 119.726176 
L 175.287273 109.487074 
L 195.578182 80.523426 
L 215.869091 59.592665 
L 236.16 54.303405 
L 256.450909 53.568 
L 276.741818 55.123665 
L 297.032727 56.424766 
L 317.323636 56.707614 
L 337.614545 56.651045 
L 357.905455 56.62276 
L 378.196364 56.62276 
L 398.487273 56.62276 
" clip-path="url(#p4ec0c26c51)" style="fill: none; stroke: #008000; stroke-width: 2; stroke-linecap: square"/>
    <defs>
     <path id="m58940fc2de" d="M 0 -3 
L -3 3 
L 3 3 
z
" style="stroke: #008000; stroke-linejoin: miter"/>
    </defs>
    <g clip-path="url(#p4ec0c26c51)">
     <use xlink:href="#m58940fc2de" x="73.832727" y="191.51303" style="fill: #008000; stroke: #008000; stroke-linejoin: miter"/>
     <use xlink:href="#m58940fc2de" x="94.123636" y="158.985496" style="fill: #008000; stroke: #008000; stroke-linejoin: miter"/>
     <use xlink:href="#m58940fc2de" x="114.414545" y="136.753633" style="fill: #008000; stroke: #008000; stroke-linejoin: miter"/>
     <use xlink:href="#m58940fc2de" x="134.705455" y="126.825664" style="fill: #008000; stroke: #008000; stroke-linejoin: miter"/>
     <use xlink:href="#m58940fc2de" x="154.996364" y="119.726176" style="fill: #008000; stroke: #008000; stroke-linejoin: miter"/>
     <use xlink:href="#m58940fc2de" x="175.287273" y="109.487074" style="fill: #008000; stroke: #008000; stroke-linejoin: miter"/>
     <use xlink:href="#m58940fc2de" x="195.578182" y="80.523426" style="fill: #008000; stroke: #008000; stroke-linejoin: miter"/>
     <use xlink:href="#m58940fc2de" x="215.869091" y="59.592665" style="fill: #008000; stroke: #008000; stroke-linejoin: miter"/>
     <use xlink:href="#m58940fc2de" x="236.16" y="54.303405" style="fill: #008000; stroke: #008000; stroke-linejoin: miter"/>
     <use xlink:href="#m58940fc2de" x="256.450909" y="53.568" style="fill: #008000; stroke: #008000; stroke-linejoin: miter"/>
     <use xlink:href="#m58940fc2de" x="276.741818" y="55.123665" style="fill: #008000; stroke: #008000; stroke-linejoin: miter"/>
     <use xlink:href="#m58940fc2de" x="297.032727" y="56.424766" style="fill: #008000; stroke: #008000; stroke-linejoin: miter"/>
     <use xlink:href="#m58940fc2de" x="317.323636" y="56.707614" style="fill: #008000; stroke: #008000; stroke-linejoin: miter"/>
     <use xlink:href="#m58940fc2de" x="337.614545" y="56.651045" style="fill: #008000; stroke: #008000; stroke-linejoin: miter"/>
     <use xlink:href="#m58940fc2de" x="357.905455" y="56.62276" style="fill: #008000; stroke: #008000; stroke-linejoin: miter"/>
     <use xlink:href="#m58940fc2de" x="378.196364" y="56.62276" style="fill: #008000; stroke: #008000; stroke-linejoin: miter"/>
     <use xlink:href="#m58940fc2de" x="398.487273" y="56.62276" style="fill: #008000; stroke: #008000; stroke-linejoin: miter"/>
    </g>
   </g>
   <g id="line2d_28">
    <path d="M 73.832727 233.996818 
L 94.123636 192.191865 
L 114.414545 191.993872 
L 134.705455 185.40351 
L 154.996364 148.49183 
L 175.287273 100.209656 
L 195.578182 70.538887 
L 215.869091 63.835387 
L 236.16 60.356355 
L 256.450909 58.80069 
L 276.741818 67.14471 
L 297.032727 78.034363 
L 317.323636 84.228737 
L 337.614545 86.208673 
L 357.905455 86.406667 
L 378.196364 86.463237 
L 398.487273 86.463237 
" clip-path="url(#p4ec0c26c51)" style="fill: none; stroke: #ffa500; stroke-width: 2; stroke-linecap: square"/>
    <defs>
     <path id="mdfb049c63e" d="M -0 4.242641 
L 4.242641 0 
L 0 -4.242641 
L -4.242641 -0 
z
" style="stroke: #ffa500; stroke-linejoin: miter"/>
    </defs>
    <g clip-path="url(#p4ec0c26c51)">
     <use xlink:href="#mdfb049c63e" x="73.832727" y="233.996818" style="fill: #ffa500; stroke: #ffa500; stroke-linejoin: miter"/>
     <use xlink:href="#mdfb049c63e" x="94.123636" y="192.191865" style="fill: #ffa500; stroke: #ffa500; stroke-linejoin: miter"/>
     <use xlink:href="#mdfb049c63e" x="114.414545" y="191.993872" style="fill: #ffa500; stroke: #ffa500; stroke-linejoin: miter"/>
     <use xlink:href="#mdfb049c63e" x="134.705455" y="185.40351" style="fill: #ffa500; stroke: #ffa500; stroke-linejoin: miter"/>
     <use xlink:href="#mdfb049c63e" x="154.996364" y="148.49183" style="fill: #ffa500; stroke: #ffa500; stroke-linejoin: miter"/>
     <use xlink:href="#mdfb049c63e" x="175.287273" y="100.209656" style="fill: #ffa500; stroke: #ffa500; stroke-linejoin: miter"/>
     <use xlink:href="#mdfb049c63e" x="195.578182" y="70.538887" style="fill: #ffa500; stroke: #ffa500; stroke-linejoin: miter"/>
     <use xlink:href="#mdfb049c63e" x="215.869091" y="63.835387" style="fill: #ffa500; stroke: #ffa500; stroke-linejoin: miter"/>
     <use xlink:href="#mdfb049c63e" x="236.16" y="60.356355" style="fill: #ffa500; stroke: #ffa500; stroke-linejoin: miter"/>
     <use xlink:href="#mdfb049c63e" x="256.450909" y="58.80069" style="fill: #ffa500; stroke: #ffa500; stroke-linejoin: miter"/>
     <use xlink:href="#mdfb049c63e" x="276.741818" y="67.14471" style="fill: #ffa500; stroke: #ffa500; stroke-linejoin: miter"/>
     <use xlink:href="#mdfb049c63e" x="297.032727" y="78.034363" style="fill: #ffa500; stroke: #ffa500; stroke-linejoin: miter"/>
     <use xlink:href="#mdfb049c63e" x="317.323636" y="84.228737" style="fill: #ffa500; stroke: #ffa500; stroke-linejoin: miter"/>
     <use xlink:href="#mdfb049c63e" x="337.614545" y="86.208673" style="fill: #ffa500; stroke: #ffa500; stroke-linejoin: miter"/>
     <use xlink:href="#mdfb049c63e" x="357.905455" y="86.406667" style="fill: #ffa500; stroke: #ffa500; stroke-linejoin: miter"/>
     <use xlink:href="#mdfb049c63e" x="378.196364" y="86.463237" style="fill: #ffa500; stroke: #ffa500; stroke-linejoin: miter"/>
     <use xlink:href="#mdfb049c63e" x="398.487273" y="86.463237" style="fill: #ffa500; stroke: #ffa500; stroke-linejoin: miter"/>
    </g>
   </g>
   <g id="line2d_29">
    <path d="M 73.832727 181.330497 
L 94.123636 153.526527 
L 114.414545 138.818424 
L 134.705455 127.334791 
L 154.996364 104.424093 
L 175.287273 86.746085 
L 195.578182 66.748723 
L 215.869091 63.835387 
L 236.16 60.356355 
L 256.450909 58.80069 
L 276.741818 57.612728 
L 297.032727 68.502381 
L 317.323636 74.696755 
L 337.614545 76.676692 
L 357.905455 76.874685 
L 378.196364 76.931255 
L 398.487273 76.931255 
" clip-path="url(#p4ec0c26c51)" style="fill: none; stroke: #800080; stroke-width: 2; stroke-linecap: square"/>
    <defs>
     <path id="ma2f97d6af9" d="M 0 -3 
L -0.673542 -0.927051 
L -2.85317 -0.927051 
L -1.089814 0.354102 
L -1.763356 2.427051 
L -0 1.145898 
L 1.763356 2.427051 
L 1.089814 0.354102 
L 2.85317 -0.927051 
L 0.673542 -0.927051 
z
" style="stroke: #800080; stroke-linejoin: bevel"/>
    </defs>
    <g clip-path="url(#p4ec0c26c51)">
     <use xlink:href="#ma2f97d6af9" x="73.832727" y="181.330497" style="fill: #800080; stroke: #800080; stroke-linejoin: bevel"/>
     <use xlink:href="#ma2f97d6af9" x="94.123636" y="153.526527" style="fill: #800080; stroke: #800080; stroke-linejoin: bevel"/>
     <use xlink:href="#ma2f97d6af9" x="114.414545" y="138.818424" style="fill: #800080; stroke: #800080; stroke-linejoin: bevel"/>
     <use xlink:href="#ma2f97d6af9" x="134.705455" y="127.334791" style="fill: #800080; stroke: #800080; stroke-linejoin: bevel"/>
     <use xlink:href="#ma2f97d6af9" x="154.996364" y="104.424093" style="fill: #800080; stroke: #800080; stroke-linejoin: bevel"/>
     <use xlink:href="#ma2f97d6af9" x="175.287273" y="86.746085" style="fill: #800080; stroke: #800080; stroke-linejoin: bevel"/>
     <use xlink:href="#ma2f97d6af9" x="195.578182" y="66.748723" style="fill: #800080; stroke: #800080; stroke-linejoin: bevel"/>
     <use xlink:href="#ma2f97d6af9" x="215.869091" y="63.835387" style="fill: #800080; stroke: #800080; stroke-linejoin: bevel"/>
     <use xlink:href="#ma2f97d6af9" x="236.16" y="60.356355" style="fill: #800080; stroke: #800080; stroke-linejoin: bevel"/>
     <use xlink:href="#ma2f97d6af9" x="256.450909" y="58.80069" style="fill: #800080; stroke: #800080; stroke-linejoin: bevel"/>
     <use xlink:href="#ma2f97d6af9" x="276.741818" y="57.612728" style="fill: #800080; stroke: #800080; stroke-linejoin: bevel"/>
     <use xlink:href="#ma2f97d6af9" x="297.032727" y="68.502381" style="fill: #800080; stroke: #800080; stroke-linejoin: bevel"/>
     <use xlink:href="#ma2f97d6af9" x="317.323636" y="74.696755" style="fill: #800080; stroke: #800080; stroke-linejoin: bevel"/>
     <use xlink:href="#ma2f97d6af9" x="337.614545" y="76.676692" style="fill: #800080; stroke: #800080; stroke-linejoin: bevel"/>
     <use xlink:href="#ma2f97d6af9" x="357.905455" y="76.874685" style="fill: #800080; stroke: #800080; stroke-linejoin: bevel"/>
     <use xlink:href="#ma2f97d6af9" x="378.196364" y="76.931255" style="fill: #800080; stroke: #800080; stroke-linejoin: bevel"/>
     <use xlink:href="#ma2f97d6af9" x="398.487273" y="76.931255" style="fill: #800080; stroke: #800080; stroke-linejoin: bevel"/>
    </g>
   </g>
   <g id="patch_3">
    <path d="M 57.6 307.584 
L 57.6 41.472 
" style="fill: none; stroke: #000000; stroke-width: 0.8; stroke-linejoin: miter; stroke-linecap: square"/>
   </g>
   <g id="patch_4">
    <path d="M 414.72 307.584 
L 414.72 41.472 
" style="fill: none; stroke: #000000; stroke-width: 0.8; stroke-linejoin: miter; stroke-linecap: square"/>
   </g>
   <g id="patch_5">
    <path d="M 57.6 307.584 
L 414.72 307.584 
" style="fill: none; stroke: #000000; stroke-width: 0.8; stroke-linejoin: miter; stroke-linecap: square"/>
   </g>
   <g id="patch_6">
    <path d="M 57.6 41.472 
L 414.72 41.472 
" style="fill: none; stroke: #000000; stroke-width: 0.8; stroke-linejoin: miter; stroke-linecap: square"/>
   </g>
   <g id="legend_1">
    <g id="patch_7">
     <path d="M 327.385625 302.584 
L 407.72 302.584 
Q 409.72 302.584 409.72 300.584 
L 409.72 230.834 
Q 409.72 228.834 407.72 228.834 
L 327.385625 228.834 
Q 325.385625 228.834 325.385625 230.834 
L 325.385625 300.584 
Q 325.385625 302.584 327.385625 302.584 
z
" style="fill: #ffffff; opacity: 0.8; stroke: #cccccc; stroke-linejoin: miter"/>
    </g>
    <g id="line2d_30">
     <path d="M 329.385625 236.491812 
L 339.385625 236.491812 
L 349.385625 236.491812 
" style="fill: none; stroke: #ff0000; stroke-width: 2; stroke-linecap: square"/>
     <g>
      <use xlink:href="#m1f95e2915f" x="339.385625" y="236.491812" style="fill: #ff0000; stroke: #ff0000"/>
     </g>
    </g>
    <g id="text_15">
     <!-- SWD-AD -->
     <g transform="translate(357.385625 239.991812)scale(0.1 -0.1)">
      <defs>
       <path id="ArialUnicodeMS-53" d="M 3213 3238 
Q 3175 3675 2897 3895 
Q 2619 4116 2100 4116 
Q 1631 4116 1337 3941 
Q 1044 3766 1044 3431 
Q 1044 3134 1270 2989 
Q 1497 2844 2138 2700 
Q 2706 2575 3065 2444 
Q 3425 2313 3681 2036 
Q 3938 1759 3938 1294 
Q 3938 703 3467 312 
Q 2997 -78 2241 -78 
Q 1275 -78 795 353 
Q 316 784 288 1472 
L 863 1522 
Q 903 972 1287 720 
Q 1672 469 2216 469 
Q 2725 469 3039 678 
Q 3353 888 3353 1247 
Q 3353 1622 3025 1794 
Q 2697 1966 1923 2133 
Q 1150 2300 809 2603 
Q 469 2906 469 3391 
Q 469 3941 900 4300 
Q 1331 4659 2075 4659 
Q 2838 4659 3302 4301 
Q 3766 3944 3794 3284 
L 3213 3238 
z
" transform="scale(0.015625)"/>
       <path id="ArialUnicodeMS-57" d="M 5972 4581 
L 4709 0 
L 4128 0 
L 3128 3609 
Q 3050 3888 3028 4031 
L 3016 4031 
L 2888 3488 
L 1913 0 
L 1300 0 
L 78 4581 
L 697 4581 
L 1403 1575 
Q 1544 984 1581 706 
Q 1588 650 1588 641 
L 1600 641 
Q 1725 1234 1797 1491 
L 2669 4581 
L 3406 4581 
L 4056 2266 
Q 4300 1403 4409 641 
L 4422 641 
Q 4488 1013 4641 1638 
L 5363 4581 
L 5972 4581 
z
" transform="scale(0.015625)"/>
       <path id="ArialUnicodeMS-44" d="M 513 4581 
L 2094 4581 
Q 2509 4581 2809 4539 
Q 3109 4497 3382 4333 
Q 3656 4169 3861 3881 
Q 4066 3594 4183 3220 
Q 4300 2847 4300 2316 
Q 4300 1303 3819 651 
Q 3338 0 2163 0 
L 513 0 
L 513 4581 
z
M 1119 544 
L 2100 544 
Q 2400 544 2636 581 
Q 2872 619 3114 784 
Q 3356 950 3515 1328 
Q 3675 1706 3675 2328 
Q 3675 2672 3614 2970 
Q 3553 3269 3389 3514 
Q 3225 3759 3012 3873 
Q 2800 3988 2598 4013 
Q 2397 4038 2081 4038 
L 1119 4038 
L 1119 544 
z
" transform="scale(0.015625)"/>
       <path id="ArialUnicodeMS-2d" d="M 1925 1375 
L 206 1375 
L 206 1941 
L 1925 1941 
L 1925 1375 
z
" transform="scale(0.015625)"/>
       <path id="ArialUnicodeMS-41" d="M 4275 0 
L 3591 0 
L 3053 1394 
L 1141 1394 
L 634 0 
L -6 0 
L 1753 4581 
L 2406 4581 
L 4275 0 
z
M 2869 1875 
Q 2306 3363 2234 3564 
Q 2163 3766 2075 4103 
L 2059 4103 
Q 1972 3641 1825 3247 
L 1313 1875 
L 2869 1875 
z
" transform="scale(0.015625)"/>
      </defs>
      <use xlink:href="#ArialUnicodeMS-53"/>
      <use xlink:href="#ArialUnicodeMS-57" x="66.699219"/>
      <use xlink:href="#ArialUnicodeMS-44" x="161.083984"/>
      <use xlink:href="#ArialUnicodeMS-2d" x="233.300781"/>
      <use xlink:href="#ArialUnicodeMS-41" x="266.601562"/>
      <use xlink:href="#ArialUnicodeMS-44" x="333.300781"/>
     </g>
    </g>
    <g id="line2d_31">
     <path d="M 329.385625 250.641812 
L 339.385625 250.641812 
L 349.385625 250.641812 
" style="fill: none; stroke: #0000ff; stroke-width: 2; stroke-linecap: square"/>
     <g>
      <use xlink:href="#m7d0fd4e791" x="339.385625" y="250.641812" style="fill: #0000ff; stroke: #0000ff; stroke-linejoin: miter"/>
     </g>
    </g>
    <g id="text_16">
     <!-- Swarm -->
     <g transform="translate(357.385625 254.141812)scale(0.1 -0.1)">
      <defs>
       <path id="ArialUnicodeMS-77" d="M 4588 3316 
L 3547 0 
L 2963 0 
L 2438 1991 
Q 2434 1991 2371 2259 
Q 2309 2528 2309 2553 
L 2297 2553 
L 1638 0 
L 1050 0 
L 31 3316 
L 616 3316 
L 1338 691 
L 1450 1138 
L 2041 3316 
L 2619 3316 
L 3066 1578 
Q 3253 859 3272 763 
L 3284 763 
L 4038 3316 
L 4588 3316 
z
" transform="scale(0.015625)"/>
       <path id="ArialUnicodeMS-61" d="M 3303 0 
L 2713 0 
Q 2631 156 2597 409 
Q 2031 -78 1375 -78 
Q 850 -78 547 184 
Q 244 447 244 878 
Q 244 1291 536 1558 
Q 828 1825 1550 1913 
L 2075 1991 
Q 2369 2038 2559 2106 
Q 2559 2359 2543 2464 
Q 2528 2569 2451 2681 
Q 2375 2794 2206 2862 
Q 2038 2931 1753 2931 
Q 1391 2931 1180 2797 
Q 969 2663 891 2297 
L 341 2369 
Q 431 2878 806 3134 
Q 1181 3391 1838 3391 
Q 2434 3391 2714 3214 
Q 2994 3038 3058 2788 
Q 3122 2538 3122 2144 
L 3122 1388 
Q 3122 697 3148 461 
Q 3175 225 3303 0 
z
M 2559 1459 
L 2559 1663 
Q 2119 1516 1481 1430 
Q 844 1344 844 891 
Q 844 663 1016 514 
Q 1188 366 1509 366 
Q 1925 366 2242 614 
Q 2559 863 2559 1459 
z
" transform="scale(0.015625)"/>
       <path id="ArialUnicodeMS-72" d="M 2216 3213 
L 2022 2694 
Q 1813 2816 1613 2816 
Q 1297 2816 1134 2533 
Q 972 2250 972 1741 
L 972 0 
L 409 0 
L 409 3316 
L 922 3316 
L 922 2816 
L 934 2816 
Q 1203 3391 1638 3391 
Q 1925 3391 2216 3213 
z
" transform="scale(0.015625)"/>
       <path id="ArialUnicodeMS-6d" d="M 4922 0 
L 4359 0 
L 4359 2094 
Q 4359 2325 4328 2489 
Q 4297 2653 4167 2779 
Q 4038 2906 3763 2906 
Q 3431 2906 3190 2675 
Q 2950 2444 2950 1925 
L 2950 0 
L 2388 0 
L 2388 2156 
Q 2388 2588 2236 2747 
Q 2084 2906 1806 2906 
Q 1444 2906 1211 2656 
Q 978 2406 978 1722 
L 978 0 
L 416 0 
L 416 3316 
L 922 3316 
L 922 2853 
L 934 2853 
Q 1272 3391 1925 3391 
Q 2291 3391 2527 3245 
Q 2763 3100 2869 2809 
Q 3238 3391 3891 3391 
Q 4406 3391 4664 3112 
Q 4922 2834 4922 2278 
L 4922 0 
z
" transform="scale(0.015625)"/>
      </defs>
      <use xlink:href="#ArialUnicodeMS-53"/>
      <use xlink:href="#ArialUnicodeMS-77" x="66.699219"/>
      <use xlink:href="#ArialUnicodeMS-61" x="138.916016"/>
      <use xlink:href="#ArialUnicodeMS-72" x="194.53125"/>
      <use xlink:href="#ArialUnicodeMS-6d" x="227.832031"/>
     </g>
    </g>
    <g id="line2d_32">
     <path d="M 329.385625 264.791812 
L 339.385625 264.791812 
L 349.385625 264.791812 
" style="fill: none; stroke: #008000; stroke-width: 2; stroke-linecap: square"/>
     <g>
      <use xlink:href="#m58940fc2de" x="339.385625" y="264.791812" style="fill: #008000; stroke: #008000; stroke-linejoin: miter"/>
     </g>
    </g>
    <g id="text_17">
     <!-- Swarm-AD -->
     <g transform="translate(357.385625 268.291812)scale(0.1 -0.1)">
      <use xlink:href="#ArialUnicodeMS-53"/>
      <use xlink:href="#ArialUnicodeMS-77" x="66.699219"/>
      <use xlink:href="#ArialUnicodeMS-61" x="138.916016"/>
      <use xlink:href="#ArialUnicodeMS-72" x="194.53125"/>
      <use xlink:href="#ArialUnicodeMS-6d" x="227.832031"/>
      <use xlink:href="#ArialUnicodeMS-2d" x="311.132812"/>
      <use xlink:href="#ArialUnicodeMS-41" x="344.433594"/>
      <use xlink:href="#ArialUnicodeMS-44" x="411.132812"/>
     </g>
    </g>
    <g id="line2d_33">
     <path d="M 329.385625 278.941812 
L 339.385625 278.941812 
L 349.385625 278.941812 
" style="fill: none; stroke: #ffa500; stroke-width: 2; stroke-linecap: square"/>
     <g>
      <use xlink:href="#mdfb049c63e" x="339.385625" y="278.941812" style="fill: #ffa500; stroke: #ffa500; stroke-linejoin: miter"/>
     </g>
    </g>
    <g id="text_18">
     <!-- K8s -->
     <g transform="translate(357.385625 282.441812)scale(0.1 -0.1)">
      <defs>
       <path id="ArialUnicodeMS-4b" d="M 4256 0 
L 3456 0 
L 1831 2316 
L 1075 1588 
L 1075 0 
L 469 0 
L 469 4581 
L 1075 4581 
L 1075 2309 
L 3353 4581 
L 4172 4581 
L 2253 2725 
L 4256 0 
z
" transform="scale(0.015625)"/>
       <path id="ArialUnicodeMS-73" d="M 2278 2388 
Q 2241 2659 2058 2795 
Q 1875 2931 1550 2931 
Q 1228 2931 1029 2822 
Q 831 2713 831 2503 
Q 831 2306 989 2222 
Q 1147 2138 1613 2016 
Q 2138 1881 2398 1778 
Q 2659 1675 2804 1489 
Q 2950 1303 2950 972 
Q 2950 528 2587 225 
Q 2225 -78 1619 -78 
Q 988 -78 633 189 
Q 278 456 197 991 
L 756 1075 
Q 800 728 1014 556 
Q 1228 384 1613 384 
Q 1981 384 2178 539 
Q 2375 694 2375 916 
Q 2375 1066 2284 1156 
Q 2194 1247 2058 1292 
Q 1922 1338 1447 1453 
Q 741 1622 514 1862 
Q 288 2103 288 2438 
Q 288 2853 619 3122 
Q 950 3391 1509 3391 
Q 2103 3391 2433 3158 
Q 2763 2925 2828 2463 
L 2278 2388 
z
" transform="scale(0.015625)"/>
      </defs>
      <use xlink:href="#ArialUnicodeMS-4b"/>
      <use xlink:href="#ArialUnicodeMS-38" x="66.699219"/>
      <use xlink:href="#ArialUnicodeMS-73" x="122.314453"/>
     </g>
    </g>
    <g id="line2d_34">
     <path d="M 329.385625 293.091813 
L 339.385625 293.091813 
L 349.385625 293.091813 
" style="fill: none; stroke: #800080; stroke-width: 2; stroke-linecap: square"/>
     <g>
      <use xlink:href="#ma2f97d6af9" x="339.385625" y="293.091813" style="fill: #800080; stroke: #800080; stroke-linejoin: bevel"/>
     </g>
    </g>
    <g id="text_19">
     <!-- K8s-AD -->
     <g transform="translate(357.385625 296.591813)scale(0.1 -0.1)">
      <use xlink:href="#ArialUnicodeMS-4b"/>
      <use xlink:href="#ArialUnicodeMS-38" x="66.699219"/>
      <use xlink:href="#ArialUnicodeMS-73" x="122.314453"/>
      <use xlink:href="#ArialUnicodeMS-2d" x="172.314453"/>
      <use xlink:href="#ArialUnicodeMS-41" x="205.615234"/>
      <use xlink:href="#ArialUnicodeMS-44" x="272.314453"/>
     </g>
    </g>
   </g>
  </g>
 </g>
 <defs>
  <clipPath id="p4ec0c26c51">
   <rect x="57.6" y="41.472" width="357.12" height="266.112"/>
  </clipPath>
 </defs>
</svg>
