<?xml version="1.0" encoding="utf-8" standalone="no"?>
<!DOCTYPE svg PUBLIC "-//W3C//DTD SVG 1.1//EN"
  "http://www.w3.org/Graphics/SVG/1.1/DTD/svg11.dtd">
<svg xmlns:xlink="http://www.w3.org/1999/xlink" width="460.8pt" height="345.6pt" viewBox="0 0 460.8 345.6" xmlns="http://www.w3.org/2000/svg" version="1.1">
 <metadata>
  <rdf:RDF xmlns:dc="http://purl.org/dc/elements/1.1/" xmlns:cc="http://creativecommons.org/ns#" xmlns:rdf="http://www.w3.org/1999/02/22-rdf-syntax-ns#">
   <cc:Work>
    <dc:type rdf:resource="http://purl.org/dc/dcmitype/StillImage"/>
    <dc:date>2023-02-23T21:34:32.286698</dc:date>
    <dc:format>image/svg+xml</dc:format>
    <dc:creator>
     <cc:Agent>
      <dc:title>Matplotlib v3.5.3, https://matplotlib.org/</dc:title>
     </cc:Agent>
    </dc:creator>
   </cc:Work>
  </rdf:RDF>
 </metadata>
 <defs>
  <style type="text/css">*{stroke-linejoin: round; stroke-linecap: butt}</style>
 </defs>
 <g id="figure_1">
  <g id="patch_1">
   <path d="M 0 345.6 
L 460.8 345.6 
L 460.8 0 
L 0 0 
z
" style="fill: #ffffff"/>
  </g>
  <g id="axes_1">
   <g id="patch_2">
    <path d="M 57.6 307.584 
L 414.72 307.584 
L 414.72 41.472 
L 57.6 41.472 
z
" style="fill: #ffffff"/>
   </g>
   <g id="matplotlib.axis_1">
    <g id="xtick_1">
     <g id="line2d_1">
      <path d="M 73.832727 307.584 
L 73.832727 41.472 
" clip-path="url(#pcfff1c763e)" style="fill: none; stroke-dasharray: 1.85,0.8; stroke-dashoffset: 0; stroke: #b0b0b0; stroke-width: 0.5"/>
     </g>
     <g id="line2d_2">
      <defs>
       <path id="m9936009ed2" d="M 0 0 
L 0 3.5 
" style="stroke: #000000; stroke-width: 0.8"/>
      </defs>
      <g>
       <use xlink:href="#m9936009ed2" x="73.832727" y="307.584" style="stroke: #000000; stroke-width: 0.8"/>
      </g>
     </g>
     <g id="text_1">
      <!-- 2 -->
      <g transform="translate(71.052259 321.741812)scale(0.1 -0.1)">
       <defs>
        <path id="ArialUnicodeMS-32" d="M 3231 0 
L 197 0 
Q 197 388 467 784 
Q 738 1181 1478 1778 
Q 1931 2141 2287 2539 
Q 2644 2938 2644 3341 
Q 2644 3688 2398 3914 
Q 2153 4141 1778 4141 
Q 1400 4141 1144 3908 
Q 888 3675 884 3213 
L 306 3278 
Q 359 3922 764 4262 
Q 1169 4603 1791 4603 
Q 2466 4603 2842 4229 
Q 3219 3856 3219 3328 
Q 3219 2888 2901 2436 
Q 2584 1984 1638 1228 
Q 1141 831 978 544 
L 3231 544 
L 3231 0 
z
" transform="scale(0.015625)"/>
       </defs>
       <use xlink:href="#ArialUnicodeMS-32"/>
      </g>
     </g>
    </g>
    <g id="xtick_2">
     <g id="line2d_3">
      <path d="M 123.77958 307.584 
L 123.77958 41.472 
" clip-path="url(#pcfff1c763e)" style="fill: none; stroke-dasharray: 1.85,0.8; stroke-dashoffset: 0; stroke: #b0b0b0; stroke-width: 0.5"/>
     </g>
     <g id="line2d_4">
      <g>
       <use xlink:href="#m9936009ed2" x="123.77958" y="307.584" style="stroke: #000000; stroke-width: 0.8"/>
      </g>
     </g>
     <g id="text_2">
      <!-- 4 -->
      <g transform="translate(120.999112 321.741812)scale(0.1 -0.1)">
       <defs>
        <path id="ArialUnicodeMS-34" d="M 3263 1094 
L 2644 1094 
L 2644 0 
L 2081 0 
L 2081 1094 
L 97 1094 
L 97 1613 
L 2181 4581 
L 2644 4581 
L 2644 1613 
L 3263 1613 
L 3263 1094 
z
M 2081 1613 
L 2081 3681 
L 2069 3681 
L 647 1613 
L 2081 1613 
z
" transform="scale(0.015625)"/>
       </defs>
       <use xlink:href="#ArialUnicodeMS-34"/>
      </g>
     </g>
    </g>
    <g id="xtick_3">
     <g id="line2d_5">
      <path d="M 173.726434 307.584 
L 173.726434 41.472 
" clip-path="url(#pcfff1c763e)" style="fill: none; stroke-dasharray: 1.85,0.8; stroke-dashoffset: 0; stroke: #b0b0b0; stroke-width: 0.5"/>
     </g>
     <g id="line2d_6">
      <g>
       <use xlink:href="#m9936009ed2" x="173.726434" y="307.584" style="stroke: #000000; stroke-width: 0.8"/>
      </g>
     </g>
     <g id="text_3">
      <!-- 6 -->
      <g transform="translate(170.945965 321.741812)scale(0.1 -0.1)">
       <defs>
        <path id="ArialUnicodeMS-36" d="M 838 2363 
Q 1225 2969 1941 2969 
Q 2503 2969 2897 2553 
Q 3291 2138 3291 1491 
Q 3291 838 2898 380 
Q 2506 -78 1856 -78 
Q 1197 -78 733 409 
Q 269 897 269 2144 
Q 269 3369 689 3986 
Q 1109 4603 1906 4603 
Q 2422 4603 2778 4315 
Q 3134 4028 3213 3463 
L 2650 3413 
Q 2497 4141 1875 4141 
Q 1444 4141 1134 3712 
Q 825 3284 825 2363 
L 838 2363 
z
M 1844 384 
Q 2231 384 2472 696 
Q 2713 1009 2713 1453 
Q 2713 1897 2472 2187 
Q 2231 2478 1825 2478 
Q 1453 2478 1184 2204 
Q 916 1931 916 1484 
Q 916 1028 1180 706 
Q 1444 384 1844 384 
z
" transform="scale(0.015625)"/>
       </defs>
       <use xlink:href="#ArialUnicodeMS-36"/>
      </g>
     </g>
    </g>
    <g id="xtick_4">
     <g id="line2d_7">
      <path d="M 223.673287 307.584 
L 223.673287 41.472 
" clip-path="url(#pcfff1c763e)" style="fill: none; stroke-dasharray: 1.85,0.8; stroke-dashoffset: 0; stroke: #b0b0b0; stroke-width: 0.5"/>
     </g>
     <g id="line2d_8">
      <g>
       <use xlink:href="#m9936009ed2" x="223.673287" y="307.584" style="stroke: #000000; stroke-width: 0.8"/>
      </g>
     </g>
     <g id="text_4">
      <!-- 8 -->
      <g transform="translate(220.892818 321.741812)scale(0.1 -0.1)">
       <defs>
        <path id="ArialUnicodeMS-38" d="M 2425 2478 
Q 3284 2203 3284 1306 
Q 3284 716 2862 319 
Q 2441 -78 1778 -78 
Q 1109 -78 689 322 
Q 269 722 269 1325 
Q 269 1759 505 2084 
Q 741 2409 1141 2478 
L 1141 2491 
Q 453 2703 453 3419 
Q 453 3925 815 4264 
Q 1178 4603 1766 4603 
Q 2363 4603 2730 4253 
Q 3097 3903 3097 3406 
Q 3097 2731 2425 2491 
L 2425 2478 
z
M 1778 2700 
Q 2094 2700 2308 2901 
Q 2522 3103 2522 3406 
Q 2522 3716 2305 3928 
Q 2088 4141 1772 4141 
Q 1450 4141 1240 3931 
Q 1031 3722 1031 3438 
Q 1031 3097 1247 2898 
Q 1463 2700 1778 2700 
z
M 1778 384 
Q 2175 384 2440 640 
Q 2706 897 2706 1306 
Q 2706 1716 2432 1978 
Q 2159 2241 1766 2241 
Q 1356 2241 1100 1970 
Q 844 1700 844 1319 
Q 844 922 1108 653 
Q 1372 384 1778 384 
z
" transform="scale(0.015625)"/>
       </defs>
       <use xlink:href="#ArialUnicodeMS-38"/>
      </g>
     </g>
    </g>
    <g id="xtick_5">
     <g id="line2d_9">
      <path d="M 273.62014 307.584 
L 273.62014 41.472 
" clip-path="url(#pcfff1c763e)" style="fill: none; stroke-dasharray: 1.85,0.8; stroke-dashoffset: 0; stroke: #b0b0b0; stroke-width: 0.5"/>
     </g>
     <g id="line2d_10">
      <g>
       <use xlink:href="#m9936009ed2" x="273.62014" y="307.584" style="stroke: #000000; stroke-width: 0.8"/>
      </g>
     </g>
     <g id="text_5">
      <!-- 10 -->
      <g transform="translate(268.059202 321.741812)scale(0.1 -0.1)">
       <defs>
        <path id="ArialUnicodeMS-31" d="M 2400 0 
L 1838 0 
L 1838 3584 
Q 1416 3184 709 2906 
L 709 3450 
Q 1681 3916 2034 4603 
L 2400 4603 
L 2400 0 
z
" transform="scale(0.015625)"/>
        <path id="ArialUnicodeMS-30" d="M 1778 4603 
Q 3272 4603 3272 2259 
Q 3272 1075 2886 498 
Q 2500 -78 1778 -78 
Q 288 -78 288 2259 
Q 288 3444 673 4023 
Q 1059 4603 1778 4603 
z
M 1778 384 
Q 2231 384 2462 823 
Q 2694 1263 2694 2259 
Q 2694 2953 2592 3351 
Q 2491 3750 2286 3945 
Q 2081 4141 1772 4141 
Q 1319 4141 1091 3694 
Q 863 3247 863 2259 
Q 863 1575 966 1175 
Q 1069 775 1272 579 
Q 1475 384 1778 384 
z
" transform="scale(0.015625)"/>
       </defs>
       <use xlink:href="#ArialUnicodeMS-31"/>
       <use xlink:href="#ArialUnicodeMS-30" x="55.615234"/>
      </g>
     </g>
    </g>
    <g id="xtick_6">
     <g id="line2d_11">
      <path d="M 323.566993 307.584 
L 323.566993 41.472 
" clip-path="url(#pcfff1c763e)" style="fill: none; stroke-dasharray: 1.85,0.8; stroke-dashoffset: 0; stroke: #b0b0b0; stroke-width: 0.5"/>
     </g>
     <g id="line2d_12">
      <g>
       <use xlink:href="#m9936009ed2" x="323.566993" y="307.584" style="stroke: #000000; stroke-width: 0.8"/>
      </g>
     </g>
     <g id="text_6">
      <!-- 12 -->
      <g transform="translate(318.006056 321.741812)scale(0.1 -0.1)">
       <use xlink:href="#ArialUnicodeMS-31"/>
       <use xlink:href="#ArialUnicodeMS-32" x="55.615234"/>
      </g>
     </g>
    </g>
    <g id="xtick_7">
     <g id="line2d_13">
      <path d="M 373.513846 307.584 
L 373.513846 41.472 
" clip-path="url(#pcfff1c763e)" style="fill: none; stroke-dasharray: 1.85,0.8; stroke-dashoffset: 0; stroke: #b0b0b0; stroke-width: 0.5"/>
     </g>
     <g id="line2d_14">
      <g>
       <use xlink:href="#m9936009ed2" x="373.513846" y="307.584" style="stroke: #000000; stroke-width: 0.8"/>
      </g>
     </g>
     <g id="text_7">
      <!-- 14 -->
      <g transform="translate(367.952909 321.741812)scale(0.1 -0.1)">
       <use xlink:href="#ArialUnicodeMS-31"/>
       <use xlink:href="#ArialUnicodeMS-34" x="55.615234"/>
      </g>
     </g>
    </g>
    <g id="text_8">
     <!-- 任务到达密集程度 -->
     <g transform="translate(196.16 334.891812)scale(0.1 -0.1)">
      <defs>
       <path id="ArialUnicodeMS-4efb" d="M 2322 5081 
L 1741 3859 
L 1741 -469 
L 1228 -469 
L 1228 3059 
Q 1013 2653 575 2266 
L 172 2613 
Q 1034 3388 1844 5313 
L 2322 5081 
z
M 6075 2028 
L 4231 2028 
L 4231 225 
L 5650 225 
L 5650 -244 
L 2272 -244 
L 2272 225 
L 3694 225 
L 3694 2028 
L 1919 2028 
L 1919 2516 
L 3694 2516 
L 3694 4078 
Q 3072 4022 2491 4013 
L 2228 4500 
Q 4097 4491 5306 4928 
L 5613 4556 
Q 4978 4278 4231 4153 
L 4231 2516 
L 6075 2516 
L 6075 2028 
z
" transform="scale(0.015625)"/>
       <path id="ArialUnicodeMS-52a1" d="M 6131 2516 
L 5819 2088 
Q 4191 2431 3272 2981 
Q 2244 2309 422 2016 
L 225 2478 
Q 1959 2775 2828 3278 
Q 2081 3847 1966 4013 
Q 1447 3406 794 3144 
L 428 3584 
Q 1728 4050 2188 5306 
L 2613 5069 
Q 2597 5031 2456 4756 
L 4856 4756 
L 4856 4325 
Q 4434 3797 3700 3272 
Q 4516 2819 6131 2516 
z
M 4191 4288 
L 2297 4288 
Q 2516 4016 3256 3547 
Q 3853 3931 4191 4288 
z
M 5088 1978 
Q 5084 1322 4968 661 
Q 4853 0 4689 -208 
Q 4525 -416 4206 -416 
Q 3994 -416 3531 -347 
L 3413 213 
Q 3963 53 4178 53 
Q 4284 53 4345 156 
Q 4406 259 4490 770 
Q 4575 1281 4588 1509 
L 3206 1509 
Q 2841 -22 666 -441 
Q 441 -41 409 38 
Q 2394 316 2706 1509 
L 878 1509 
L 878 1978 
L 2784 1978 
Q 2794 2047 2794 2206 
Q 2794 2394 2803 2534 
L 3278 2472 
L 3272 1978 
L 5088 1978 
z
" transform="scale(0.015625)"/>
       <path id="ArialUnicodeMS-5230" d="M 5791 109 
Q 5791 -113 5609 -264 
Q 5428 -416 5197 -416 
L 4628 -416 
L 4397 122 
Q 4809 56 5031 56 
Q 5306 56 5306 300 
L 5306 5288 
L 5791 5288 
L 5791 109 
z
M 4050 4513 
L 2381 4513 
Q 2147 3847 1716 3156 
L 3144 3238 
Q 2884 3613 2613 3847 
L 3047 4050 
Q 3706 3506 3981 2631 
L 3541 2369 
Q 3478 2572 3359 2809 
L 722 2631 
L 544 3109 
L 1166 3144 
Q 1638 3966 1850 4513 
L 556 4513 
L 556 4978 
L 4050 4978 
L 4050 4513 
z
M 4750 984 
L 4263 984 
L 4263 4556 
L 4750 4556 
L 4750 984 
z
M 3944 213 
L 641 -319 
L 416 159 
Q 881 181 2003 378 
L 2003 1344 
L 775 1344 
L 775 1813 
L 2003 1813 
L 2003 2553 
L 2491 2553 
L 2491 1813 
L 3700 1813 
L 3700 1344 
L 2491 1344 
L 2491 459 
L 3944 666 
L 3944 213 
z
" transform="scale(0.015625)"/>
       <path id="ArialUnicodeMS-8fbe" d="M 5741 3525 
L 4078 3525 
Q 4009 1356 2522 641 
L 2169 1013 
Q 3006 1384 3301 2117 
Q 3597 2850 3597 3525 
L 1953 3525 
L 1953 3963 
L 3591 3963 
L 3591 5281 
L 4078 5281 
L 4078 3963 
L 5741 3963 
L 5741 3525 
z
M 1759 3938 
L 1344 3659 
Q 1013 4366 500 4806 
L 856 5069 
Q 1388 4638 1759 3938 
z
M 6016 306 
L 5825 -219 
L 3291 -219 
Q 2891 -219 2608 -147 
Q 2325 -75 2144 39 
Q 1963 153 1809 309 
L 1516 616 
L 550 -225 
L 197 128 
L 1269 991 
L 1269 2681 
L 313 2681 
L 313 3116 
L 1753 3116 
L 1753 997 
Q 2069 653 2403 459 
Q 2738 266 3244 253 
L 4319 219 
Q 4534 219 4722 231 
L 6016 306 
z
M 5778 928 
L 5331 634 
Q 4972 1647 4091 2578 
L 4434 2853 
Q 5281 2053 5778 928 
z
" transform="scale(0.015625)"/>
       <path id="ArialUnicodeMS-5bc6" d="M 5791 3353 
L 5306 3353 
L 5306 4225 
L 1166 4225 
L 1166 3353 
L 678 3353 
L 678 4691 
L 2950 4691 
L 2950 5294 
L 3450 5294 
L 3450 4691 
L 5791 4691 
L 5791 3353 
z
M 3688 3438 
L 3359 3097 
Q 3159 3469 2450 3853 
L 2778 4134 
Q 3294 3981 3688 3438 
z
M 5013 3681 
Q 4281 2863 2669 2028 
Q 2731 1997 3391 1997 
Q 3975 1997 4053 2019 
Q 4131 2041 4294 2725 
L 4722 2566 
Q 4494 1800 4291 1669 
Q 4088 1538 3794 1538 
L 2741 1538 
Q 2428 1538 2216 1797 
Q 1644 1553 716 1269 
L 422 1684 
Q 1513 1966 2081 2241 
L 2081 3456 
L 2566 3456 
L 2566 2472 
Q 3794 3069 4684 3981 
L 5013 3681 
z
M 1925 3341 
Q 1556 2581 909 2106 
L 544 2431 
Q 1300 2978 1522 3616 
L 1925 3341 
z
M 6041 2053 
L 5631 1741 
Q 5331 2494 4647 2925 
L 5044 3225 
Q 5609 2794 6041 2053 
z
M 5319 -391 
L 4831 -391 
L 4831 -44 
L 1594 -44 
L 1594 -409 
L 1106 -397 
L 1106 1234 
L 1594 1234 
L 1594 422 
L 2963 422 
L 2963 1491 
L 3450 1491 
L 3450 422 
L 4831 422 
L 4831 1234 
L 5319 1234 
L 5319 -391 
z
" transform="scale(0.015625)"/>
       <path id="ArialUnicodeMS-96c6" d="M 5797 2034 
L 1741 2034 
L 1741 1722 
L 1253 1722 
L 1253 3681 
Q 1066 3472 769 3244 
L 372 3531 
Q 1191 4122 1728 5319 
L 2163 5147 
Q 2069 4913 1919 4672 
L 3303 4672 
Q 3450 4994 3519 5313 
L 4000 5147 
Q 3966 4959 3841 4672 
L 5697 4672 
L 5697 4206 
L 3653 4206 
L 3653 3928 
L 5294 3928 
L 5294 3488 
L 3653 3488 
L 3653 3238 
L 5313 3238 
L 5313 2772 
L 3653 2772 
L 3653 2478 
L 5797 2478 
L 5797 2034 
z
M 3169 3928 
L 3169 4206 
L 1759 4206 
L 1759 3928 
L 3169 3928 
z
M 3169 3238 
L 3169 3488 
L 1741 3488 
L 1741 3238 
L 3169 3238 
z
M 3169 2478 
L 3169 2778 
L 1728 2778 
L 1734 2478 
L 3169 2478 
z
M 6156 319 
L 5906 -122 
Q 4156 194 3500 1100 
L 3500 -428 
L 3016 -428 
L 3016 1113 
Q 2269 203 628 -141 
L 353 300 
Q 1625 522 2431 1184 
L 647 1184 
L 647 1650 
L 3016 1650 
L 3016 1913 
L 3500 1913 
L 3500 1650 
L 5888 1650 
L 5888 1184 
L 4063 1184 
Q 4756 531 6156 319 
z
" transform="scale(0.015625)"/>
       <path id="ArialUnicodeMS-7a0b" d="M 2791 1844 
L 2394 1544 
Q 2159 2056 1856 2350 
L 1856 -447 
L 1369 -447 
L 1369 2034 
L 1363 2034 
Q 1100 1384 575 697 
L 184 1031 
Q 1006 1956 1319 3206 
L 403 3206 
L 403 3675 
L 1369 3675 
L 1369 4397 
Q 928 4284 588 4250 
L 366 4678 
Q 1678 4850 2463 5222 
L 2772 4878 
Q 2388 4669 1856 4506 
L 1856 3675 
L 2675 3675 
L 2675 3206 
L 1856 3206 
L 1856 2688 
L 2028 2841 
Q 2341 2547 2791 1844 
z
M 5575 3194 
L 2894 3194 
L 2894 5063 
L 5575 5063 
L 5575 3194 
z
M 5088 3659 
L 5088 4622 
L 3378 4622 
L 3378 3659 
L 5088 3659 
z
M 6075 -103 
L 2284 -103 
L 2284 341 
L 3988 341 
L 3988 1119 
L 2688 1119 
L 2688 1588 
L 3988 1588 
L 3988 2322 
L 2619 2322 
L 2619 2766 
L 5844 2766 
L 5844 2322 
L 4475 2322 
L 4475 1588 
L 5703 1588 
L 5703 1119 
L 4475 1119 
L 4475 341 
L 6075 341 
L 6075 -103 
z
" transform="scale(0.015625)"/>
       <path id="ArialUnicodeMS-5ea6" d="M 5913 4269 
L 1363 4269 
L 1363 2278 
Q 1363 1144 1180 528 
Q 997 -88 684 -434 
L 294 -147 
Q 669 378 773 940 
Q 878 1503 878 2350 
L 878 4738 
L 3200 4738 
L 3200 5288 
L 3706 5288 
L 3706 4738 
L 5913 4738 
L 5913 4269 
z
M 5778 3194 
L 4728 3194 
L 4728 2303 
L 2350 2303 
L 2350 3194 
L 1472 3194 
L 1472 3659 
L 2350 3659 
L 2350 4147 
L 2828 4147 
L 2828 3659 
L 4244 3659 
L 4244 4147 
L 4728 4147 
L 4728 3659 
L 5778 3659 
L 5778 3194 
z
M 4244 2747 
L 4244 3194 
L 2834 3194 
L 2834 2747 
L 4244 2747 
z
M 6081 72 
L 5819 -397 
Q 4484 -216 3531 263 
Q 2494 -234 1388 -397 
L 1088 44 
Q 2078 134 3034 550 
Q 2509 934 2113 1528 
L 1625 1528 
L 1625 1972 
L 5159 1972 
L 5159 1544 
Q 4819 1025 4044 538 
Q 4963 166 6081 72 
z
M 4544 1528 
L 2700 1528 
Q 3125 1038 3531 781 
Q 4194 1159 4544 1528 
z
" transform="scale(0.015625)"/>
      </defs>
      <use xlink:href="#ArialUnicodeMS-4efb"/>
      <use xlink:href="#ArialUnicodeMS-52a1" x="100"/>
      <use xlink:href="#ArialUnicodeMS-5230" x="200"/>
      <use xlink:href="#ArialUnicodeMS-8fbe" x="300"/>
      <use xlink:href="#ArialUnicodeMS-5bc6" x="400"/>
      <use xlink:href="#ArialUnicodeMS-96c6" x="500"/>
      <use xlink:href="#ArialUnicodeMS-7a0b" x="600"/>
      <use xlink:href="#ArialUnicodeMS-5ea6" x="700"/>
     </g>
    </g>
   </g>
   <g id="matplotlib.axis_2">
    <g id="ytick_1">
     <g id="line2d_15">
      <path d="M 57.6 303.667936 
L 414.72 303.667936 
" clip-path="url(#pcfff1c763e)" style="fill: none; stroke-dasharray: 1.85,0.8; stroke-dashoffset: 0; stroke: #b0b0b0; stroke-width: 0.5"/>
     </g>
     <g id="line2d_16">
      <defs>
       <path id="mcc36ae65b8" d="M 0 0 
L -3.5 0 
" style="stroke: #000000; stroke-width: 0.8"/>
      </defs>
      <g>
       <use xlink:href="#mcc36ae65b8" x="57.6" y="303.667936" style="stroke: #000000; stroke-width: 0.8"/>
      </g>
     </g>
     <g id="text_9">
      <!-- 0.40 -->
      <g transform="translate(31.139063 307.246842)scale(0.1 -0.1)">
       <defs>
        <path id="ArialUnicodeMS-2e" d="M 1209 0 
L 569 0 
L 569 641 
L 1209 641 
L 1209 0 
z
" transform="scale(0.015625)"/>
       </defs>
       <use xlink:href="#ArialUnicodeMS-30"/>
       <use xlink:href="#ArialUnicodeMS-2e" x="55.615234"/>
       <use xlink:href="#ArialUnicodeMS-34" x="83.398438"/>
       <use xlink:href="#ArialUnicodeMS-30" x="139.013672"/>
      </g>
     </g>
    </g>
    <g id="ytick_2">
     <g id="line2d_17">
      <path d="M 57.6 271.463463 
L 414.72 271.463463 
" clip-path="url(#pcfff1c763e)" style="fill: none; stroke-dasharray: 1.85,0.8; stroke-dashoffset: 0; stroke: #b0b0b0; stroke-width: 0.5"/>
     </g>
     <g id="line2d_18">
      <g>
       <use xlink:href="#mcc36ae65b8" x="57.6" y="271.463463" style="stroke: #000000; stroke-width: 0.8"/>
      </g>
     </g>
     <g id="text_10">
      <!-- 0.45 -->
      <g transform="translate(31.139063 275.04237)scale(0.1 -0.1)">
       <defs>
        <path id="ArialUnicodeMS-35" d="M 1013 2753 
Q 1431 3041 1881 3041 
Q 2453 3041 2878 2636 
Q 3303 2231 3303 1556 
Q 3303 875 2872 398 
Q 2441 -78 1741 -78 
Q 1169 -78 750 245 
Q 331 569 269 1203 
L 856 1247 
Q 928 813 1162 598 
Q 1397 384 1741 384 
Q 2169 384 2434 707 
Q 2700 1031 2700 1503 
Q 2700 1984 2428 2262 
Q 2156 2541 1728 2541 
Q 1188 2541 897 2100 
L 366 2163 
L 813 4519 
L 3084 4519 
L 3084 3975 
L 1259 3975 
L 1013 2753 
z
" transform="scale(0.015625)"/>
       </defs>
       <use xlink:href="#ArialUnicodeMS-30"/>
       <use xlink:href="#ArialUnicodeMS-2e" x="55.615234"/>
       <use xlink:href="#ArialUnicodeMS-34" x="83.398438"/>
       <use xlink:href="#ArialUnicodeMS-35" x="139.013672"/>
      </g>
     </g>
    </g>
    <g id="ytick_3">
     <g id="line2d_19">
      <path d="M 57.6 239.25899 
L 414.72 239.25899 
" clip-path="url(#pcfff1c763e)" style="fill: none; stroke-dasharray: 1.85,0.8; stroke-dashoffset: 0; stroke: #b0b0b0; stroke-width: 0.5"/>
     </g>
     <g id="line2d_20">
      <g>
       <use xlink:href="#mcc36ae65b8" x="57.6" y="239.25899" style="stroke: #000000; stroke-width: 0.8"/>
      </g>
     </g>
     <g id="text_11">
      <!-- 0.50 -->
      <g transform="translate(31.139063 242.837897)scale(0.1 -0.1)">
       <use xlink:href="#ArialUnicodeMS-30"/>
       <use xlink:href="#ArialUnicodeMS-2e" x="55.615234"/>
       <use xlink:href="#ArialUnicodeMS-35" x="83.398438"/>
       <use xlink:href="#ArialUnicodeMS-30" x="139.013672"/>
      </g>
     </g>
    </g>
    <g id="ytick_4">
     <g id="line2d_21">
      <path d="M 57.6 207.054518 
L 414.72 207.054518 
" clip-path="url(#pcfff1c763e)" style="fill: none; stroke-dasharray: 1.85,0.8; stroke-dashoffset: 0; stroke: #b0b0b0; stroke-width: 0.5"/>
     </g>
     <g id="line2d_22">
      <g>
       <use xlink:href="#mcc36ae65b8" x="57.6" y="207.054518" style="stroke: #000000; stroke-width: 0.8"/>
      </g>
     </g>
     <g id="text_12">
      <!-- 0.55 -->
      <g transform="translate(31.139063 210.633424)scale(0.1 -0.1)">
       <use xlink:href="#ArialUnicodeMS-30"/>
       <use xlink:href="#ArialUnicodeMS-2e" x="55.615234"/>
       <use xlink:href="#ArialUnicodeMS-35" x="83.398438"/>
       <use xlink:href="#ArialUnicodeMS-35" x="139.013672"/>
      </g>
     </g>
    </g>
    <g id="ytick_5">
     <g id="line2d_23">
      <path d="M 57.6 174.850045 
L 414.72 174.850045 
" clip-path="url(#pcfff1c763e)" style="fill: none; stroke-dasharray: 1.85,0.8; stroke-dashoffset: 0; stroke: #b0b0b0; stroke-width: 0.5"/>
     </g>
     <g id="line2d_24">
      <g>
       <use xlink:href="#mcc36ae65b8" x="57.6" y="174.850045" style="stroke: #000000; stroke-width: 0.8"/>
      </g>
     </g>
     <g id="text_13">
      <!-- 0.60 -->
      <g transform="translate(31.139063 178.428951)scale(0.1 -0.1)">
       <use xlink:href="#ArialUnicodeMS-30"/>
       <use xlink:href="#ArialUnicodeMS-2e" x="55.615234"/>
       <use xlink:href="#ArialUnicodeMS-36" x="83.398438"/>
       <use xlink:href="#ArialUnicodeMS-30" x="139.013672"/>
      </g>
     </g>
    </g>
    <g id="ytick_6">
     <g id="line2d_25">
      <path d="M 57.6 142.645572 
L 414.72 142.645572 
" clip-path="url(#pcfff1c763e)" style="fill: none; stroke-dasharray: 1.85,0.8; stroke-dashoffset: 0; stroke: #b0b0b0; stroke-width: 0.5"/>
     </g>
     <g id="line2d_26">
      <g>
       <use xlink:href="#mcc36ae65b8" x="57.6" y="142.645572" style="stroke: #000000; stroke-width: 0.8"/>
      </g>
     </g>
     <g id="text_14">
      <!-- 0.65 -->
      <g transform="translate(31.139063 146.224478)scale(0.1 -0.1)">
       <use xlink:href="#ArialUnicodeMS-30"/>
       <use xlink:href="#ArialUnicodeMS-2e" x="55.615234"/>
       <use xlink:href="#ArialUnicodeMS-36" x="83.398438"/>
       <use xlink:href="#ArialUnicodeMS-35" x="139.013672"/>
      </g>
     </g>
    </g>
    <g id="ytick_7">
     <g id="line2d_27">
      <path d="M 57.6 110.441099 
L 414.72 110.441099 
" clip-path="url(#pcfff1c763e)" style="fill: none; stroke-dasharray: 1.85,0.8; stroke-dashoffset: 0; stroke: #b0b0b0; stroke-width: 0.5"/>
     </g>
     <g id="line2d_28">
      <g>
       <use xlink:href="#mcc36ae65b8" x="57.6" y="110.441099" style="stroke: #000000; stroke-width: 0.8"/>
      </g>
     </g>
     <g id="text_15">
      <!-- 0.70 -->
      <g transform="translate(31.139063 114.020005)scale(0.1 -0.1)">
       <defs>
        <path id="ArialUnicodeMS-37" d="M 3272 4084 
Q 2597 3344 2103 2253 
Q 1609 1163 1522 0 
L 947 0 
Q 969 934 1408 2051 
Q 1847 3169 2547 3975 
L 306 3975 
L 306 4519 
L 3272 4519 
L 3272 4084 
z
" transform="scale(0.015625)"/>
       </defs>
       <use xlink:href="#ArialUnicodeMS-30"/>
       <use xlink:href="#ArialUnicodeMS-2e" x="55.615234"/>
       <use xlink:href="#ArialUnicodeMS-37" x="83.398438"/>
       <use xlink:href="#ArialUnicodeMS-30" x="139.013672"/>
      </g>
     </g>
    </g>
    <g id="ytick_8">
     <g id="line2d_29">
      <path d="M 57.6 78.236626 
L 414.72 78.236626 
" clip-path="url(#pcfff1c763e)" style="fill: none; stroke-dasharray: 1.85,0.8; stroke-dashoffset: 0; stroke: #b0b0b0; stroke-width: 0.5"/>
     </g>
     <g id="line2d_30">
      <g>
       <use xlink:href="#mcc36ae65b8" x="57.6" y="78.236626" style="stroke: #000000; stroke-width: 0.8"/>
      </g>
     </g>
     <g id="text_16">
      <!-- 0.75 -->
      <g transform="translate(31.139063 81.815532)scale(0.1 -0.1)">
       <use xlink:href="#ArialUnicodeMS-30"/>
       <use xlink:href="#ArialUnicodeMS-2e" x="55.615234"/>
       <use xlink:href="#ArialUnicodeMS-37" x="83.398438"/>
       <use xlink:href="#ArialUnicodeMS-35" x="139.013672"/>
      </g>
     </g>
    </g>
    <g id="ytick_9">
     <g id="line2d_31">
      <path d="M 57.6 46.032153 
L 414.72 46.032153 
" clip-path="url(#pcfff1c763e)" style="fill: none; stroke-dasharray: 1.85,0.8; stroke-dashoffset: 0; stroke: #b0b0b0; stroke-width: 0.5"/>
     </g>
     <g id="line2d_32">
      <g>
       <use xlink:href="#mcc36ae65b8" x="57.6" y="46.032153" style="stroke: #000000; stroke-width: 0.8"/>
      </g>
     </g>
     <g id="text_17">
      <!-- 0.80 -->
      <g transform="translate(31.139063 49.61106)scale(0.1 -0.1)">
       <use xlink:href="#ArialUnicodeMS-30"/>
       <use xlink:href="#ArialUnicodeMS-2e" x="55.615234"/>
       <use xlink:href="#ArialUnicodeMS-38" x="83.398438"/>
       <use xlink:href="#ArialUnicodeMS-30" x="139.013672"/>
      </g>
     </g>
    </g>
    <g id="text_18">
     <!-- 任务处理受益率 -->
     <g transform="translate(25.146875 209.528)rotate(-90)scale(0.1 -0.1)">
      <defs>
       <path id="ArialUnicodeMS-5904" d="M 5984 250 
L 5791 -238 
L 4728 -238 
Q 3650 -238 2995 50 
Q 2341 338 1931 909 
Q 1456 213 469 -428 
L 134 -50 
Q 1022 403 1672 1306 
Q 1313 1881 1125 2522 
L 1113 2522 
Q 947 2056 500 1575 
L 116 1888 
Q 1194 3222 1381 5234 
L 1825 5069 
L 1644 4091 
L 3016 4091 
Q 2791 2206 2188 1281 
Q 2572 744 3111 478 
Q 3650 213 4850 213 
Q 5259 213 5984 250 
z
M 2509 3653 
L 1550 3653 
Q 1406 3147 1394 3122 
Q 1556 2344 1925 1734 
Q 2353 2516 2509 3653 
z
M 4244 384 
L 3756 384 
L 3756 5178 
L 4244 5178 
L 4244 384 
z
M 5863 2209 
L 5466 1900 
Q 4988 2759 4331 3206 
L 4628 3513 
Q 5384 3028 5863 2209 
z
" transform="scale(0.015625)"/>
       <path id="ArialUnicodeMS-7406" d="M 6047 -103 
L 2163 -103 
L 2163 366 
L 3853 366 
L 3853 1094 
L 2572 1094 
L 2572 1563 
L 3853 1563 
L 3853 2163 
L 2528 2163 
L 2528 4959 
L 5656 4959 
L 5656 2163 
L 4341 2163 
L 4341 1563 
L 5613 1563 
L 5613 1094 
L 4341 1094 
L 4341 366 
L 6047 366 
L 6047 -103 
z
M 5191 4494 
L 4341 4494 
L 4341 3822 
L 5178 3822 
L 5191 4494 
z
M 3853 3822 
L 3853 4494 
L 3016 4494 
L 3016 3822 
L 3853 3822 
z
M 5172 2631 
L 5172 3353 
L 4341 3353 
L 4341 2631 
L 5172 2631 
z
M 3853 2631 
L 3853 3353 
L 3016 3353 
L 3016 2631 
L 3853 2631 
z
M 2456 1153 
L 647 409 
L 225 794 
Q 553 891 1191 1131 
L 1191 2606 
L 544 2606 
L 544 3072 
L 1191 3072 
L 1191 4319 
L 416 4319 
L 416 4788 
L 2400 4788 
L 2400 4319 
L 1678 4319 
L 1678 3072 
L 2309 3072 
L 2309 2606 
L 1678 2606 
L 1678 1319 
Q 2200 1538 2456 1631 
L 2456 1153 
z
" transform="scale(0.015625)"/>
       <path id="ArialUnicodeMS-53d7" d="M 5556 4909 
Q 3675 4353 997 4313 
L 756 4781 
Q 3653 4756 5300 5306 
L 5556 4909 
z
M 5613 2216 
L 5125 2216 
L 5125 2784 
L 1253 2784 
L 1253 2181 
L 769 2181 
L 769 3250 
L 1947 3250 
Q 1644 3794 1141 4091 
L 1613 4306 
Q 2059 4056 2419 3431 
L 2075 3250 
L 3928 3250 
Q 4506 3884 4697 4672 
L 5203 4481 
Q 4959 3891 4488 3250 
L 5613 3250 
L 5613 2216 
z
M 3756 3456 
L 3303 3284 
Q 3119 3806 2638 4250 
L 3097 4416 
Q 3578 3925 3756 3456 
z
M 5991 91 
L 5691 -378 
Q 4122 -156 3244 359 
Q 2316 -125 728 -434 
L 409 13 
Q 1972 259 2772 653 
Q 2041 1219 1772 1844 
L 1416 1844 
L 1416 2309 
L 4916 2309 
L 4916 1913 
Q 4550 1225 3719 641 
Q 4538 206 5991 91 
z
M 4300 1844 
L 2303 1844 
Q 2663 1247 3244 909 
Q 3941 1319 4300 1844 
z
" transform="scale(0.015625)"/>
       <path id="ArialUnicodeMS-76ca" d="M 5191 5063 
Q 4775 4500 4072 4000 
L 3706 4341 
Q 4428 4822 4788 5375 
L 5191 5063 
z
M 2675 4306 
L 2259 3994 
Q 1838 4713 1197 5075 
L 1631 5350 
Q 2178 5041 2675 4306 
z
M 5869 3506 
L 531 3506 
L 531 3975 
L 5869 3975 
L 5869 3506 
z
M 6144 2150 
L 5831 1753 
Q 5544 1859 5209 2034 
L 5209 353 
L 5984 353 
L 5984 -116 
L 403 -116 
L 403 353 
L 1203 353 
L 1203 2113 
Q 906 1969 609 1875 
L 288 2284 
Q 1559 2691 2322 3463 
L 2688 3116 
Q 2044 2509 1313 2150 
L 5006 2150 
Q 4272 2588 3738 3169 
L 4128 3481 
Q 4856 2681 6144 2150 
z
M 4691 366 
L 4691 1709 
L 4044 1709 
L 4044 366 
L 4691 366 
z
M 3547 366 
L 3547 1709 
L 2847 1709 
L 2847 366 
L 3547 366 
z
M 2350 353 
L 2350 1684 
L 1703 1684 
L 1703 353 
L 2350 353 
z
" transform="scale(0.015625)"/>
       <path id="ArialUnicodeMS-7387" d="M 5663 4313 
L 3469 4313 
Q 3113 3806 2828 3488 
L 3244 3309 
Q 3453 3538 3822 4078 
L 4263 3872 
Q 3531 2878 3022 2356 
L 3809 2406 
Q 3738 2594 3591 2822 
L 4019 2969 
Q 4375 2419 4459 1813 
L 3988 1678 
Q 3988 1806 3938 1966 
L 2150 1819 
L 1997 2316 
L 2431 2328 
Q 2616 2500 2931 2906 
Q 2372 3163 1978 3278 
L 2203 3731 
L 2419 3647 
Q 2634 3900 2888 4313 
L 709 4313 
L 709 4781 
L 2956 4781 
L 2956 5375 
L 3444 5375 
L 3444 4781 
L 5663 4781 
L 5663 4313 
z
M 5734 3922 
Q 5091 3316 4581 3128 
L 4294 3553 
Q 4947 3791 5447 4281 
L 5734 3922 
z
M 1984 3397 
L 1619 3059 
Q 1263 3534 653 3853 
L 947 4184 
Q 1531 3975 1984 3397 
z
M 2131 2597 
Q 1419 2031 763 1813 
L 459 2209 
Q 1238 2447 1863 2994 
L 2131 2597 
z
M 5906 2216 
L 5619 1831 
Q 5109 2341 4306 2553 
L 4550 2938 
Q 5391 2722 5906 2216 
z
M 5941 1038 
L 3456 1038 
L 3456 -441 
L 2963 -441 
L 2963 1038 
L 459 1038 
L 459 1503 
L 2963 1503 
L 2963 1831 
L 3456 1831 
L 3456 1503 
L 5941 1503 
L 5941 1038 
z
" transform="scale(0.015625)"/>
      </defs>
      <use xlink:href="#ArialUnicodeMS-4efb"/>
      <use xlink:href="#ArialUnicodeMS-52a1" x="100"/>
      <use xlink:href="#ArialUnicodeMS-5904" x="200"/>
      <use xlink:href="#ArialUnicodeMS-7406" x="300"/>
      <use xlink:href="#ArialUnicodeMS-53d7" x="400"/>
      <use xlink:href="#ArialUnicodeMS-76ca" x="500"/>
      <use xlink:href="#ArialUnicodeMS-7387" x="600"/>
     </g>
    </g>
   </g>
   <g id="line2d_33">
    <path d="M 73.832727 84.355476 
L 86.319441 98.976307 
L 98.806154 69.799054 
L 111.292867 76.17554 
L 123.77958 76.497585 
L 136.266294 81.263847 
L 148.753007 81.6503 
L 161.23972 70.765188 
L 173.726434 73.277137 
L 186.213147 69.992281 
L 198.69986 58.720716 
L 211.186573 60.202121 
L 223.673287 67.02947 
L 236.16 61.361482 
L 248.646713 69.541419 
L 261.133427 61.297073 
L 273.62014 83.969022 
L 286.106853 86.287744 
L 298.593566 69.026147 
L 311.08028 70.636371 
L 323.566993 53.568 
L 336.053706 59.300396 
L 348.54042 65.032792 
L 361.027133 69.412601 
L 373.513846 76.948447 
L 386.000559 79.267169 
L 398.487273 82.552026 
" clip-path="url(#pcfff1c763e)" style="fill: none; stroke: #ff0000; stroke-width: 2; stroke-linecap: square"/>
    <defs>
     <path id="m812f5c1c60" d="M 0 3 
C 0.795609 3 1.55874 2.683901 2.12132 2.12132 
C 2.683901 1.55874 3 0.795609 3 0 
C 3 -0.795609 2.683901 -1.55874 2.12132 -2.12132 
C 1.55874 -2.683901 0.795609 -3 0 -3 
C -0.795609 -3 -1.55874 -2.683901 -2.12132 -2.12132 
C -2.683901 -1.55874 -3 -0.795609 -3 0 
C -3 0.795609 -2.683901 1.55874 -2.12132 2.12132 
C -1.55874 2.683901 -0.795609 3 0 3 
z
" style="stroke: #ff0000"/>
    </defs>
    <g clip-path="url(#pcfff1c763e)">
     <use xlink:href="#m812f5c1c60" x="73.832727" y="84.355476" style="fill: #ff0000; stroke: #ff0000"/>
     <use xlink:href="#m812f5c1c60" x="86.319441" y="98.976307" style="fill: #ff0000; stroke: #ff0000"/>
     <use xlink:href="#m812f5c1c60" x="98.806154" y="69.799054" style="fill: #ff0000; stroke: #ff0000"/>
     <use xlink:href="#m812f5c1c60" x="111.292867" y="76.17554" style="fill: #ff0000; stroke: #ff0000"/>
     <use xlink:href="#m812f5c1c60" x="123.77958" y="76.497585" style="fill: #ff0000; stroke: #ff0000"/>
     <use xlink:href="#m812f5c1c60" x="136.266294" y="81.263847" style="fill: #ff0000; stroke: #ff0000"/>
     <use xlink:href="#m812f5c1c60" x="148.753007" y="81.6503" style="fill: #ff0000; stroke: #ff0000"/>
     <use xlink:href="#m812f5c1c60" x="161.23972" y="70.765188" style="fill: #ff0000; stroke: #ff0000"/>
     <use xlink:href="#m812f5c1c60" x="173.726434" y="73.277137" style="fill: #ff0000; stroke: #ff0000"/>
     <use xlink:href="#m812f5c1c60" x="186.213147" y="69.992281" style="fill: #ff0000; stroke: #ff0000"/>
     <use xlink:href="#m812f5c1c60" x="198.69986" y="58.720716" style="fill: #ff0000; stroke: #ff0000"/>
     <use xlink:href="#m812f5c1c60" x="211.186573" y="60.202121" style="fill: #ff0000; stroke: #ff0000"/>
     <use xlink:href="#m812f5c1c60" x="223.673287" y="67.02947" style="fill: #ff0000; stroke: #ff0000"/>
     <use xlink:href="#m812f5c1c60" x="236.16" y="61.361482" style="fill: #ff0000; stroke: #ff0000"/>
     <use xlink:href="#m812f5c1c60" x="248.646713" y="69.541419" style="fill: #ff0000; stroke: #ff0000"/>
     <use xlink:href="#m812f5c1c60" x="261.133427" y="61.297073" style="fill: #ff0000; stroke: #ff0000"/>
     <use xlink:href="#m812f5c1c60" x="273.62014" y="83.969022" style="fill: #ff0000; stroke: #ff0000"/>
     <use xlink:href="#m812f5c1c60" x="286.106853" y="86.287744" style="fill: #ff0000; stroke: #ff0000"/>
     <use xlink:href="#m812f5c1c60" x="298.593566" y="69.026147" style="fill: #ff0000; stroke: #ff0000"/>
     <use xlink:href="#m812f5c1c60" x="311.08028" y="70.636371" style="fill: #ff0000; stroke: #ff0000"/>
     <use xlink:href="#m812f5c1c60" x="323.566993" y="53.568" style="fill: #ff0000; stroke: #ff0000"/>
     <use xlink:href="#m812f5c1c60" x="336.053706" y="59.300396" style="fill: #ff0000; stroke: #ff0000"/>
     <use xlink:href="#m812f5c1c60" x="348.54042" y="65.032792" style="fill: #ff0000; stroke: #ff0000"/>
     <use xlink:href="#m812f5c1c60" x="361.027133" y="69.412601" style="fill: #ff0000; stroke: #ff0000"/>
     <use xlink:href="#m812f5c1c60" x="373.513846" y="76.948447" style="fill: #ff0000; stroke: #ff0000"/>
     <use xlink:href="#m812f5c1c60" x="386.000559" y="79.267169" style="fill: #ff0000; stroke: #ff0000"/>
     <use xlink:href="#m812f5c1c60" x="398.487273" y="82.552026" style="fill: #ff0000; stroke: #ff0000"/>
    </g>
   </g>
   <g id="line2d_34">
    <path d="M 73.832727 239.001355 
L 86.319441 239.25899 
L 98.806154 239.25899 
L 111.292867 239.516626 
L 123.77958 239.838671 
L 136.266294 240.160716 
L 148.753007 240.48276 
L 161.23972 241.513304 
L 173.726434 242.157393 
L 186.213147 243.703208 
L 198.69986 244.862569 
L 211.186573 246.02193 
L 223.673287 247.696562 
L 236.16 249.306786 
L 248.646713 250.401738 
L 261.133427 252.011962 
L 273.62014 253.879821 
L 286.106853 256.134134 
L 298.593566 258.646083 
L 311.08028 261.222441 
L 323.566993 264.31407 
L 336.053706 268.565061 
L 348.54042 273.975412 
L 361.027133 278.612856 
L 373.513846 282.992665 
L 386.000559 284.667297 
L 398.487273 287.5657 
" clip-path="url(#pcfff1c763e)" style="fill: none; stroke: #0000ff; stroke-width: 2; stroke-linecap: square"/>
    <defs>
     <path id="mf5c62095ac" d="M -3 3 
L 3 3 
L 3 -3 
L -3 -3 
z
" style="stroke: #0000ff; stroke-linejoin: miter"/>
    </defs>
    <g clip-path="url(#pcfff1c763e)">
     <use xlink:href="#mf5c62095ac" x="73.832727" y="239.001355" style="fill: #0000ff; stroke: #0000ff; stroke-linejoin: miter"/>
     <use xlink:href="#mf5c62095ac" x="86.319441" y="239.25899" style="fill: #0000ff; stroke: #0000ff; stroke-linejoin: miter"/>
     <use xlink:href="#mf5c62095ac" x="98.806154" y="239.25899" style="fill: #0000ff; stroke: #0000ff; stroke-linejoin: miter"/>
     <use xlink:href="#mf5c62095ac" x="111.292867" y="239.516626" style="fill: #0000ff; stroke: #0000ff; stroke-linejoin: miter"/>
     <use xlink:href="#mf5c62095ac" x="123.77958" y="239.838671" style="fill: #0000ff; stroke: #0000ff; stroke-linejoin: miter"/>
     <use xlink:href="#mf5c62095ac" x="136.266294" y="240.160716" style="fill: #0000ff; stroke: #0000ff; stroke-linejoin: miter"/>
     <use xlink:href="#mf5c62095ac" x="148.753007" y="240.48276" style="fill: #0000ff; stroke: #0000ff; stroke-linejoin: miter"/>
     <use xlink:href="#mf5c62095ac" x="161.23972" y="241.513304" style="fill: #0000ff; stroke: #0000ff; stroke-linejoin: miter"/>
     <use xlink:href="#mf5c62095ac" x="173.726434" y="242.157393" style="fill: #0000ff; stroke: #0000ff; stroke-linejoin: miter"/>
     <use xlink:href="#mf5c62095ac" x="186.213147" y="243.703208" style="fill: #0000ff; stroke: #0000ff; stroke-linejoin: miter"/>
     <use xlink:href="#mf5c62095ac" x="198.69986" y="244.862569" style="fill: #0000ff; stroke: #0000ff; stroke-linejoin: miter"/>
     <use xlink:href="#mf5c62095ac" x="211.186573" y="246.02193" style="fill: #0000ff; stroke: #0000ff; stroke-linejoin: miter"/>
     <use xlink:href="#mf5c62095ac" x="223.673287" y="247.696562" style="fill: #0000ff; stroke: #0000ff; stroke-linejoin: miter"/>
     <use xlink:href="#mf5c62095ac" x="236.16" y="249.306786" style="fill: #0000ff; stroke: #0000ff; stroke-linejoin: miter"/>
     <use xlink:href="#mf5c62095ac" x="248.646713" y="250.401738" style="fill: #0000ff; stroke: #0000ff; stroke-linejoin: miter"/>
     <use xlink:href="#mf5c62095ac" x="261.133427" y="252.011962" style="fill: #0000ff; stroke: #0000ff; stroke-linejoin: miter"/>
     <use xlink:href="#mf5c62095ac" x="273.62014" y="253.879821" style="fill: #0000ff; stroke: #0000ff; stroke-linejoin: miter"/>
     <use xlink:href="#mf5c62095ac" x="286.106853" y="256.134134" style="fill: #0000ff; stroke: #0000ff; stroke-linejoin: miter"/>
     <use xlink:href="#mf5c62095ac" x="298.593566" y="258.646083" style="fill: #0000ff; stroke: #0000ff; stroke-linejoin: miter"/>
     <use xlink:href="#mf5c62095ac" x="311.08028" y="261.222441" style="fill: #0000ff; stroke: #0000ff; stroke-linejoin: miter"/>
     <use xlink:href="#mf5c62095ac" x="323.566993" y="264.31407" style="fill: #0000ff; stroke: #0000ff; stroke-linejoin: miter"/>
     <use xlink:href="#mf5c62095ac" x="336.053706" y="268.565061" style="fill: #0000ff; stroke: #0000ff; stroke-linejoin: miter"/>
     <use xlink:href="#mf5c62095ac" x="348.54042" y="273.975412" style="fill: #0000ff; stroke: #0000ff; stroke-linejoin: miter"/>
     <use xlink:href="#mf5c62095ac" x="361.027133" y="278.612856" style="fill: #0000ff; stroke: #0000ff; stroke-linejoin: miter"/>
     <use xlink:href="#mf5c62095ac" x="373.513846" y="282.992665" style="fill: #0000ff; stroke: #0000ff; stroke-linejoin: miter"/>
     <use xlink:href="#mf5c62095ac" x="386.000559" y="284.667297" style="fill: #0000ff; stroke: #0000ff; stroke-linejoin: miter"/>
     <use xlink:href="#mf5c62095ac" x="398.487273" y="287.5657" style="fill: #0000ff; stroke: #0000ff; stroke-linejoin: miter"/>
    </g>
   </g>
   <g id="line2d_35">
    <path d="M 73.832727 152.242505 
L 86.319441 150.69669 
L 98.806154 164.029342 
L 111.292867 118.814262 
L 123.77958 150.181419 
L 136.266294 141.164166 
L 148.753007 102.196754 
L 161.23972 92.857457 
L 173.726434 91.633687 
L 186.213147 99.36276 
L 198.69986 82.423208 
L 211.186573 82.358799 
L 223.673287 84.999565 
L 236.16 84.999565 
L 248.646713 86.352153 
L 261.133427 87.060652 
L 273.62014 89.894645 
L 286.106853 91.054006 
L 298.593566 83.067297 
L 311.08028 85.643655 
L 323.566993 86.867425 
L 336.053706 87.76915 
L 348.54042 85.9657 
L 361.027133 91.633687 
L 373.513846 101.101802 
L 386.000559 104.837521 
L 398.487273 107.993559 
" clip-path="url(#pcfff1c763e)" style="fill: none; stroke: #008000; stroke-width: 2; stroke-linecap: square"/>
    <defs>
     <path id="m8b30928c1f" d="M 0 -3 
L -3 3 
L 3 3 
z
" style="stroke: #008000; stroke-linejoin: miter"/>
    </defs>
    <g clip-path="url(#pcfff1c763e)">
     <use xlink:href="#m8b30928c1f" x="73.832727" y="152.242505" style="fill: #008000; stroke: #008000; stroke-linejoin: miter"/>
     <use xlink:href="#m8b30928c1f" x="86.319441" y="150.69669" style="fill: #008000; stroke: #008000; stroke-linejoin: miter"/>
     <use xlink:href="#m8b30928c1f" x="98.806154" y="164.029342" style="fill: #008000; stroke: #008000; stroke-linejoin: miter"/>
     <use xlink:href="#m8b30928c1f" x="111.292867" y="118.814262" style="fill: #008000; stroke: #008000; stroke-linejoin: miter"/>
     <use xlink:href="#m8b30928c1f" x="123.77958" y="150.181419" style="fill: #008000; stroke: #008000; stroke-linejoin: miter"/>
     <use xlink:href="#m8b30928c1f" x="136.266294" y="141.164166" style="fill: #008000; stroke: #008000; stroke-linejoin: miter"/>
     <use xlink:href="#m8b30928c1f" x="148.753007" y="102.196754" style="fill: #008000; stroke: #008000; stroke-linejoin: miter"/>
     <use xlink:href="#m8b30928c1f" x="161.23972" y="92.857457" style="fill: #008000; stroke: #008000; stroke-linejoin: miter"/>
     <use xlink:href="#m8b30928c1f" x="173.726434" y="91.633687" style="fill: #008000; stroke: #008000; stroke-linejoin: miter"/>
     <use xlink:href="#m8b30928c1f" x="186.213147" y="99.36276" style="fill: #008000; stroke: #008000; stroke-linejoin: miter"/>
     <use xlink:href="#m8b30928c1f" x="198.69986" y="82.423208" style="fill: #008000; stroke: #008000; stroke-linejoin: miter"/>
     <use xlink:href="#m8b30928c1f" x="211.186573" y="82.358799" style="fill: #008000; stroke: #008000; stroke-linejoin: miter"/>
     <use xlink:href="#m8b30928c1f" x="223.673287" y="84.999565" style="fill: #008000; stroke: #008000; stroke-linejoin: miter"/>
     <use xlink:href="#m8b30928c1f" x="236.16" y="84.999565" style="fill: #008000; stroke: #008000; stroke-linejoin: miter"/>
     <use xlink:href="#m8b30928c1f" x="248.646713" y="86.352153" style="fill: #008000; stroke: #008000; stroke-linejoin: miter"/>
     <use xlink:href="#m8b30928c1f" x="261.133427" y="87.060652" style="fill: #008000; stroke: #008000; stroke-linejoin: miter"/>
     <use xlink:href="#m8b30928c1f" x="273.62014" y="89.894645" style="fill: #008000; stroke: #008000; stroke-linejoin: miter"/>
     <use xlink:href="#m8b30928c1f" x="286.106853" y="91.054006" style="fill: #008000; stroke: #008000; stroke-linejoin: miter"/>
     <use xlink:href="#m8b30928c1f" x="298.593566" y="83.067297" style="fill: #008000; stroke: #008000; stroke-linejoin: miter"/>
     <use xlink:href="#m8b30928c1f" x="311.08028" y="85.643655" style="fill: #008000; stroke: #008000; stroke-linejoin: miter"/>
     <use xlink:href="#m8b30928c1f" x="323.566993" y="86.867425" style="fill: #008000; stroke: #008000; stroke-linejoin: miter"/>
     <use xlink:href="#m8b30928c1f" x="336.053706" y="87.76915" style="fill: #008000; stroke: #008000; stroke-linejoin: miter"/>
     <use xlink:href="#m8b30928c1f" x="348.54042" y="85.9657" style="fill: #008000; stroke: #008000; stroke-linejoin: miter"/>
     <use xlink:href="#m8b30928c1f" x="361.027133" y="91.633687" style="fill: #008000; stroke: #008000; stroke-linejoin: miter"/>
     <use xlink:href="#m8b30928c1f" x="373.513846" y="101.101802" style="fill: #008000; stroke: #008000; stroke-linejoin: miter"/>
     <use xlink:href="#m8b30928c1f" x="386.000559" y="104.837521" style="fill: #008000; stroke: #008000; stroke-linejoin: miter"/>
     <use xlink:href="#m8b30928c1f" x="398.487273" y="107.993559" style="fill: #008000; stroke: #008000; stroke-linejoin: miter"/>
    </g>
   </g>
   <g id="line2d_36">
    <path d="M 73.832727 239.387808 
L 86.319441 239.581035 
L 98.806154 239.645444 
L 111.292867 240.225125 
L 123.77958 240.998032 
L 136.266294 242.028575 
L 148.753007 243.252345 
L 161.23972 244.991387 
L 173.726434 246.279565 
L 186.213147 247.954198 
L 198.69986 249.564422 
L 211.186573 251.754326 
L 223.673287 254.008639 
L 236.16 256.134134 
L 248.646713 258.066403 
L 261.133427 261.029214 
L 273.62014 264.764933 
L 286.106853 268.307425 
L 298.593566 273.52455 
L 311.08028 278.419629 
L 323.566993 280.995987 
L 336.053706 283.829981 
L 348.54042 286.470748 
L 361.027133 288.080971 
L 373.513846 290.335284 
L 386.000559 292.331962 
L 398.487273 295.488 
" clip-path="url(#pcfff1c763e)" style="fill: none; stroke: #ffa500; stroke-width: 2; stroke-linecap: square"/>
    <defs>
     <path id="mc13425b74f" d="M -0 4.242641 
L 4.242641 0 
L 0 -4.242641 
L -4.242641 -0 
z
" style="stroke: #ffa500; stroke-linejoin: miter"/>
    </defs>
    <g clip-path="url(#pcfff1c763e)">
     <use xlink:href="#mc13425b74f" x="73.832727" y="239.387808" style="fill: #ffa500; stroke: #ffa500; stroke-linejoin: miter"/>
     <use xlink:href="#mc13425b74f" x="86.319441" y="239.581035" style="fill: #ffa500; stroke: #ffa500; stroke-linejoin: miter"/>
     <use xlink:href="#mc13425b74f" x="98.806154" y="239.645444" style="fill: #ffa500; stroke: #ffa500; stroke-linejoin: miter"/>
     <use xlink:href="#mc13425b74f" x="111.292867" y="240.225125" style="fill: #ffa500; stroke: #ffa500; stroke-linejoin: miter"/>
     <use xlink:href="#mc13425b74f" x="123.77958" y="240.998032" style="fill: #ffa500; stroke: #ffa500; stroke-linejoin: miter"/>
     <use xlink:href="#mc13425b74f" x="136.266294" y="242.028575" style="fill: #ffa500; stroke: #ffa500; stroke-linejoin: miter"/>
     <use xlink:href="#mc13425b74f" x="148.753007" y="243.252345" style="fill: #ffa500; stroke: #ffa500; stroke-linejoin: miter"/>
     <use xlink:href="#mc13425b74f" x="161.23972" y="244.991387" style="fill: #ffa500; stroke: #ffa500; stroke-linejoin: miter"/>
     <use xlink:href="#mc13425b74f" x="173.726434" y="246.279565" style="fill: #ffa500; stroke: #ffa500; stroke-linejoin: miter"/>
     <use xlink:href="#mc13425b74f" x="186.213147" y="247.954198" style="fill: #ffa500; stroke: #ffa500; stroke-linejoin: miter"/>
     <use xlink:href="#mc13425b74f" x="198.69986" y="249.564422" style="fill: #ffa500; stroke: #ffa500; stroke-linejoin: miter"/>
     <use xlink:href="#mc13425b74f" x="211.186573" y="251.754326" style="fill: #ffa500; stroke: #ffa500; stroke-linejoin: miter"/>
     <use xlink:href="#mc13425b74f" x="223.673287" y="254.008639" style="fill: #ffa500; stroke: #ffa500; stroke-linejoin: miter"/>
     <use xlink:href="#mc13425b74f" x="236.16" y="256.134134" style="fill: #ffa500; stroke: #ffa500; stroke-linejoin: miter"/>
     <use xlink:href="#mc13425b74f" x="248.646713" y="258.066403" style="fill: #ffa500; stroke: #ffa500; stroke-linejoin: miter"/>
     <use xlink:href="#mc13425b74f" x="261.133427" y="261.029214" style="fill: #ffa500; stroke: #ffa500; stroke-linejoin: miter"/>
     <use xlink:href="#mc13425b74f" x="273.62014" y="264.764933" style="fill: #ffa500; stroke: #ffa500; stroke-linejoin: miter"/>
     <use xlink:href="#mc13425b74f" x="286.106853" y="268.307425" style="fill: #ffa500; stroke: #ffa500; stroke-linejoin: miter"/>
     <use xlink:href="#mc13425b74f" x="298.593566" y="273.52455" style="fill: #ffa500; stroke: #ffa500; stroke-linejoin: miter"/>
     <use xlink:href="#mc13425b74f" x="311.08028" y="278.419629" style="fill: #ffa500; stroke: #ffa500; stroke-linejoin: miter"/>
     <use xlink:href="#mc13425b74f" x="323.566993" y="280.995987" style="fill: #ffa500; stroke: #ffa500; stroke-linejoin: miter"/>
     <use xlink:href="#mc13425b74f" x="336.053706" y="283.829981" style="fill: #ffa500; stroke: #ffa500; stroke-linejoin: miter"/>
     <use xlink:href="#mc13425b74f" x="348.54042" y="286.470748" style="fill: #ffa500; stroke: #ffa500; stroke-linejoin: miter"/>
     <use xlink:href="#mc13425b74f" x="361.027133" y="288.080971" style="fill: #ffa500; stroke: #ffa500; stroke-linejoin: miter"/>
     <use xlink:href="#mc13425b74f" x="373.513846" y="290.335284" style="fill: #ffa500; stroke: #ffa500; stroke-linejoin: miter"/>
     <use xlink:href="#mc13425b74f" x="386.000559" y="292.331962" style="fill: #ffa500; stroke: #ffa500; stroke-linejoin: miter"/>
     <use xlink:href="#mc13425b74f" x="398.487273" y="295.488" style="fill: #ffa500; stroke: #ffa500; stroke-linejoin: miter"/>
    </g>
   </g>
   <g id="line2d_37">
    <path d="M 73.832727 156.429086 
L 86.319441 164.415796 
L 98.806154 151.598415 
L 111.292867 117.07522 
L 123.77958 112.759821 
L 136.266294 104.837521 
L 148.753007 100.650939 
L 161.23972 99.427169 
L 173.726434 101.23062 
L 186.213147 96.91522 
L 198.69986 83.453751 
L 211.186573 85.386019 
L 223.673287 88.220013 
L 236.16 88.928511 
L 248.646713 91.311642 
L 261.133427 94.403272 
L 273.62014 98.267808 
L 286.106853 101.295029 
L 298.593566 95.498224 
L 311.08028 101.423847 
L 323.566993 104.451067 
L 336.053706 101.617073 
L 348.54042 99.620396 
L 361.027133 101.874709 
L 373.513846 108.895284 
L 386.000559 111.342824 
L 398.487273 114.949725 
" clip-path="url(#pcfff1c763e)" style="fill: none; stroke: #800080; stroke-width: 2; stroke-linecap: square"/>
    <defs>
     <path id="m44a3195330" d="M 0 -3 
L -0.673542 -0.927051 
L -2.85317 -0.927051 
L -1.089814 0.354102 
L -1.763356 2.427051 
L -0 1.145898 
L 1.763356 2.427051 
L 1.089814 0.354102 
L 2.85317 -0.927051 
L 0.673542 -0.927051 
z
" style="stroke: #800080; stroke-linejoin: bevel"/>
    </defs>
    <g clip-path="url(#pcfff1c763e)">
     <use xlink:href="#m44a3195330" x="73.832727" y="156.429086" style="fill: #800080; stroke: #800080; stroke-linejoin: bevel"/>
     <use xlink:href="#m44a3195330" x="86.319441" y="164.415796" style="fill: #800080; stroke: #800080; stroke-linejoin: bevel"/>
     <use xlink:href="#m44a3195330" x="98.806154" y="151.598415" style="fill: #800080; stroke: #800080; stroke-linejoin: bevel"/>
     <use xlink:href="#m44a3195330" x="111.292867" y="117.07522" style="fill: #800080; stroke: #800080; stroke-linejoin: bevel"/>
     <use xlink:href="#m44a3195330" x="123.77958" y="112.759821" style="fill: #800080; stroke: #800080; stroke-linejoin: bevel"/>
     <use xlink:href="#m44a3195330" x="136.266294" y="104.837521" style="fill: #800080; stroke: #800080; stroke-linejoin: bevel"/>
     <use xlink:href="#m44a3195330" x="148.753007" y="100.650939" style="fill: #800080; stroke: #800080; stroke-linejoin: bevel"/>
     <use xlink:href="#m44a3195330" x="161.23972" y="99.427169" style="fill: #800080; stroke: #800080; stroke-linejoin: bevel"/>
     <use xlink:href="#m44a3195330" x="173.726434" y="101.23062" style="fill: #800080; stroke: #800080; stroke-linejoin: bevel"/>
     <use xlink:href="#m44a3195330" x="186.213147" y="96.91522" style="fill: #800080; stroke: #800080; stroke-linejoin: bevel"/>
     <use xlink:href="#m44a3195330" x="198.69986" y="83.453751" style="fill: #800080; stroke: #800080; stroke-linejoin: bevel"/>
     <use xlink:href="#m44a3195330" x="211.186573" y="85.386019" style="fill: #800080; stroke: #800080; stroke-linejoin: bevel"/>
     <use xlink:href="#m44a3195330" x="223.673287" y="88.220013" style="fill: #800080; stroke: #800080; stroke-linejoin: bevel"/>
     <use xlink:href="#m44a3195330" x="236.16" y="88.928511" style="fill: #800080; stroke: #800080; stroke-linejoin: bevel"/>
     <use xlink:href="#m44a3195330" x="248.646713" y="91.311642" style="fill: #800080; stroke: #800080; stroke-linejoin: bevel"/>
     <use xlink:href="#m44a3195330" x="261.133427" y="94.403272" style="fill: #800080; stroke: #800080; stroke-linejoin: bevel"/>
     <use xlink:href="#m44a3195330" x="273.62014" y="98.267808" style="fill: #800080; stroke: #800080; stroke-linejoin: bevel"/>
     <use xlink:href="#m44a3195330" x="286.106853" y="101.295029" style="fill: #800080; stroke: #800080; stroke-linejoin: bevel"/>
     <use xlink:href="#m44a3195330" x="298.593566" y="95.498224" style="fill: #800080; stroke: #800080; stroke-linejoin: bevel"/>
     <use xlink:href="#m44a3195330" x="311.08028" y="101.423847" style="fill: #800080; stroke: #800080; stroke-linejoin: bevel"/>
     <use xlink:href="#m44a3195330" x="323.566993" y="104.451067" style="fill: #800080; stroke: #800080; stroke-linejoin: bevel"/>
     <use xlink:href="#m44a3195330" x="336.053706" y="101.617073" style="fill: #800080; stroke: #800080; stroke-linejoin: bevel"/>
     <use xlink:href="#m44a3195330" x="348.54042" y="99.620396" style="fill: #800080; stroke: #800080; stroke-linejoin: bevel"/>
     <use xlink:href="#m44a3195330" x="361.027133" y="101.874709" style="fill: #800080; stroke: #800080; stroke-linejoin: bevel"/>
     <use xlink:href="#m44a3195330" x="373.513846" y="108.895284" style="fill: #800080; stroke: #800080; stroke-linejoin: bevel"/>
     <use xlink:href="#m44a3195330" x="386.000559" y="111.342824" style="fill: #800080; stroke: #800080; stroke-linejoin: bevel"/>
     <use xlink:href="#m44a3195330" x="398.487273" y="114.949725" style="fill: #800080; stroke: #800080; stroke-linejoin: bevel"/>
    </g>
   </g>
   <g id="patch_3">
    <path d="M 57.6 307.584 
L 57.6 41.472 
" style="fill: none; stroke: #000000; stroke-width: 0.8; stroke-linejoin: miter; stroke-linecap: square"/>
   </g>
   <g id="patch_4">
    <path d="M 414.72 307.584 
L 414.72 41.472 
" style="fill: none; stroke: #000000; stroke-width: 0.8; stroke-linejoin: miter; stroke-linecap: square"/>
   </g>
   <g id="patch_5">
    <path d="M 57.6 307.584 
L 414.72 307.584 
" style="fill: none; stroke: #000000; stroke-width: 0.8; stroke-linejoin: miter; stroke-linecap: square"/>
   </g>
   <g id="patch_6">
    <path d="M 57.6 41.472 
L 414.72 41.472 
" style="fill: none; stroke: #000000; stroke-width: 0.8; stroke-linejoin: miter; stroke-linecap: square"/>
   </g>
   <g id="legend_1">
    <g id="patch_7">
     <path d="M 327.385625 211.403 
L 407.72 211.403 
Q 409.72 211.403 409.72 209.403 
L 409.72 139.653 
Q 409.72 137.653 407.72 137.653 
L 327.385625 137.653 
Q 325.385625 137.653 325.385625 139.653 
L 325.385625 209.403 
Q 325.385625 211.403 327.385625 211.403 
z
" style="fill: #ffffff; opacity: 0.8; stroke: #cccccc; stroke-linejoin: miter"/>
    </g>
    <g id="line2d_38">
     <path d="M 329.385625 145.310812 
L 339.385625 145.310812 
L 349.385625 145.310812 
" style="fill: none; stroke: #ff0000; stroke-width: 2; stroke-linecap: square"/>
     <g>
      <use xlink:href="#m812f5c1c60" x="339.385625" y="145.310812" style="fill: #ff0000; stroke: #ff0000"/>
     </g>
    </g>
    <g id="text_19">
     <!-- SWD-AD -->
     <g transform="translate(357.385625 148.810812)scale(0.1 -0.1)">
      <defs>
       <path id="ArialUnicodeMS-53" d="M 3213 3238 
Q 3175 3675 2897 3895 
Q 2619 4116 2100 4116 
Q 1631 4116 1337 3941 
Q 1044 3766 1044 3431 
Q 1044 3134 1270 2989 
Q 1497 2844 2138 2700 
Q 2706 2575 3065 2444 
Q 3425 2313 3681 2036 
Q 3938 1759 3938 1294 
Q 3938 703 3467 312 
Q 2997 -78 2241 -78 
Q 1275 -78 795 353 
Q 316 784 288 1472 
L 863 1522 
Q 903 972 1287 720 
Q 1672 469 2216 469 
Q 2725 469 3039 678 
Q 3353 888 3353 1247 
Q 3353 1622 3025 1794 
Q 2697 1966 1923 2133 
Q 1150 2300 809 2603 
Q 469 2906 469 3391 
Q 469 3941 900 4300 
Q 1331 4659 2075 4659 
Q 2838 4659 3302 4301 
Q 3766 3944 3794 3284 
L 3213 3238 
z
" transform="scale(0.015625)"/>
       <path id="ArialUnicodeMS-57" d="M 5972 4581 
L 4709 0 
L 4128 0 
L 3128 3609 
Q 3050 3888 3028 4031 
L 3016 4031 
L 2888 3488 
L 1913 0 
L 1300 0 
L 78 4581 
L 697 4581 
L 1403 1575 
Q 1544 984 1581 706 
Q 1588 650 1588 641 
L 1600 641 
Q 1725 1234 1797 1491 
L 2669 4581 
L 3406 4581 
L 4056 2266 
Q 4300 1403 4409 641 
L 4422 641 
Q 4488 1013 4641 1638 
L 5363 4581 
L 5972 4581 
z
" transform="scale(0.015625)"/>
       <path id="ArialUnicodeMS-44" d="M 513 4581 
L 2094 4581 
Q 2509 4581 2809 4539 
Q 3109 4497 3382 4333 
Q 3656 4169 3861 3881 
Q 4066 3594 4183 3220 
Q 4300 2847 4300 2316 
Q 4300 1303 3819 651 
Q 3338 0 2163 0 
L 513 0 
L 513 4581 
z
M 1119 544 
L 2100 544 
Q 2400 544 2636 581 
Q 2872 619 3114 784 
Q 3356 950 3515 1328 
Q 3675 1706 3675 2328 
Q 3675 2672 3614 2970 
Q 3553 3269 3389 3514 
Q 3225 3759 3012 3873 
Q 2800 3988 2598 4013 
Q 2397 4038 2081 4038 
L 1119 4038 
L 1119 544 
z
" transform="scale(0.015625)"/>
       <path id="ArialUnicodeMS-2d" d="M 1925 1375 
L 206 1375 
L 206 1941 
L 1925 1941 
L 1925 1375 
z
" transform="scale(0.015625)"/>
       <path id="ArialUnicodeMS-41" d="M 4275 0 
L 3591 0 
L 3053 1394 
L 1141 1394 
L 634 0 
L -6 0 
L 1753 4581 
L 2406 4581 
L 4275 0 
z
M 2869 1875 
Q 2306 3363 2234 3564 
Q 2163 3766 2075 4103 
L 2059 4103 
Q 1972 3641 1825 3247 
L 1313 1875 
L 2869 1875 
z
" transform="scale(0.015625)"/>
      </defs>
      <use xlink:href="#ArialUnicodeMS-53"/>
      <use xlink:href="#ArialUnicodeMS-57" x="66.699219"/>
      <use xlink:href="#ArialUnicodeMS-44" x="161.083984"/>
      <use xlink:href="#ArialUnicodeMS-2d" x="233.300781"/>
      <use xlink:href="#ArialUnicodeMS-41" x="266.601562"/>
      <use xlink:href="#ArialUnicodeMS-44" x="333.300781"/>
     </g>
    </g>
    <g id="line2d_39">
     <path d="M 329.385625 159.460813 
L 339.385625 159.460813 
L 349.385625 159.460813 
" style="fill: none; stroke: #0000ff; stroke-width: 2; stroke-linecap: square"/>
     <g>
      <use xlink:href="#mf5c62095ac" x="339.385625" y="159.460813" style="fill: #0000ff; stroke: #0000ff; stroke-linejoin: miter"/>
     </g>
    </g>
    <g id="text_20">
     <!-- Swarm -->
     <g transform="translate(357.385625 162.960813)scale(0.1 -0.1)">
      <defs>
       <path id="ArialUnicodeMS-77" d="M 4588 3316 
L 3547 0 
L 2963 0 
L 2438 1991 
Q 2434 1991 2371 2259 
Q 2309 2528 2309 2553 
L 2297 2553 
L 1638 0 
L 1050 0 
L 31 3316 
L 616 3316 
L 1338 691 
L 1450 1138 
L 2041 3316 
L 2619 3316 
L 3066 1578 
Q 3253 859 3272 763 
L 3284 763 
L 4038 3316 
L 4588 3316 
z
" transform="scale(0.015625)"/>
       <path id="ArialUnicodeMS-61" d="M 3303 0 
L 2713 0 
Q 2631 156 2597 409 
Q 2031 -78 1375 -78 
Q 850 -78 547 184 
Q 244 447 244 878 
Q 244 1291 536 1558 
Q 828 1825 1550 1913 
L 2075 1991 
Q 2369 2038 2559 2106 
Q 2559 2359 2543 2464 
Q 2528 2569 2451 2681 
Q 2375 2794 2206 2862 
Q 2038 2931 1753 2931 
Q 1391 2931 1180 2797 
Q 969 2663 891 2297 
L 341 2369 
Q 431 2878 806 3134 
Q 1181 3391 1838 3391 
Q 2434 3391 2714 3214 
Q 2994 3038 3058 2788 
Q 3122 2538 3122 2144 
L 3122 1388 
Q 3122 697 3148 461 
Q 3175 225 3303 0 
z
M 2559 1459 
L 2559 1663 
Q 2119 1516 1481 1430 
Q 844 1344 844 891 
Q 844 663 1016 514 
Q 1188 366 1509 366 
Q 1925 366 2242 614 
Q 2559 863 2559 1459 
z
" transform="scale(0.015625)"/>
       <path id="ArialUnicodeMS-72" d="M 2216 3213 
L 2022 2694 
Q 1813 2816 1613 2816 
Q 1297 2816 1134 2533 
Q 972 2250 972 1741 
L 972 0 
L 409 0 
L 409 3316 
L 922 3316 
L 922 2816 
L 934 2816 
Q 1203 3391 1638 3391 
Q 1925 3391 2216 3213 
z
" transform="scale(0.015625)"/>
       <path id="ArialUnicodeMS-6d" d="M 4922 0 
L 4359 0 
L 4359 2094 
Q 4359 2325 4328 2489 
Q 4297 2653 4167 2779 
Q 4038 2906 3763 2906 
Q 3431 2906 3190 2675 
Q 2950 2444 2950 1925 
L 2950 0 
L 2388 0 
L 2388 2156 
Q 2388 2588 2236 2747 
Q 2084 2906 1806 2906 
Q 1444 2906 1211 2656 
Q 978 2406 978 1722 
L 978 0 
L 416 0 
L 416 3316 
L 922 3316 
L 922 2853 
L 934 2853 
Q 1272 3391 1925 3391 
Q 2291 3391 2527 3245 
Q 2763 3100 2869 2809 
Q 3238 3391 3891 3391 
Q 4406 3391 4664 3112 
Q 4922 2834 4922 2278 
L 4922 0 
z
" transform="scale(0.015625)"/>
      </defs>
      <use xlink:href="#ArialUnicodeMS-53"/>
      <use xlink:href="#ArialUnicodeMS-77" x="66.699219"/>
      <use xlink:href="#ArialUnicodeMS-61" x="138.916016"/>
      <use xlink:href="#ArialUnicodeMS-72" x="194.53125"/>
      <use xlink:href="#ArialUnicodeMS-6d" x="227.832031"/>
     </g>
    </g>
    <g id="line2d_40">
     <path d="M 329.385625 173.610813 
L 339.385625 173.610813 
L 349.385625 173.610813 
" style="fill: none; stroke: #008000; stroke-width: 2; stroke-linecap: square"/>
     <g>
      <use xlink:href="#m8b30928c1f" x="339.385625" y="173.610813" style="fill: #008000; stroke: #008000; stroke-linejoin: miter"/>
     </g>
    </g>
    <g id="text_21">
     <!-- Swarm-AD -->
     <g transform="translate(357.385625 177.110813)scale(0.1 -0.1)">
      <use xlink:href="#ArialUnicodeMS-53"/>
      <use xlink:href="#ArialUnicodeMS-77" x="66.699219"/>
      <use xlink:href="#ArialUnicodeMS-61" x="138.916016"/>
      <use xlink:href="#ArialUnicodeMS-72" x="194.53125"/>
      <use xlink:href="#ArialUnicodeMS-6d" x="227.832031"/>
      <use xlink:href="#ArialUnicodeMS-2d" x="311.132812"/>
      <use xlink:href="#ArialUnicodeMS-41" x="344.433594"/>
      <use xlink:href="#ArialUnicodeMS-44" x="411.132812"/>
     </g>
    </g>
    <g id="line2d_41">
     <path d="M 329.385625 187.760812 
L 339.385625 187.760812 
L 349.385625 187.760812 
" style="fill: none; stroke: #ffa500; stroke-width: 2; stroke-linecap: square"/>
     <g>
      <use xlink:href="#mc13425b74f" x="339.385625" y="187.760812" style="fill: #ffa500; stroke: #ffa500; stroke-linejoin: miter"/>
     </g>
    </g>
    <g id="text_22">
     <!-- K8s -->
     <g transform="translate(357.385625 191.260812)scale(0.1 -0.1)">
      <defs>
       <path id="ArialUnicodeMS-4b" d="M 4256 0 
L 3456 0 
L 1831 2316 
L 1075 1588 
L 1075 0 
L 469 0 
L 469 4581 
L 1075 4581 
L 1075 2309 
L 3353 4581 
L 4172 4581 
L 2253 2725 
L 4256 0 
z
" transform="scale(0.015625)"/>
       <path id="ArialUnicodeMS-73" d="M 2278 2388 
Q 2241 2659 2058 2795 
Q 1875 2931 1550 2931 
Q 1228 2931 1029 2822 
Q 831 2713 831 2503 
Q 831 2306 989 2222 
Q 1147 2138 1613 2016 
Q 2138 1881 2398 1778 
Q 2659 1675 2804 1489 
Q 2950 1303 2950 972 
Q 2950 528 2587 225 
Q 2225 -78 1619 -78 
Q 988 -78 633 189 
Q 278 456 197 991 
L 756 1075 
Q 800 728 1014 556 
Q 1228 384 1613 384 
Q 1981 384 2178 539 
Q 2375 694 2375 916 
Q 2375 1066 2284 1156 
Q 2194 1247 2058 1292 
Q 1922 1338 1447 1453 
Q 741 1622 514 1862 
Q 288 2103 288 2438 
Q 288 2853 619 3122 
Q 950 3391 1509 3391 
Q 2103 3391 2433 3158 
Q 2763 2925 2828 2463 
L 2278 2388 
z
" transform="scale(0.015625)"/>
      </defs>
      <use xlink:href="#ArialUnicodeMS-4b"/>
      <use xlink:href="#ArialUnicodeMS-38" x="66.699219"/>
      <use xlink:href="#ArialUnicodeMS-73" x="122.314453"/>
     </g>
    </g>
    <g id="line2d_42">
     <path d="M 329.385625 201.910812 
L 339.385625 201.910812 
L 349.385625 201.910812 
" style="fill: none; stroke: #800080; stroke-width: 2; stroke-linecap: square"/>
     <g>
      <use xlink:href="#m44a3195330" x="339.385625" y="201.910812" style="fill: #800080; stroke: #800080; stroke-linejoin: bevel"/>
     </g>
    </g>
    <g id="text_23">
     <!-- K8s-AD -->
     <g transform="translate(357.385625 205.410812)scale(0.1 -0.1)">
      <use xlink:href="#ArialUnicodeMS-4b"/>
      <use xlink:href="#ArialUnicodeMS-38" x="66.699219"/>
      <use xlink:href="#ArialUnicodeMS-73" x="122.314453"/>
      <use xlink:href="#ArialUnicodeMS-2d" x="172.314453"/>
      <use xlink:href="#ArialUnicodeMS-41" x="205.615234"/>
      <use xlink:href="#ArialUnicodeMS-44" x="272.314453"/>
     </g>
    </g>
   </g>
  </g>
 </g>
 <defs>
  <clipPath id="pcfff1c763e">
   <rect x="57.6" y="41.472" width="357.12" height="266.112"/>
  </clipPath>
 </defs>
</svg>
