<?xml version="1.0" encoding="utf-8" standalone="no"?>
<!DOCTYPE svg PUBLIC "-//W3C//DTD SVG 1.1//EN"
  "http://www.w3.org/Graphics/SVG/1.1/DTD/svg11.dtd">
<svg xmlns:xlink="http://www.w3.org/1999/xlink" width="460.8pt" height="345.6pt" viewBox="0 0 460.8 345.6" xmlns="http://www.w3.org/2000/svg" version="1.1">
 <metadata>
  <rdf:RDF xmlns:dc="http://purl.org/dc/elements/1.1/" xmlns:cc="http://creativecommons.org/ns#" xmlns:rdf="http://www.w3.org/1999/02/22-rdf-syntax-ns#">
   <cc:Work>
    <dc:type rdf:resource="http://purl.org/dc/dcmitype/StillImage"/>
    <dc:date>2023-02-23T21:53:24.313976</dc:date>
    <dc:format>image/svg+xml</dc:format>
    <dc:creator>
     <cc:Agent>
      <dc:title>Matplotlib v3.5.3, https://matplotlib.org/</dc:title>
     </cc:Agent>
    </dc:creator>
   </cc:Work>
  </rdf:RDF>
 </metadata>
 <defs>
  <style type="text/css">*{stroke-linejoin: round; stroke-linecap: butt}</style>
 </defs>
 <g id="figure_1">
  <g id="patch_1">
   <path d="M 0 345.6 
L 460.8 345.6 
L 460.8 0 
L 0 0 
z
" style="fill: #ffffff"/>
  </g>
  <g id="axes_1">
   <g id="patch_2">
    <path d="M 57.6 307.584 
L 414.72 307.584 
L 414.72 41.472 
L 57.6 41.472 
z
" style="fill: #ffffff"/>
   </g>
   <g id="matplotlib.axis_1">
    <g id="xtick_1">
     <g id="line2d_1">
      <path d="M 82.376268 307.584 
L 82.376268 41.472 
" clip-path="url(#p15019f2adc)" style="fill: none; stroke-dasharray: 1.85,0.8; stroke-dashoffset: 0; stroke: #b0b0b0; stroke-width: 0.5"/>
     </g>
     <g id="line2d_2">
      <defs>
       <path id="m897f847f70" d="M 0 0 
L 0 3.5 
" style="stroke: #000000; stroke-width: 0.8"/>
      </defs>
      <g>
       <use xlink:href="#m897f847f70" x="82.376268" y="307.584" style="stroke: #000000; stroke-width: 0.8"/>
      </g>
     </g>
     <g id="text_1">
      <!-- 5 -->
      <g transform="translate(79.595799 321.741812)scale(0.1 -0.1)">
       <defs>
        <path id="ArialUnicodeMS-35" d="M 1013 2753 
Q 1431 3041 1881 3041 
Q 2453 3041 2878 2636 
Q 3303 2231 3303 1556 
Q 3303 875 2872 398 
Q 2441 -78 1741 -78 
Q 1169 -78 750 245 
Q 331 569 269 1203 
L 856 1247 
Q 928 813 1162 598 
Q 1397 384 1741 384 
Q 2169 384 2434 707 
Q 2700 1031 2700 1503 
Q 2700 1984 2428 2262 
Q 2156 2541 1728 2541 
Q 1188 2541 897 2100 
L 366 2163 
L 813 4519 
L 3084 4519 
L 3084 3975 
L 1259 3975 
L 1013 2753 
z
" transform="scale(0.015625)"/>
       </defs>
       <use xlink:href="#ArialUnicodeMS-35"/>
      </g>
     </g>
    </g>
    <g id="xtick_2">
     <g id="line2d_3">
      <path d="M 125.093971 307.584 
L 125.093971 41.472 
" clip-path="url(#p15019f2adc)" style="fill: none; stroke-dasharray: 1.85,0.8; stroke-dashoffset: 0; stroke: #b0b0b0; stroke-width: 0.5"/>
     </g>
     <g id="line2d_4">
      <g>
       <use xlink:href="#m897f847f70" x="125.093971" y="307.584" style="stroke: #000000; stroke-width: 0.8"/>
      </g>
     </g>
     <g id="text_2">
      <!-- 10 -->
      <g transform="translate(119.533034 321.741812)scale(0.1 -0.1)">
       <defs>
        <path id="ArialUnicodeMS-31" d="M 2400 0 
L 1838 0 
L 1838 3584 
Q 1416 3184 709 2906 
L 709 3450 
Q 1681 3916 2034 4603 
L 2400 4603 
L 2400 0 
z
" transform="scale(0.015625)"/>
        <path id="ArialUnicodeMS-30" d="M 1778 4603 
Q 3272 4603 3272 2259 
Q 3272 1075 2886 498 
Q 2500 -78 1778 -78 
Q 288 -78 288 2259 
Q 288 3444 673 4023 
Q 1059 4603 1778 4603 
z
M 1778 384 
Q 2231 384 2462 823 
Q 2694 1263 2694 2259 
Q 2694 2953 2592 3351 
Q 2491 3750 2286 3945 
Q 2081 4141 1772 4141 
Q 1319 4141 1091 3694 
Q 863 3247 863 2259 
Q 863 1575 966 1175 
Q 1069 775 1272 579 
Q 1475 384 1778 384 
z
" transform="scale(0.015625)"/>
       </defs>
       <use xlink:href="#ArialUnicodeMS-31"/>
       <use xlink:href="#ArialUnicodeMS-30" x="55.615234"/>
      </g>
     </g>
    </g>
    <g id="xtick_3">
     <g id="line2d_5">
      <path d="M 167.811675 307.584 
L 167.811675 41.472 
" clip-path="url(#p15019f2adc)" style="fill: none; stroke-dasharray: 1.85,0.8; stroke-dashoffset: 0; stroke: #b0b0b0; stroke-width: 0.5"/>
     </g>
     <g id="line2d_6">
      <g>
       <use xlink:href="#m897f847f70" x="167.811675" y="307.584" style="stroke: #000000; stroke-width: 0.8"/>
      </g>
     </g>
     <g id="text_3">
      <!-- 15 -->
      <g transform="translate(162.250737 321.741812)scale(0.1 -0.1)">
       <use xlink:href="#ArialUnicodeMS-31"/>
       <use xlink:href="#ArialUnicodeMS-35" x="55.615234"/>
      </g>
     </g>
    </g>
    <g id="xtick_4">
     <g id="line2d_7">
      <path d="M 210.529378 307.584 
L 210.529378 41.472 
" clip-path="url(#p15019f2adc)" style="fill: none; stroke-dasharray: 1.85,0.8; stroke-dashoffset: 0; stroke: #b0b0b0; stroke-width: 0.5"/>
     </g>
     <g id="line2d_8">
      <g>
       <use xlink:href="#m897f847f70" x="210.529378" y="307.584" style="stroke: #000000; stroke-width: 0.8"/>
      </g>
     </g>
     <g id="text_4">
      <!-- 20 -->
      <g transform="translate(204.96844 321.741812)scale(0.1 -0.1)">
       <defs>
        <path id="ArialUnicodeMS-32" d="M 3231 0 
L 197 0 
Q 197 388 467 784 
Q 738 1181 1478 1778 
Q 1931 2141 2287 2539 
Q 2644 2938 2644 3341 
Q 2644 3688 2398 3914 
Q 2153 4141 1778 4141 
Q 1400 4141 1144 3908 
Q 888 3675 884 3213 
L 306 3278 
Q 359 3922 764 4262 
Q 1169 4603 1791 4603 
Q 2466 4603 2842 4229 
Q 3219 3856 3219 3328 
Q 3219 2888 2901 2436 
Q 2584 1984 1638 1228 
Q 1141 831 978 544 
L 3231 544 
L 3231 0 
z
" transform="scale(0.015625)"/>
       </defs>
       <use xlink:href="#ArialUnicodeMS-32"/>
       <use xlink:href="#ArialUnicodeMS-30" x="55.615234"/>
      </g>
     </g>
    </g>
    <g id="xtick_5">
     <g id="line2d_9">
      <path d="M 253.247081 307.584 
L 253.247081 41.472 
" clip-path="url(#p15019f2adc)" style="fill: none; stroke-dasharray: 1.85,0.8; stroke-dashoffset: 0; stroke: #b0b0b0; stroke-width: 0.5"/>
     </g>
     <g id="line2d_10">
      <g>
       <use xlink:href="#m897f847f70" x="253.247081" y="307.584" style="stroke: #000000; stroke-width: 0.8"/>
      </g>
     </g>
     <g id="text_5">
      <!-- 25 -->
      <g transform="translate(247.686144 321.741812)scale(0.1 -0.1)">
       <use xlink:href="#ArialUnicodeMS-32"/>
       <use xlink:href="#ArialUnicodeMS-35" x="55.615234"/>
      </g>
     </g>
    </g>
    <g id="xtick_6">
     <g id="line2d_11">
      <path d="M 295.964785 307.584 
L 295.964785 41.472 
" clip-path="url(#p15019f2adc)" style="fill: none; stroke-dasharray: 1.85,0.8; stroke-dashoffset: 0; stroke: #b0b0b0; stroke-width: 0.5"/>
     </g>
     <g id="line2d_12">
      <g>
       <use xlink:href="#m897f847f70" x="295.964785" y="307.584" style="stroke: #000000; stroke-width: 0.8"/>
      </g>
     </g>
     <g id="text_6">
      <!-- 30 -->
      <g transform="translate(290.403847 321.741812)scale(0.1 -0.1)">
       <defs>
        <path id="ArialUnicodeMS-33" d="M 2425 2478 
Q 2850 2397 3067 2067 
Q 3284 1738 3284 1350 
Q 3284 725 2829 323 
Q 2375 -78 1741 -78 
Q 1134 -78 740 275 
Q 347 628 281 1209 
L 844 1288 
Q 928 834 1151 609 
Q 1375 384 1741 384 
Q 2134 384 2407 661 
Q 2681 938 2681 1338 
Q 2681 1722 2432 1975 
Q 2184 2228 1784 2228 
Q 1622 2228 1388 2169 
L 1453 2663 
Q 1678 2663 1809 2684 
Q 1941 2706 2103 2790 
Q 2266 2875 2372 3033 
Q 2478 3191 2478 3425 
Q 2478 3766 2251 3953 
Q 2025 4141 1728 4141 
Q 1388 4141 1173 3925 
Q 959 3709 903 3309 
L 341 3413 
Q 450 4009 823 4306 
Q 1197 4603 1716 4603 
Q 2288 4603 2670 4258 
Q 3053 3913 3053 3413 
Q 3053 2772 2425 2491 
L 2425 2478 
z
" transform="scale(0.015625)"/>
       </defs>
       <use xlink:href="#ArialUnicodeMS-33"/>
       <use xlink:href="#ArialUnicodeMS-30" x="55.615234"/>
      </g>
     </g>
    </g>
    <g id="xtick_7">
     <g id="line2d_13">
      <path d="M 338.682488 307.584 
L 338.682488 41.472 
" clip-path="url(#p15019f2adc)" style="fill: none; stroke-dasharray: 1.85,0.8; stroke-dashoffset: 0; stroke: #b0b0b0; stroke-width: 0.5"/>
     </g>
     <g id="line2d_14">
      <g>
       <use xlink:href="#m897f847f70" x="338.682488" y="307.584" style="stroke: #000000; stroke-width: 0.8"/>
      </g>
     </g>
     <g id="text_7">
      <!-- 35 -->
      <g transform="translate(333.121551 321.741812)scale(0.1 -0.1)">
       <use xlink:href="#ArialUnicodeMS-33"/>
       <use xlink:href="#ArialUnicodeMS-35" x="55.615234"/>
      </g>
     </g>
    </g>
    <g id="xtick_8">
     <g id="line2d_15">
      <path d="M 381.400191 307.584 
L 381.400191 41.472 
" clip-path="url(#p15019f2adc)" style="fill: none; stroke-dasharray: 1.85,0.8; stroke-dashoffset: 0; stroke: #b0b0b0; stroke-width: 0.5"/>
     </g>
     <g id="line2d_16">
      <g>
       <use xlink:href="#m897f847f70" x="381.400191" y="307.584" style="stroke: #000000; stroke-width: 0.8"/>
      </g>
     </g>
     <g id="text_8">
      <!-- 40 -->
      <g transform="translate(375.839254 321.741812)scale(0.1 -0.1)">
       <defs>
        <path id="ArialUnicodeMS-34" d="M 3263 1094 
L 2644 1094 
L 2644 0 
L 2081 0 
L 2081 1094 
L 97 1094 
L 97 1613 
L 2181 4581 
L 2644 4581 
L 2644 1613 
L 3263 1613 
L 3263 1094 
z
M 2081 1613 
L 2081 3681 
L 2069 3681 
L 647 1613 
L 2081 1613 
z
" transform="scale(0.015625)"/>
       </defs>
       <use xlink:href="#ArialUnicodeMS-34"/>
       <use xlink:href="#ArialUnicodeMS-30" x="55.615234"/>
      </g>
     </g>
    </g>
    <g id="text_9">
     <!-- 任务类型均衡程度 -->
     <g transform="translate(196.16 334.891812)scale(0.1 -0.1)">
      <defs>
       <path id="ArialUnicodeMS-4efb" d="M 2322 5081 
L 1741 3859 
L 1741 -469 
L 1228 -469 
L 1228 3059 
Q 1013 2653 575 2266 
L 172 2613 
Q 1034 3388 1844 5313 
L 2322 5081 
z
M 6075 2028 
L 4231 2028 
L 4231 225 
L 5650 225 
L 5650 -244 
L 2272 -244 
L 2272 225 
L 3694 225 
L 3694 2028 
L 1919 2028 
L 1919 2516 
L 3694 2516 
L 3694 4078 
Q 3072 4022 2491 4013 
L 2228 4500 
Q 4097 4491 5306 4928 
L 5613 4556 
Q 4978 4278 4231 4153 
L 4231 2516 
L 6075 2516 
L 6075 2028 
z
" transform="scale(0.015625)"/>
       <path id="ArialUnicodeMS-52a1" d="M 6131 2516 
L 5819 2088 
Q 4191 2431 3272 2981 
Q 2244 2309 422 2016 
L 225 2478 
Q 1959 2775 2828 3278 
Q 2081 3847 1966 4013 
Q 1447 3406 794 3144 
L 428 3584 
Q 1728 4050 2188 5306 
L 2613 5069 
Q 2597 5031 2456 4756 
L 4856 4756 
L 4856 4325 
Q 4434 3797 3700 3272 
Q 4516 2819 6131 2516 
z
M 4191 4288 
L 2297 4288 
Q 2516 4016 3256 3547 
Q 3853 3931 4191 4288 
z
M 5088 1978 
Q 5084 1322 4968 661 
Q 4853 0 4689 -208 
Q 4525 -416 4206 -416 
Q 3994 -416 3531 -347 
L 3413 213 
Q 3963 53 4178 53 
Q 4284 53 4345 156 
Q 4406 259 4490 770 
Q 4575 1281 4588 1509 
L 3206 1509 
Q 2841 -22 666 -441 
Q 441 -41 409 38 
Q 2394 316 2706 1509 
L 878 1509 
L 878 1978 
L 2784 1978 
Q 2794 2047 2794 2206 
Q 2794 2394 2803 2534 
L 3278 2472 
L 3272 1978 
L 5088 1978 
z
" transform="scale(0.015625)"/>
       <path id="ArialUnicodeMS-7c7b" d="M 5663 3634 
L 3347 3634 
L 3347 2431 
L 2859 2431 
L 2859 3547 
L 2841 3547 
Q 2131 2678 581 2328 
L 288 2747 
Q 1594 3016 2272 3634 
L 544 3634 
L 544 4103 
L 2859 4103 
L 2859 5338 
L 3347 5338 
L 3347 4103 
L 5663 4103 
L 5663 3634 
z
M 5063 5013 
Q 4613 4425 4044 4197 
L 3681 4538 
Q 4403 4869 4672 5281 
L 5063 5013 
z
M 2509 4500 
L 2100 4166 
Q 1709 4666 1203 4941 
L 1569 5228 
Q 2069 5009 2509 4500 
z
M 5478 2766 
L 5228 2388 
Q 4450 2906 3456 3188 
L 3706 3541 
Q 4634 3341 5478 2766 
z
M 6069 56 
L 5778 -353 
Q 4766 -91 4192 284 
Q 3619 659 3278 1472 
L 3188 1472 
Q 2728 50 525 -397 
L 250 38 
Q 1353 219 1934 623 
Q 2516 1028 2681 1472 
L 403 1472 
L 403 1941 
L 2822 1941 
L 2881 2356 
L 3322 2328 
Q 3322 2175 3272 1941 
L 5850 1941 
L 5850 1472 
L 3744 1472 
Q 3894 1147 4225 847 
Q 4556 547 4840 437 
Q 5125 328 6069 56 
z
" transform="scale(0.015625)"/>
       <path id="ArialUnicodeMS-578b" d="M 5606 2303 
Q 5606 1791 5172 1791 
L 4409 1791 
L 4206 2278 
Q 4641 2253 4716 2259 
L 5019 2278 
Q 5119 2288 5119 2456 
L 5119 5294 
L 5606 5294 
L 5606 2303 
z
M 4019 3188 
L 3284 3188 
L 3284 1906 
L 2797 1906 
L 2797 3188 
L 1925 3188 
Q 1897 2078 744 1550 
L 378 1894 
Q 922 2128 1201 2484 
Q 1481 2841 1453 3188 
L 609 3188 
L 609 3653 
L 1447 3653 
L 1447 4525 
L 756 4525 
L 756 4991 
L 3828 4991 
L 3828 4525 
L 3284 4525 
L 3284 3653 
L 4019 3653 
L 4019 3188 
z
M 2797 3653 
L 2797 4525 
L 1931 4525 
L 1931 3653 
L 2797 3653 
z
M 4603 2606 
L 4116 2606 
L 4116 4891 
L 4603 4891 
L 4603 2606 
z
M 6100 -159 
L 378 -159 
L 378 313 
L 2969 313 
L 2969 878 
L 984 878 
L 984 1344 
L 2969 1344 
L 2969 1778 
L 3456 1778 
L 3456 1344 
L 5472 1344 
L 5472 878 
L 3456 878 
L 3456 313 
L 6100 313 
L 6100 -159 
z
" transform="scale(0.015625)"/>
       <path id="ArialUnicodeMS-5747" d="M 5797 4459 
Q 5772 1716 5730 978 
Q 5688 241 5458 -81 
Q 5228 -403 4744 -403 
Q 4606 -403 4006 -306 
L 3847 250 
Q 4413 128 4788 128 
Q 5022 128 5133 340 
Q 5244 553 5283 1968 
Q 5322 3384 5306 3994 
L 3347 3994 
Q 3056 3181 2559 2650 
L 2156 2944 
Q 2253 3025 2344 3128 
L 1728 3128 
L 1728 1441 
L 2541 1766 
L 2541 1259 
L 641 538 
L 319 978 
L 1241 1288 
L 1241 3128 
L 488 3128 
L 488 3597 
L 1241 3597 
L 1241 5100 
L 1728 5100 
L 1728 3597 
L 2413 3597 
L 2413 3231 
Q 3006 4097 3194 5319 
L 3675 5166 
Q 3572 4644 3494 4459 
L 5797 4459 
z
M 4813 2566 
L 2888 2566 
L 2888 3041 
L 4813 3041 
L 4813 2566 
z
M 4959 1900 
L 4959 1409 
Q 4266 1156 2706 709 
L 2431 1153 
Q 4391 1697 4959 1900 
z
" transform="scale(0.015625)"/>
       <path id="ArialUnicodeMS-8861" d="M 4575 794 
L 3291 794 
L 3263 634 
Q 3875 538 4306 231 
L 4025 -153 
Q 3534 178 3053 275 
Q 2753 -238 1825 -409 
L 1575 31 
Q 2634 169 2791 794 
L 1728 794 
L 1728 1269 
L 2841 1253 
L 2841 1606 
L 1966 1606 
L 1966 3475 
L 1850 3578 
L 1484 2969 
L 1484 -441 
L 997 -441 
L 997 2400 
Q 753 2178 603 2088 
L 213 2406 
Q 1041 2931 1497 3891 
L 1722 3750 
Q 2313 4378 2572 5344 
L 2994 5178 
L 2888 4850 
L 3950 4850 
Q 3841 4288 3694 3928 
L 4244 3928 
L 4244 1606 
L 3328 1606 
L 3328 1259 
L 4575 1259 
L 4575 794 
z
M 3397 4384 
L 2713 4384 
Q 2528 4019 2456 3928 
L 3200 3928 
Q 3331 4166 3397 4384 
z
M 3756 3016 
L 3756 3463 
L 3347 3463 
L 3347 3016 
L 3756 3016 
z
M 2859 3016 
L 2859 3463 
L 2450 3463 
L 2450 3016 
L 2859 3016 
z
M 3756 2075 
L 3756 2572 
L 3347 2572 
L 3347 2075 
L 3756 2075 
z
M 2859 2075 
L 2859 2572 
L 2450 2572 
L 2450 2075 
L 2859 2075 
z
M 1875 5094 
Q 1472 4219 788 3756 
L 372 4063 
Q 1075 4503 1484 5306 
L 1875 5094 
z
M 5888 4488 
L 4441 4488 
L 4441 4953 
L 5888 4953 
L 5888 4488 
z
M 6047 2969 
L 5447 2969 
L 5447 147 
Q 5447 -141 5290 -266 
Q 5134 -391 5013 -391 
L 4453 -391 
L 4281 103 
Q 4466 63 4647 63 
Q 4959 63 4959 231 
L 4959 2969 
L 4319 2969 
L 4319 3438 
L 6047 3438 
L 6047 2969 
z
" transform="scale(0.015625)"/>
       <path id="ArialUnicodeMS-7a0b" d="M 2791 1844 
L 2394 1544 
Q 2159 2056 1856 2350 
L 1856 -447 
L 1369 -447 
L 1369 2034 
L 1363 2034 
Q 1100 1384 575 697 
L 184 1031 
Q 1006 1956 1319 3206 
L 403 3206 
L 403 3675 
L 1369 3675 
L 1369 4397 
Q 928 4284 588 4250 
L 366 4678 
Q 1678 4850 2463 5222 
L 2772 4878 
Q 2388 4669 1856 4506 
L 1856 3675 
L 2675 3675 
L 2675 3206 
L 1856 3206 
L 1856 2688 
L 2028 2841 
Q 2341 2547 2791 1844 
z
M 5575 3194 
L 2894 3194 
L 2894 5063 
L 5575 5063 
L 5575 3194 
z
M 5088 3659 
L 5088 4622 
L 3378 4622 
L 3378 3659 
L 5088 3659 
z
M 6075 -103 
L 2284 -103 
L 2284 341 
L 3988 341 
L 3988 1119 
L 2688 1119 
L 2688 1588 
L 3988 1588 
L 3988 2322 
L 2619 2322 
L 2619 2766 
L 5844 2766 
L 5844 2322 
L 4475 2322 
L 4475 1588 
L 5703 1588 
L 5703 1119 
L 4475 1119 
L 4475 341 
L 6075 341 
L 6075 -103 
z
" transform="scale(0.015625)"/>
       <path id="ArialUnicodeMS-5ea6" d="M 5913 4269 
L 1363 4269 
L 1363 2278 
Q 1363 1144 1180 528 
Q 997 -88 684 -434 
L 294 -147 
Q 669 378 773 940 
Q 878 1503 878 2350 
L 878 4738 
L 3200 4738 
L 3200 5288 
L 3706 5288 
L 3706 4738 
L 5913 4738 
L 5913 4269 
z
M 5778 3194 
L 4728 3194 
L 4728 2303 
L 2350 2303 
L 2350 3194 
L 1472 3194 
L 1472 3659 
L 2350 3659 
L 2350 4147 
L 2828 4147 
L 2828 3659 
L 4244 3659 
L 4244 4147 
L 4728 4147 
L 4728 3659 
L 5778 3659 
L 5778 3194 
z
M 4244 2747 
L 4244 3194 
L 2834 3194 
L 2834 2747 
L 4244 2747 
z
M 6081 72 
L 5819 -397 
Q 4484 -216 3531 263 
Q 2494 -234 1388 -397 
L 1088 44 
Q 2078 134 3034 550 
Q 2509 934 2113 1528 
L 1625 1528 
L 1625 1972 
L 5159 1972 
L 5159 1544 
Q 4819 1025 4044 538 
Q 4963 166 6081 72 
z
M 4544 1528 
L 2700 1528 
Q 3125 1038 3531 781 
Q 4194 1159 4544 1528 
z
" transform="scale(0.015625)"/>
      </defs>
      <use xlink:href="#ArialUnicodeMS-4efb"/>
      <use xlink:href="#ArialUnicodeMS-52a1" x="100"/>
      <use xlink:href="#ArialUnicodeMS-7c7b" x="200"/>
      <use xlink:href="#ArialUnicodeMS-578b" x="300"/>
      <use xlink:href="#ArialUnicodeMS-5747" x="400"/>
      <use xlink:href="#ArialUnicodeMS-8861" x="500"/>
      <use xlink:href="#ArialUnicodeMS-7a0b" x="600"/>
      <use xlink:href="#ArialUnicodeMS-5ea6" x="700"/>
     </g>
    </g>
   </g>
   <g id="matplotlib.axis_2">
    <g id="ytick_1">
     <g id="line2d_17">
      <path d="M 57.6 278.891464 
L 414.72 278.891464 
" clip-path="url(#p15019f2adc)" style="fill: none; stroke-dasharray: 1.85,0.8; stroke-dashoffset: 0; stroke: #b0b0b0; stroke-width: 0.5"/>
     </g>
     <g id="line2d_18">
      <defs>
       <path id="m3c283743d6" d="M 0 0 
L -3.5 0 
" style="stroke: #000000; stroke-width: 0.8"/>
      </defs>
      <g>
       <use xlink:href="#m3c283743d6" x="57.6" y="278.891464" style="stroke: #000000; stroke-width: 0.8"/>
      </g>
     </g>
     <g id="text_10">
      <!-- 2000 -->
      <g transform="translate(28.35625 282.47037)scale(0.1 -0.1)">
       <use xlink:href="#ArialUnicodeMS-32"/>
       <use xlink:href="#ArialUnicodeMS-30" x="55.615234"/>
       <use xlink:href="#ArialUnicodeMS-30" x="111.230469"/>
       <use xlink:href="#ArialUnicodeMS-30" x="166.845703"/>
      </g>
     </g>
    </g>
    <g id="ytick_2">
     <g id="line2d_19">
      <path d="M 57.6 242.933201 
L 414.72 242.933201 
" clip-path="url(#p15019f2adc)" style="fill: none; stroke-dasharray: 1.85,0.8; stroke-dashoffset: 0; stroke: #b0b0b0; stroke-width: 0.5"/>
     </g>
     <g id="line2d_20">
      <g>
       <use xlink:href="#m3c283743d6" x="57.6" y="242.933201" style="stroke: #000000; stroke-width: 0.8"/>
      </g>
     </g>
     <g id="text_11">
      <!-- 2200 -->
      <g transform="translate(28.35625 246.512107)scale(0.1 -0.1)">
       <use xlink:href="#ArialUnicodeMS-32"/>
       <use xlink:href="#ArialUnicodeMS-32" x="55.615234"/>
       <use xlink:href="#ArialUnicodeMS-30" x="111.230469"/>
       <use xlink:href="#ArialUnicodeMS-30" x="166.845703"/>
      </g>
     </g>
    </g>
    <g id="ytick_3">
     <g id="line2d_21">
      <path d="M 57.6 206.974938 
L 414.72 206.974938 
" clip-path="url(#p15019f2adc)" style="fill: none; stroke-dasharray: 1.85,0.8; stroke-dashoffset: 0; stroke: #b0b0b0; stroke-width: 0.5"/>
     </g>
     <g id="line2d_22">
      <g>
       <use xlink:href="#m3c283743d6" x="57.6" y="206.974938" style="stroke: #000000; stroke-width: 0.8"/>
      </g>
     </g>
     <g id="text_12">
      <!-- 2400 -->
      <g transform="translate(28.35625 210.553845)scale(0.1 -0.1)">
       <use xlink:href="#ArialUnicodeMS-32"/>
       <use xlink:href="#ArialUnicodeMS-34" x="55.615234"/>
       <use xlink:href="#ArialUnicodeMS-30" x="111.230469"/>
       <use xlink:href="#ArialUnicodeMS-30" x="166.845703"/>
      </g>
     </g>
    </g>
    <g id="ytick_4">
     <g id="line2d_23">
      <path d="M 57.6 171.016676 
L 414.72 171.016676 
" clip-path="url(#p15019f2adc)" style="fill: none; stroke-dasharray: 1.85,0.8; stroke-dashoffset: 0; stroke: #b0b0b0; stroke-width: 0.5"/>
     </g>
     <g id="line2d_24">
      <g>
       <use xlink:href="#m3c283743d6" x="57.6" y="171.016676" style="stroke: #000000; stroke-width: 0.8"/>
      </g>
     </g>
     <g id="text_13">
      <!-- 2600 -->
      <g transform="translate(28.35625 174.595582)scale(0.1 -0.1)">
       <defs>
        <path id="ArialUnicodeMS-36" d="M 838 2363 
Q 1225 2969 1941 2969 
Q 2503 2969 2897 2553 
Q 3291 2138 3291 1491 
Q 3291 838 2898 380 
Q 2506 -78 1856 -78 
Q 1197 -78 733 409 
Q 269 897 269 2144 
Q 269 3369 689 3986 
Q 1109 4603 1906 4603 
Q 2422 4603 2778 4315 
Q 3134 4028 3213 3463 
L 2650 3413 
Q 2497 4141 1875 4141 
Q 1444 4141 1134 3712 
Q 825 3284 825 2363 
L 838 2363 
z
M 1844 384 
Q 2231 384 2472 696 
Q 2713 1009 2713 1453 
Q 2713 1897 2472 2187 
Q 2231 2478 1825 2478 
Q 1453 2478 1184 2204 
Q 916 1931 916 1484 
Q 916 1028 1180 706 
Q 1444 384 1844 384 
z
" transform="scale(0.015625)"/>
       </defs>
       <use xlink:href="#ArialUnicodeMS-32"/>
       <use xlink:href="#ArialUnicodeMS-36" x="55.615234"/>
       <use xlink:href="#ArialUnicodeMS-30" x="111.230469"/>
       <use xlink:href="#ArialUnicodeMS-30" x="166.845703"/>
      </g>
     </g>
    </g>
    <g id="ytick_5">
     <g id="line2d_25">
      <path d="M 57.6 135.058413 
L 414.72 135.058413 
" clip-path="url(#p15019f2adc)" style="fill: none; stroke-dasharray: 1.85,0.8; stroke-dashoffset: 0; stroke: #b0b0b0; stroke-width: 0.5"/>
     </g>
     <g id="line2d_26">
      <g>
       <use xlink:href="#m3c283743d6" x="57.6" y="135.058413" style="stroke: #000000; stroke-width: 0.8"/>
      </g>
     </g>
     <g id="text_14">
      <!-- 2800 -->
      <g transform="translate(28.35625 138.637319)scale(0.1 -0.1)">
       <defs>
        <path id="ArialUnicodeMS-38" d="M 2425 2478 
Q 3284 2203 3284 1306 
Q 3284 716 2862 319 
Q 2441 -78 1778 -78 
Q 1109 -78 689 322 
Q 269 722 269 1325 
Q 269 1759 505 2084 
Q 741 2409 1141 2478 
L 1141 2491 
Q 453 2703 453 3419 
Q 453 3925 815 4264 
Q 1178 4603 1766 4603 
Q 2363 4603 2730 4253 
Q 3097 3903 3097 3406 
Q 3097 2731 2425 2491 
L 2425 2478 
z
M 1778 2700 
Q 2094 2700 2308 2901 
Q 2522 3103 2522 3406 
Q 2522 3716 2305 3928 
Q 2088 4141 1772 4141 
Q 1450 4141 1240 3931 
Q 1031 3722 1031 3438 
Q 1031 3097 1247 2898 
Q 1463 2700 1778 2700 
z
M 1778 384 
Q 2175 384 2440 640 
Q 2706 897 2706 1306 
Q 2706 1716 2432 1978 
Q 2159 2241 1766 2241 
Q 1356 2241 1100 1970 
Q 844 1700 844 1319 
Q 844 922 1108 653 
Q 1372 384 1778 384 
z
" transform="scale(0.015625)"/>
       </defs>
       <use xlink:href="#ArialUnicodeMS-32"/>
       <use xlink:href="#ArialUnicodeMS-38" x="55.615234"/>
       <use xlink:href="#ArialUnicodeMS-30" x="111.230469"/>
       <use xlink:href="#ArialUnicodeMS-30" x="166.845703"/>
      </g>
     </g>
    </g>
    <g id="ytick_6">
     <g id="line2d_27">
      <path d="M 57.6 99.10015 
L 414.72 99.10015 
" clip-path="url(#p15019f2adc)" style="fill: none; stroke-dasharray: 1.85,0.8; stroke-dashoffset: 0; stroke: #b0b0b0; stroke-width: 0.5"/>
     </g>
     <g id="line2d_28">
      <g>
       <use xlink:href="#m3c283743d6" x="57.6" y="99.10015" style="stroke: #000000; stroke-width: 0.8"/>
      </g>
     </g>
     <g id="text_15">
      <!-- 3000 -->
      <g transform="translate(28.35625 102.679056)scale(0.1 -0.1)">
       <use xlink:href="#ArialUnicodeMS-33"/>
       <use xlink:href="#ArialUnicodeMS-30" x="55.615234"/>
       <use xlink:href="#ArialUnicodeMS-30" x="111.230469"/>
       <use xlink:href="#ArialUnicodeMS-30" x="166.845703"/>
      </g>
     </g>
    </g>
    <g id="ytick_7">
     <g id="line2d_29">
      <path d="M 57.6 63.141887 
L 414.72 63.141887 
" clip-path="url(#p15019f2adc)" style="fill: none; stroke-dasharray: 1.85,0.8; stroke-dashoffset: 0; stroke: #b0b0b0; stroke-width: 0.5"/>
     </g>
     <g id="line2d_30">
      <g>
       <use xlink:href="#m3c283743d6" x="57.6" y="63.141887" style="stroke: #000000; stroke-width: 0.8"/>
      </g>
     </g>
     <g id="text_16">
      <!-- 3200 -->
      <g transform="translate(28.35625 66.720794)scale(0.1 -0.1)">
       <use xlink:href="#ArialUnicodeMS-33"/>
       <use xlink:href="#ArialUnicodeMS-32" x="55.615234"/>
       <use xlink:href="#ArialUnicodeMS-30" x="111.230469"/>
       <use xlink:href="#ArialUnicodeMS-30" x="166.845703"/>
      </g>
     </g>
    </g>
    <g id="text_17">
     <!-- 平均响应时间(s) -->
     <g transform="translate(22.25625 210.357687)rotate(-90)scale(0.1 -0.1)">
      <defs>
       <path id="ArialUnicodeMS-5e73" d="M 5888 1875 
L 3419 1875 
L 3419 -447 
L 2931 -447 
L 2931 1875 
L 453 1875 
L 453 2344 
L 2931 2344 
L 2931 4569 
L 856 4569 
L 856 5038 
L 5453 5038 
L 5453 4569 
L 3419 4569 
L 3419 2344 
L 5888 2344 
L 5888 1875 
z
M 5241 4197 
Q 4981 3381 4134 2522 
L 3700 2803 
Q 4584 3606 4819 4422 
L 5241 4197 
z
M 2528 2753 
L 2081 2509 
Q 1700 3606 953 4153 
L 1428 4384 
Q 2109 3784 2528 2753 
z
" transform="scale(0.015625)"/>
       <path id="ArialUnicodeMS-54cd" d="M 5759 213 
Q 5759 97 5626 -98 
Q 5494 -294 4594 -263 
L 4434 231 
L 5081 203 
Q 5275 203 5275 359 
L 5275 4091 
L 2881 4091 
L 2881 -353 
L 2394 -353 
L 2394 4556 
L 3341 4556 
Q 3744 4881 3944 5600 
Q 4072 5541 4391 5331 
Q 4188 4778 3975 4556 
L 5759 4556 
L 5759 213 
z
M 2053 922 
L 1569 922 
L 1569 1313 
L 1106 1313 
L 1106 922 
L 622 922 
L 622 4738 
L 2053 4738 
L 2053 922 
z
M 1569 1778 
L 1569 4269 
L 1106 4269 
L 1106 1778 
L 1569 1778 
z
M 4884 1241 
L 3263 1241 
L 3263 3413 
L 4884 3413 
L 4884 1241 
z
M 4397 1709 
L 4397 2944 
L 3750 2944 
L 3750 1709 
L 4397 1709 
z
" transform="scale(0.015625)"/>
       <path id="ArialUnicodeMS-5e94" d="M 5919 3944 
L 1638 3944 
L 1609 2359 
Q 1591 1578 1503 1148 
Q 1416 719 1222 373 
Q 1028 28 672 -378 
L 294 -38 
Q 678 297 870 739 
Q 1063 1181 1117 1853 
Q 1172 2525 1159 4384 
L 3494 4384 
Q 3366 4666 2869 5019 
L 3206 5338 
Q 3713 5059 4025 4556 
L 3859 4384 
L 5919 4384 
L 5919 3944 
z
M 4128 1434 
L 3653 1203 
Q 3516 2316 2853 3353 
L 3256 3566 
Q 3959 2628 4128 1434 
z
M 5941 -122 
L 1422 -122 
L 1422 347 
L 4122 347 
Q 4881 1628 5069 3413 
L 5528 3250 
Q 5356 1466 4666 347 
L 5941 347 
L 5941 -122 
z
M 3181 884 
L 2713 609 
Q 2488 1816 1716 2822 
L 2150 3028 
Q 2941 2034 3181 884 
z
" transform="scale(0.015625)"/>
       <path id="ArialUnicodeMS-65f6" d="M 5931 3481 
L 5259 3481 
L 5259 72 
Q 5259 -122 5142 -259 
Q 5025 -397 4863 -397 
L 4281 -397 
L 4097 122 
L 4672 78 
Q 4775 66 4775 191 
L 4775 3481 
L 2784 3481 
L 2784 3950 
L 4775 3950 
L 4775 5306 
L 5259 5306 
L 5259 3950 
L 5931 3950 
L 5931 3481 
z
M 2463 97 
L 1978 97 
L 1978 569 
L 1147 569 
L 1147 97 
L 659 97 
L 659 4313 
L 2463 4313 
L 2463 97 
z
M 1978 2675 
L 1978 3847 
L 1147 3847 
L 1147 2675 
L 1978 2675 
z
M 1978 1038 
L 1978 2209 
L 1147 2209 
L 1147 1038 
L 1978 1038 
z
M 4306 1575 
L 3903 1300 
Q 3594 2103 2888 2725 
L 3272 2994 
Q 3997 2375 4306 1575 
z
" transform="scale(0.015625)"/>
       <path id="ArialUnicodeMS-95f4" d="M 2463 4313 
L 2088 4006 
Q 1600 4669 1094 4984 
L 1484 5247 
Q 2044 4888 2463 4313 
z
M 5497 178 
Q 5497 -50 5353 -181 
Q 5209 -313 4853 -313 
Q 4753 -313 4506 -300 
L 4366 147 
Q 4631 106 4806 106 
Q 4991 106 5002 142 
Q 5013 178 5013 275 
L 5013 4453 
L 2841 4453 
L 2841 4922 
L 5497 4922 
L 5497 178 
z
M 1125 -384 
L 641 -384 
L 641 4197 
L 1125 4197 
L 1125 -384 
z
M 4306 481 
L 3822 481 
L 3822 813 
L 2375 813 
L 2375 481 
L 1888 481 
L 1888 3669 
L 4306 3669 
L 4306 481 
z
M 3822 2559 
L 3822 3200 
L 2375 3200 
L 2375 2559 
L 3822 2559 
z
M 3822 1281 
L 3822 2094 
L 2375 2094 
L 2375 1281 
L 3822 1281 
z
" transform="scale(0.015625)"/>
       <path id="ArialUnicodeMS-28" d="M 1900 -1344 
L 1497 -1344 
Q 978 -681 681 103 
Q 384 888 384 1656 
Q 384 2528 700 3275 
Q 1016 4022 1497 4659 
L 1900 4659 
Q 1344 3747 1155 3059 
Q 966 2372 966 1663 
Q 966 153 1900 -1344 
z
" transform="scale(0.015625)"/>
       <path id="ArialUnicodeMS-73" d="M 2278 2388 
Q 2241 2659 2058 2795 
Q 1875 2931 1550 2931 
Q 1228 2931 1029 2822 
Q 831 2713 831 2503 
Q 831 2306 989 2222 
Q 1147 2138 1613 2016 
Q 2138 1881 2398 1778 
Q 2659 1675 2804 1489 
Q 2950 1303 2950 972 
Q 2950 528 2587 225 
Q 2225 -78 1619 -78 
Q 988 -78 633 189 
Q 278 456 197 991 
L 756 1075 
Q 800 728 1014 556 
Q 1228 384 1613 384 
Q 1981 384 2178 539 
Q 2375 694 2375 916 
Q 2375 1066 2284 1156 
Q 2194 1247 2058 1292 
Q 1922 1338 1447 1453 
Q 741 1622 514 1862 
Q 288 2103 288 2438 
Q 288 2853 619 3122 
Q 950 3391 1509 3391 
Q 2103 3391 2433 3158 
Q 2763 2925 2828 2463 
L 2278 2388 
z
" transform="scale(0.015625)"/>
       <path id="ArialUnicodeMS-29" d="M 634 4659 
Q 1153 3997 1450 3212 
Q 1747 2428 1747 1656 
Q 1747 788 1431 41 
Q 1116 -706 634 -1344 
L 231 -1344 
Q 788 -431 977 255 
Q 1166 941 1166 1650 
Q 1166 3163 231 4659 
L 634 4659 
z
" transform="scale(0.015625)"/>
      </defs>
      <use xlink:href="#ArialUnicodeMS-5e73"/>
      <use xlink:href="#ArialUnicodeMS-5747" x="100"/>
      <use xlink:href="#ArialUnicodeMS-54cd" x="200"/>
      <use xlink:href="#ArialUnicodeMS-5e94" x="300"/>
      <use xlink:href="#ArialUnicodeMS-65f6" x="400"/>
      <use xlink:href="#ArialUnicodeMS-95f4" x="500"/>
      <use xlink:href="#ArialUnicodeMS-28" x="600"/>
      <use xlink:href="#ArialUnicodeMS-73" x="633.300781"/>
      <use xlink:href="#ArialUnicodeMS-29" x="683.300781"/>
     </g>
    </g>
   </g>
   <g id="line2d_31">
    <path d="M 73.832727 292.715618 
L 90.919809 295.488 
L 108.00689 237.634751 
L 125.093971 268.540878 
L 142.181053 225.515019 
L 159.268134 208.019526 
L 176.355215 207.908055 
L 193.442297 208.420461 
L 210.529378 200.527622 
L 227.616459 192.278796 
L 244.703541 176.205453 
L 261.790622 173.567914 
L 278.877703 177.796606 
L 295.964785 172.323758 
L 313.051866 159.121682 
L 330.138947 153.318019 
L 347.226029 163.384534 
L 364.31311 158.208342 
L 381.400191 153.893351 
L 398.487273 162.408268 
" clip-path="url(#p15019f2adc)" style="fill: none; stroke: #ff0000; stroke-width: 2; stroke-linecap: square"/>
    <defs>
     <path id="mecb2374588" d="M 0 3 
C 0.795609 3 1.55874 2.683901 2.12132 2.12132 
C 2.683901 1.55874 3 0.795609 3 0 
C 3 -0.795609 2.683901 -1.55874 2.12132 -2.12132 
C 1.55874 -2.683901 0.795609 -3 0 -3 
C -0.795609 -3 -1.55874 -2.683901 -2.12132 -2.12132 
C -2.683901 -1.55874 -3 -0.795609 -3 0 
C -3 0.795609 -2.683901 1.55874 -2.12132 2.12132 
C -1.55874 2.683901 -0.795609 3 0 3 
z
" style="stroke: #ff0000"/>
    </defs>
    <g clip-path="url(#p15019f2adc)">
     <use xlink:href="#mecb2374588" x="73.832727" y="292.715618" style="fill: #ff0000; stroke: #ff0000"/>
     <use xlink:href="#mecb2374588" x="90.919809" y="295.488" style="fill: #ff0000; stroke: #ff0000"/>
     <use xlink:href="#mecb2374588" x="108.00689" y="237.634751" style="fill: #ff0000; stroke: #ff0000"/>
     <use xlink:href="#mecb2374588" x="125.093971" y="268.540878" style="fill: #ff0000; stroke: #ff0000"/>
     <use xlink:href="#mecb2374588" x="142.181053" y="225.515019" style="fill: #ff0000; stroke: #ff0000"/>
     <use xlink:href="#mecb2374588" x="159.268134" y="208.019526" style="fill: #ff0000; stroke: #ff0000"/>
     <use xlink:href="#mecb2374588" x="176.355215" y="207.908055" style="fill: #ff0000; stroke: #ff0000"/>
     <use xlink:href="#mecb2374588" x="193.442297" y="208.420461" style="fill: #ff0000; stroke: #ff0000"/>
     <use xlink:href="#mecb2374588" x="210.529378" y="200.527622" style="fill: #ff0000; stroke: #ff0000"/>
     <use xlink:href="#mecb2374588" x="227.616459" y="192.278796" style="fill: #ff0000; stroke: #ff0000"/>
     <use xlink:href="#mecb2374588" x="244.703541" y="176.205453" style="fill: #ff0000; stroke: #ff0000"/>
     <use xlink:href="#mecb2374588" x="261.790622" y="173.567914" style="fill: #ff0000; stroke: #ff0000"/>
     <use xlink:href="#mecb2374588" x="278.877703" y="177.796606" style="fill: #ff0000; stroke: #ff0000"/>
     <use xlink:href="#mecb2374588" x="295.964785" y="172.323758" style="fill: #ff0000; stroke: #ff0000"/>
     <use xlink:href="#mecb2374588" x="313.051866" y="159.121682" style="fill: #ff0000; stroke: #ff0000"/>
     <use xlink:href="#mecb2374588" x="330.138947" y="153.318019" style="fill: #ff0000; stroke: #ff0000"/>
     <use xlink:href="#mecb2374588" x="347.226029" y="163.384534" style="fill: #ff0000; stroke: #ff0000"/>
     <use xlink:href="#mecb2374588" x="364.31311" y="158.208342" style="fill: #ff0000; stroke: #ff0000"/>
     <use xlink:href="#mecb2374588" x="381.400191" y="153.893351" style="fill: #ff0000; stroke: #ff0000"/>
     <use xlink:href="#mecb2374588" x="398.487273" y="162.408268" style="fill: #ff0000; stroke: #ff0000"/>
    </g>
   </g>
   <g id="line2d_32">
    <path d="M 73.832727 88.548198 
L 90.919809 93.458299 
L 108.00689 91.723313 
L 125.093971 94.884044 
L 142.181053 93.727986 
L 159.268134 91.825794 
L 176.355215 90.799185 
L 193.442297 93.659665 
L 210.529378 88.418748 
L 227.616459 96.992996 
L 244.703541 91.921083 
L 261.790622 91.430253 
L 278.877703 95.322735 
L 295.964785 100.869297 
L 313.051866 95.723669 
L 330.138947 93.470884 
L 347.226029 99.092959 
L 364.31311 100.502522 
L 381.400191 101.921076 
L 398.487273 109.438151 
" clip-path="url(#p15019f2adc)" style="fill: none; stroke: #0000ff; stroke-width: 2; stroke-linecap: square"/>
    <defs>
     <path id="m60bdacaac2" d="M -3 3 
L 3 3 
L 3 -3 
L -3 -3 
z
" style="stroke: #0000ff; stroke-linejoin: miter"/>
    </defs>
    <g clip-path="url(#p15019f2adc)">
     <use xlink:href="#m60bdacaac2" x="73.832727" y="88.548198" style="fill: #0000ff; stroke: #0000ff; stroke-linejoin: miter"/>
     <use xlink:href="#m60bdacaac2" x="90.919809" y="93.458299" style="fill: #0000ff; stroke: #0000ff; stroke-linejoin: miter"/>
     <use xlink:href="#m60bdacaac2" x="108.00689" y="91.723313" style="fill: #0000ff; stroke: #0000ff; stroke-linejoin: miter"/>
     <use xlink:href="#m60bdacaac2" x="125.093971" y="94.884044" style="fill: #0000ff; stroke: #0000ff; stroke-linejoin: miter"/>
     <use xlink:href="#m60bdacaac2" x="142.181053" y="93.727986" style="fill: #0000ff; stroke: #0000ff; stroke-linejoin: miter"/>
     <use xlink:href="#m60bdacaac2" x="159.268134" y="91.825794" style="fill: #0000ff; stroke: #0000ff; stroke-linejoin: miter"/>
     <use xlink:href="#m60bdacaac2" x="176.355215" y="90.799185" style="fill: #0000ff; stroke: #0000ff; stroke-linejoin: miter"/>
     <use xlink:href="#m60bdacaac2" x="193.442297" y="93.659665" style="fill: #0000ff; stroke: #0000ff; stroke-linejoin: miter"/>
     <use xlink:href="#m60bdacaac2" x="210.529378" y="88.418748" style="fill: #0000ff; stroke: #0000ff; stroke-linejoin: miter"/>
     <use xlink:href="#m60bdacaac2" x="227.616459" y="96.992996" style="fill: #0000ff; stroke: #0000ff; stroke-linejoin: miter"/>
     <use xlink:href="#m60bdacaac2" x="244.703541" y="91.921083" style="fill: #0000ff; stroke: #0000ff; stroke-linejoin: miter"/>
     <use xlink:href="#m60bdacaac2" x="261.790622" y="91.430253" style="fill: #0000ff; stroke: #0000ff; stroke-linejoin: miter"/>
     <use xlink:href="#m60bdacaac2" x="278.877703" y="95.322735" style="fill: #0000ff; stroke: #0000ff; stroke-linejoin: miter"/>
     <use xlink:href="#m60bdacaac2" x="295.964785" y="100.869297" style="fill: #0000ff; stroke: #0000ff; stroke-linejoin: miter"/>
     <use xlink:href="#m60bdacaac2" x="313.051866" y="95.723669" style="fill: #0000ff; stroke: #0000ff; stroke-linejoin: miter"/>
     <use xlink:href="#m60bdacaac2" x="330.138947" y="93.470884" style="fill: #0000ff; stroke: #0000ff; stroke-linejoin: miter"/>
     <use xlink:href="#m60bdacaac2" x="347.226029" y="99.092959" style="fill: #0000ff; stroke: #0000ff; stroke-linejoin: miter"/>
     <use xlink:href="#m60bdacaac2" x="364.31311" y="100.502522" style="fill: #0000ff; stroke: #0000ff; stroke-linejoin: miter"/>
     <use xlink:href="#m60bdacaac2" x="381.400191" y="101.921076" style="fill: #0000ff; stroke: #0000ff; stroke-linejoin: miter"/>
     <use xlink:href="#m60bdacaac2" x="398.487273" y="109.438151" style="fill: #0000ff; stroke: #0000ff; stroke-linejoin: miter"/>
    </g>
   </g>
   <g id="line2d_33">
    <path d="M 73.832727 294.028095 
L 90.919809 260.132038 
L 108.00689 241.662077 
L 125.093971 199.981056 
L 142.181053 188.542733 
L 159.268134 142.602456 
L 176.355215 144.957723 
L 193.442297 143.722556 
L 210.529378 133.391747 
L 227.616459 131.025694 
L 244.703541 124.916385 
L 261.790622 124.333861 
L 278.877703 114.184641 
L 295.964785 122.976437 
L 313.051866 111.219883 
L 330.138947 100.775805 
L 347.226029 106.272026 
L 364.31311 111.072454 
L 381.400191 107.530565 
L 398.487273 113.931136 
" clip-path="url(#p15019f2adc)" style="fill: none; stroke: #008000; stroke-width: 2; stroke-linecap: square"/>
    <defs>
     <path id="mf589276750" d="M 0 -3 
L -3 3 
L 3 3 
z
" style="stroke: #008000; stroke-linejoin: miter"/>
    </defs>
    <g clip-path="url(#p15019f2adc)">
     <use xlink:href="#mf589276750" x="73.832727" y="294.028095" style="fill: #008000; stroke: #008000; stroke-linejoin: miter"/>
     <use xlink:href="#mf589276750" x="90.919809" y="260.132038" style="fill: #008000; stroke: #008000; stroke-linejoin: miter"/>
     <use xlink:href="#mf589276750" x="108.00689" y="241.662077" style="fill: #008000; stroke: #008000; stroke-linejoin: miter"/>
     <use xlink:href="#mf589276750" x="125.093971" y="199.981056" style="fill: #008000; stroke: #008000; stroke-linejoin: miter"/>
     <use xlink:href="#mf589276750" x="142.181053" y="188.542733" style="fill: #008000; stroke: #008000; stroke-linejoin: miter"/>
     <use xlink:href="#mf589276750" x="159.268134" y="142.602456" style="fill: #008000; stroke: #008000; stroke-linejoin: miter"/>
     <use xlink:href="#mf589276750" x="176.355215" y="144.957723" style="fill: #008000; stroke: #008000; stroke-linejoin: miter"/>
     <use xlink:href="#mf589276750" x="193.442297" y="143.722556" style="fill: #008000; stroke: #008000; stroke-linejoin: miter"/>
     <use xlink:href="#mf589276750" x="210.529378" y="133.391747" style="fill: #008000; stroke: #008000; stroke-linejoin: miter"/>
     <use xlink:href="#mf589276750" x="227.616459" y="131.025694" style="fill: #008000; stroke: #008000; stroke-linejoin: miter"/>
     <use xlink:href="#mf589276750" x="244.703541" y="124.916385" style="fill: #008000; stroke: #008000; stroke-linejoin: miter"/>
     <use xlink:href="#mf589276750" x="261.790622" y="124.333861" style="fill: #008000; stroke: #008000; stroke-linejoin: miter"/>
     <use xlink:href="#mf589276750" x="278.877703" y="114.184641" style="fill: #008000; stroke: #008000; stroke-linejoin: miter"/>
     <use xlink:href="#mf589276750" x="295.964785" y="122.976437" style="fill: #008000; stroke: #008000; stroke-linejoin: miter"/>
     <use xlink:href="#mf589276750" x="313.051866" y="111.219883" style="fill: #008000; stroke: #008000; stroke-linejoin: miter"/>
     <use xlink:href="#mf589276750" x="330.138947" y="100.775805" style="fill: #008000; stroke: #008000; stroke-linejoin: miter"/>
     <use xlink:href="#mf589276750" x="347.226029" y="106.272026" style="fill: #008000; stroke: #008000; stroke-linejoin: miter"/>
     <use xlink:href="#mf589276750" x="364.31311" y="111.072454" style="fill: #008000; stroke: #008000; stroke-linejoin: miter"/>
     <use xlink:href="#mf589276750" x="381.400191" y="107.530565" style="fill: #008000; stroke: #008000; stroke-linejoin: miter"/>
     <use xlink:href="#mf589276750" x="398.487273" y="113.931136" style="fill: #008000; stroke: #008000; stroke-linejoin: miter"/>
    </g>
   </g>
   <g id="line2d_34">
    <path d="M 73.832727 53.568 
L 90.919809 80.277798 
L 108.00689 81.527347 
L 125.093971 85.818966 
L 142.181053 85.453989 
L 159.268134 83.66147 
L 176.355215 83.438529 
L 193.442297 88.064559 
L 210.529378 83.530222 
L 227.616459 93.037587 
L 244.703541 90.049455 
L 261.790622 90.349707 
L 278.877703 95.067431 
L 295.964785 102.372352 
L 313.051866 98.934742 
L 330.138947 98.093319 
L 347.226029 103.722585 
L 364.31311 106.583065 
L 381.400191 107.782273 
L 398.487273 115.292156 
" clip-path="url(#p15019f2adc)" style="fill: none; stroke: #ffa500; stroke-width: 2; stroke-linecap: square"/>
    <defs>
     <path id="ma0f17f1d75" d="M -0 4.242641 
L 4.242641 0 
L 0 -4.242641 
L -4.242641 -0 
z
" style="stroke: #ffa500; stroke-linejoin: miter"/>
    </defs>
    <g clip-path="url(#p15019f2adc)">
     <use xlink:href="#ma0f17f1d75" x="73.832727" y="53.568" style="fill: #ffa500; stroke: #ffa500; stroke-linejoin: miter"/>
     <use xlink:href="#ma0f17f1d75" x="90.919809" y="80.277798" style="fill: #ffa500; stroke: #ffa500; stroke-linejoin: miter"/>
     <use xlink:href="#ma0f17f1d75" x="108.00689" y="81.527347" style="fill: #ffa500; stroke: #ffa500; stroke-linejoin: miter"/>
     <use xlink:href="#ma0f17f1d75" x="125.093971" y="85.818966" style="fill: #ffa500; stroke: #ffa500; stroke-linejoin: miter"/>
     <use xlink:href="#ma0f17f1d75" x="142.181053" y="85.453989" style="fill: #ffa500; stroke: #ffa500; stroke-linejoin: miter"/>
     <use xlink:href="#ma0f17f1d75" x="159.268134" y="83.66147" style="fill: #ffa500; stroke: #ffa500; stroke-linejoin: miter"/>
     <use xlink:href="#ma0f17f1d75" x="176.355215" y="83.438529" style="fill: #ffa500; stroke: #ffa500; stroke-linejoin: miter"/>
     <use xlink:href="#ma0f17f1d75" x="193.442297" y="88.064559" style="fill: #ffa500; stroke: #ffa500; stroke-linejoin: miter"/>
     <use xlink:href="#ma0f17f1d75" x="210.529378" y="83.530222" style="fill: #ffa500; stroke: #ffa500; stroke-linejoin: miter"/>
     <use xlink:href="#ma0f17f1d75" x="227.616459" y="93.037587" style="fill: #ffa500; stroke: #ffa500; stroke-linejoin: miter"/>
     <use xlink:href="#ma0f17f1d75" x="244.703541" y="90.049455" style="fill: #ffa500; stroke: #ffa500; stroke-linejoin: miter"/>
     <use xlink:href="#ma0f17f1d75" x="261.790622" y="90.349707" style="fill: #ffa500; stroke: #ffa500; stroke-linejoin: miter"/>
     <use xlink:href="#ma0f17f1d75" x="278.877703" y="95.067431" style="fill: #ffa500; stroke: #ffa500; stroke-linejoin: miter"/>
     <use xlink:href="#ma0f17f1d75" x="295.964785" y="102.372352" style="fill: #ffa500; stroke: #ffa500; stroke-linejoin: miter"/>
     <use xlink:href="#ma0f17f1d75" x="313.051866" y="98.934742" style="fill: #ffa500; stroke: #ffa500; stroke-linejoin: miter"/>
     <use xlink:href="#ma0f17f1d75" x="330.138947" y="98.093319" style="fill: #ffa500; stroke: #ffa500; stroke-linejoin: miter"/>
     <use xlink:href="#ma0f17f1d75" x="347.226029" y="103.722585" style="fill: #ffa500; stroke: #ffa500; stroke-linejoin: miter"/>
     <use xlink:href="#ma0f17f1d75" x="364.31311" y="106.583065" style="fill: #ffa500; stroke: #ffa500; stroke-linejoin: miter"/>
     <use xlink:href="#ma0f17f1d75" x="381.400191" y="107.782273" style="fill: #ffa500; stroke: #ffa500; stroke-linejoin: miter"/>
     <use xlink:href="#ma0f17f1d75" x="398.487273" y="115.292156" style="fill: #ffa500; stroke: #ffa500; stroke-linejoin: miter"/>
    </g>
   </g>
   <g id="line2d_35">
    <path d="M 73.832727 259.049694 
L 90.919809 245.263297 
L 108.00689 231.591965 
L 125.093971 189.193577 
L 142.181053 180.504263 
L 159.268134 135.335292 
L 176.355215 137.295017 
L 193.442297 139.137878 
L 210.529378 137.625833 
L 227.616459 126.498548 
L 244.703541 119.876834 
L 261.790622 123.612898 
L 278.877703 111.496761 
L 295.964785 122.980032 
L 313.051866 112.688778 
L 330.138947 102.350777 
L 347.226029 106.5525 
L 364.31311 116.336743 
L 381.400191 116.430235 
L 398.487273 121.75026 
" clip-path="url(#p15019f2adc)" style="fill: none; stroke: #800080; stroke-width: 2; stroke-linecap: square"/>
    <defs>
     <path id="mfa3f367080" d="M 0 -3 
L -0.673542 -0.927051 
L -2.85317 -0.927051 
L -1.089814 0.354102 
L -1.763356 2.427051 
L -0 1.145898 
L 1.763356 2.427051 
L 1.089814 0.354102 
L 2.85317 -0.927051 
L 0.673542 -0.927051 
z
" style="stroke: #800080; stroke-linejoin: bevel"/>
    </defs>
    <g clip-path="url(#p15019f2adc)">
     <use xlink:href="#mfa3f367080" x="73.832727" y="259.049694" style="fill: #800080; stroke: #800080; stroke-linejoin: bevel"/>
     <use xlink:href="#mfa3f367080" x="90.919809" y="245.263297" style="fill: #800080; stroke: #800080; stroke-linejoin: bevel"/>
     <use xlink:href="#mfa3f367080" x="108.00689" y="231.591965" style="fill: #800080; stroke: #800080; stroke-linejoin: bevel"/>
     <use xlink:href="#mfa3f367080" x="125.093971" y="189.193577" style="fill: #800080; stroke: #800080; stroke-linejoin: bevel"/>
     <use xlink:href="#mfa3f367080" x="142.181053" y="180.504263" style="fill: #800080; stroke: #800080; stroke-linejoin: bevel"/>
     <use xlink:href="#mfa3f367080" x="159.268134" y="135.335292" style="fill: #800080; stroke: #800080; stroke-linejoin: bevel"/>
     <use xlink:href="#mfa3f367080" x="176.355215" y="137.295017" style="fill: #800080; stroke: #800080; stroke-linejoin: bevel"/>
     <use xlink:href="#mfa3f367080" x="193.442297" y="139.137878" style="fill: #800080; stroke: #800080; stroke-linejoin: bevel"/>
     <use xlink:href="#mfa3f367080" x="210.529378" y="137.625833" style="fill: #800080; stroke: #800080; stroke-linejoin: bevel"/>
     <use xlink:href="#mfa3f367080" x="227.616459" y="126.498548" style="fill: #800080; stroke: #800080; stroke-linejoin: bevel"/>
     <use xlink:href="#mfa3f367080" x="244.703541" y="119.876834" style="fill: #800080; stroke: #800080; stroke-linejoin: bevel"/>
     <use xlink:href="#mfa3f367080" x="261.790622" y="123.612898" style="fill: #800080; stroke: #800080; stroke-linejoin: bevel"/>
     <use xlink:href="#mfa3f367080" x="278.877703" y="111.496761" style="fill: #800080; stroke: #800080; stroke-linejoin: bevel"/>
     <use xlink:href="#mfa3f367080" x="295.964785" y="122.980032" style="fill: #800080; stroke: #800080; stroke-linejoin: bevel"/>
     <use xlink:href="#mfa3f367080" x="313.051866" y="112.688778" style="fill: #800080; stroke: #800080; stroke-linejoin: bevel"/>
     <use xlink:href="#mfa3f367080" x="330.138947" y="102.350777" style="fill: #800080; stroke: #800080; stroke-linejoin: bevel"/>
     <use xlink:href="#mfa3f367080" x="347.226029" y="106.5525" style="fill: #800080; stroke: #800080; stroke-linejoin: bevel"/>
     <use xlink:href="#mfa3f367080" x="364.31311" y="116.336743" style="fill: #800080; stroke: #800080; stroke-linejoin: bevel"/>
     <use xlink:href="#mfa3f367080" x="381.400191" y="116.430235" style="fill: #800080; stroke: #800080; stroke-linejoin: bevel"/>
     <use xlink:href="#mfa3f367080" x="398.487273" y="121.75026" style="fill: #800080; stroke: #800080; stroke-linejoin: bevel"/>
    </g>
   </g>
   <g id="patch_3">
    <path d="M 57.6 307.584 
L 57.6 41.472 
" style="fill: none; stroke: #000000; stroke-width: 0.8; stroke-linejoin: miter; stroke-linecap: square"/>
   </g>
   <g id="patch_4">
    <path d="M 414.72 307.584 
L 414.72 41.472 
" style="fill: none; stroke: #000000; stroke-width: 0.8; stroke-linejoin: miter; stroke-linecap: square"/>
   </g>
   <g id="patch_5">
    <path d="M 57.6 307.584 
L 414.72 307.584 
" style="fill: none; stroke: #000000; stroke-width: 0.8; stroke-linejoin: miter; stroke-linecap: square"/>
   </g>
   <g id="patch_6">
    <path d="M 57.6 41.472 
L 414.72 41.472 
" style="fill: none; stroke: #000000; stroke-width: 0.8; stroke-linejoin: miter; stroke-linecap: square"/>
   </g>
   <g id="legend_1">
    <g id="patch_7">
     <path d="M 327.385625 302.584 
L 407.72 302.584 
Q 409.72 302.584 409.72 300.584 
L 409.72 230.834 
Q 409.72 228.834 407.72 228.834 
L 327.385625 228.834 
Q 325.385625 228.834 325.385625 230.834 
L 325.385625 300.584 
Q 325.385625 302.584 327.385625 302.584 
z
" style="fill: #ffffff; opacity: 0.8; stroke: #cccccc; stroke-linejoin: miter"/>
    </g>
    <g id="line2d_36">
     <path d="M 329.385625 236.491812 
L 339.385625 236.491812 
L 349.385625 236.491812 
" style="fill: none; stroke: #ff0000; stroke-width: 2; stroke-linecap: square"/>
     <g>
      <use xlink:href="#mecb2374588" x="339.385625" y="236.491812" style="fill: #ff0000; stroke: #ff0000"/>
     </g>
    </g>
    <g id="text_18">
     <!-- SWD-AD -->
     <g transform="translate(357.385625 239.991812)scale(0.1 -0.1)">
      <defs>
       <path id="ArialUnicodeMS-53" d="M 3213 3238 
Q 3175 3675 2897 3895 
Q 2619 4116 2100 4116 
Q 1631 4116 1337 3941 
Q 1044 3766 1044 3431 
Q 1044 3134 1270 2989 
Q 1497 2844 2138 2700 
Q 2706 2575 3065 2444 
Q 3425 2313 3681 2036 
Q 3938 1759 3938 1294 
Q 3938 703 3467 312 
Q 2997 -78 2241 -78 
Q 1275 -78 795 353 
Q 316 784 288 1472 
L 863 1522 
Q 903 972 1287 720 
Q 1672 469 2216 469 
Q 2725 469 3039 678 
Q 3353 888 3353 1247 
Q 3353 1622 3025 1794 
Q 2697 1966 1923 2133 
Q 1150 2300 809 2603 
Q 469 2906 469 3391 
Q 469 3941 900 4300 
Q 1331 4659 2075 4659 
Q 2838 4659 3302 4301 
Q 3766 3944 3794 3284 
L 3213 3238 
z
" transform="scale(0.015625)"/>
       <path id="ArialUnicodeMS-57" d="M 5972 4581 
L 4709 0 
L 4128 0 
L 3128 3609 
Q 3050 3888 3028 4031 
L 3016 4031 
L 2888 3488 
L 1913 0 
L 1300 0 
L 78 4581 
L 697 4581 
L 1403 1575 
Q 1544 984 1581 706 
Q 1588 650 1588 641 
L 1600 641 
Q 1725 1234 1797 1491 
L 2669 4581 
L 3406 4581 
L 4056 2266 
Q 4300 1403 4409 641 
L 4422 641 
Q 4488 1013 4641 1638 
L 5363 4581 
L 5972 4581 
z
" transform="scale(0.015625)"/>
       <path id="ArialUnicodeMS-44" d="M 513 4581 
L 2094 4581 
Q 2509 4581 2809 4539 
Q 3109 4497 3382 4333 
Q 3656 4169 3861 3881 
Q 4066 3594 4183 3220 
Q 4300 2847 4300 2316 
Q 4300 1303 3819 651 
Q 3338 0 2163 0 
L 513 0 
L 513 4581 
z
M 1119 544 
L 2100 544 
Q 2400 544 2636 581 
Q 2872 619 3114 784 
Q 3356 950 3515 1328 
Q 3675 1706 3675 2328 
Q 3675 2672 3614 2970 
Q 3553 3269 3389 3514 
Q 3225 3759 3012 3873 
Q 2800 3988 2598 4013 
Q 2397 4038 2081 4038 
L 1119 4038 
L 1119 544 
z
" transform="scale(0.015625)"/>
       <path id="ArialUnicodeMS-2d" d="M 1925 1375 
L 206 1375 
L 206 1941 
L 1925 1941 
L 1925 1375 
z
" transform="scale(0.015625)"/>
       <path id="ArialUnicodeMS-41" d="M 4275 0 
L 3591 0 
L 3053 1394 
L 1141 1394 
L 634 0 
L -6 0 
L 1753 4581 
L 2406 4581 
L 4275 0 
z
M 2869 1875 
Q 2306 3363 2234 3564 
Q 2163 3766 2075 4103 
L 2059 4103 
Q 1972 3641 1825 3247 
L 1313 1875 
L 2869 1875 
z
" transform="scale(0.015625)"/>
      </defs>
      <use xlink:href="#ArialUnicodeMS-53"/>
      <use xlink:href="#ArialUnicodeMS-57" x="66.699219"/>
      <use xlink:href="#ArialUnicodeMS-44" x="161.083984"/>
      <use xlink:href="#ArialUnicodeMS-2d" x="233.300781"/>
      <use xlink:href="#ArialUnicodeMS-41" x="266.601562"/>
      <use xlink:href="#ArialUnicodeMS-44" x="333.300781"/>
     </g>
    </g>
    <g id="line2d_37">
     <path d="M 329.385625 250.641812 
L 339.385625 250.641812 
L 349.385625 250.641812 
" style="fill: none; stroke: #0000ff; stroke-width: 2; stroke-linecap: square"/>
     <g>
      <use xlink:href="#m60bdacaac2" x="339.385625" y="250.641812" style="fill: #0000ff; stroke: #0000ff; stroke-linejoin: miter"/>
     </g>
    </g>
    <g id="text_19">
     <!-- Swarm -->
     <g transform="translate(357.385625 254.141812)scale(0.1 -0.1)">
      <defs>
       <path id="ArialUnicodeMS-77" d="M 4588 3316 
L 3547 0 
L 2963 0 
L 2438 1991 
Q 2434 1991 2371 2259 
Q 2309 2528 2309 2553 
L 2297 2553 
L 1638 0 
L 1050 0 
L 31 3316 
L 616 3316 
L 1338 691 
L 1450 1138 
L 2041 3316 
L 2619 3316 
L 3066 1578 
Q 3253 859 3272 763 
L 3284 763 
L 4038 3316 
L 4588 3316 
z
" transform="scale(0.015625)"/>
       <path id="ArialUnicodeMS-61" d="M 3303 0 
L 2713 0 
Q 2631 156 2597 409 
Q 2031 -78 1375 -78 
Q 850 -78 547 184 
Q 244 447 244 878 
Q 244 1291 536 1558 
Q 828 1825 1550 1913 
L 2075 1991 
Q 2369 2038 2559 2106 
Q 2559 2359 2543 2464 
Q 2528 2569 2451 2681 
Q 2375 2794 2206 2862 
Q 2038 2931 1753 2931 
Q 1391 2931 1180 2797 
Q 969 2663 891 2297 
L 341 2369 
Q 431 2878 806 3134 
Q 1181 3391 1838 3391 
Q 2434 3391 2714 3214 
Q 2994 3038 3058 2788 
Q 3122 2538 3122 2144 
L 3122 1388 
Q 3122 697 3148 461 
Q 3175 225 3303 0 
z
M 2559 1459 
L 2559 1663 
Q 2119 1516 1481 1430 
Q 844 1344 844 891 
Q 844 663 1016 514 
Q 1188 366 1509 366 
Q 1925 366 2242 614 
Q 2559 863 2559 1459 
z
" transform="scale(0.015625)"/>
       <path id="ArialUnicodeMS-72" d="M 2216 3213 
L 2022 2694 
Q 1813 2816 1613 2816 
Q 1297 2816 1134 2533 
Q 972 2250 972 1741 
L 972 0 
L 409 0 
L 409 3316 
L 922 3316 
L 922 2816 
L 934 2816 
Q 1203 3391 1638 3391 
Q 1925 3391 2216 3213 
z
" transform="scale(0.015625)"/>
       <path id="ArialUnicodeMS-6d" d="M 4922 0 
L 4359 0 
L 4359 2094 
Q 4359 2325 4328 2489 
Q 4297 2653 4167 2779 
Q 4038 2906 3763 2906 
Q 3431 2906 3190 2675 
Q 2950 2444 2950 1925 
L 2950 0 
L 2388 0 
L 2388 2156 
Q 2388 2588 2236 2747 
Q 2084 2906 1806 2906 
Q 1444 2906 1211 2656 
Q 978 2406 978 1722 
L 978 0 
L 416 0 
L 416 3316 
L 922 3316 
L 922 2853 
L 934 2853 
Q 1272 3391 1925 3391 
Q 2291 3391 2527 3245 
Q 2763 3100 2869 2809 
Q 3238 3391 3891 3391 
Q 4406 3391 4664 3112 
Q 4922 2834 4922 2278 
L 4922 0 
z
" transform="scale(0.015625)"/>
      </defs>
      <use xlink:href="#ArialUnicodeMS-53"/>
      <use xlink:href="#ArialUnicodeMS-77" x="66.699219"/>
      <use xlink:href="#ArialUnicodeMS-61" x="138.916016"/>
      <use xlink:href="#ArialUnicodeMS-72" x="194.53125"/>
      <use xlink:href="#ArialUnicodeMS-6d" x="227.832031"/>
     </g>
    </g>
    <g id="line2d_38">
     <path d="M 329.385625 264.791812 
L 339.385625 264.791812 
L 349.385625 264.791812 
" style="fill: none; stroke: #008000; stroke-width: 2; stroke-linecap: square"/>
     <g>
      <use xlink:href="#mf589276750" x="339.385625" y="264.791812" style="fill: #008000; stroke: #008000; stroke-linejoin: miter"/>
     </g>
    </g>
    <g id="text_20">
     <!-- Swarm-AD -->
     <g transform="translate(357.385625 268.291812)scale(0.1 -0.1)">
      <use xlink:href="#ArialUnicodeMS-53"/>
      <use xlink:href="#ArialUnicodeMS-77" x="66.699219"/>
      <use xlink:href="#ArialUnicodeMS-61" x="138.916016"/>
      <use xlink:href="#ArialUnicodeMS-72" x="194.53125"/>
      <use xlink:href="#ArialUnicodeMS-6d" x="227.832031"/>
      <use xlink:href="#ArialUnicodeMS-2d" x="311.132812"/>
      <use xlink:href="#ArialUnicodeMS-41" x="344.433594"/>
      <use xlink:href="#ArialUnicodeMS-44" x="411.132812"/>
     </g>
    </g>
    <g id="line2d_39">
     <path d="M 329.385625 278.941812 
L 339.385625 278.941812 
L 349.385625 278.941812 
" style="fill: none; stroke: #ffa500; stroke-width: 2; stroke-linecap: square"/>
     <g>
      <use xlink:href="#ma0f17f1d75" x="339.385625" y="278.941812" style="fill: #ffa500; stroke: #ffa500; stroke-linejoin: miter"/>
     </g>
    </g>
    <g id="text_21">
     <!-- K8s -->
     <g transform="translate(357.385625 282.441812)scale(0.1 -0.1)">
      <defs>
       <path id="ArialUnicodeMS-4b" d="M 4256 0 
L 3456 0 
L 1831 2316 
L 1075 1588 
L 1075 0 
L 469 0 
L 469 4581 
L 1075 4581 
L 1075 2309 
L 3353 4581 
L 4172 4581 
L 2253 2725 
L 4256 0 
z
" transform="scale(0.015625)"/>
      </defs>
      <use xlink:href="#ArialUnicodeMS-4b"/>
      <use xlink:href="#ArialUnicodeMS-38" x="66.699219"/>
      <use xlink:href="#ArialUnicodeMS-73" x="122.314453"/>
     </g>
    </g>
    <g id="line2d_40">
     <path d="M 329.385625 293.091813 
L 339.385625 293.091813 
L 349.385625 293.091813 
" style="fill: none; stroke: #800080; stroke-width: 2; stroke-linecap: square"/>
     <g>
      <use xlink:href="#mfa3f367080" x="339.385625" y="293.091813" style="fill: #800080; stroke: #800080; stroke-linejoin: bevel"/>
     </g>
    </g>
    <g id="text_22">
     <!-- K8s-AD -->
     <g transform="translate(357.385625 296.591813)scale(0.1 -0.1)">
      <use xlink:href="#ArialUnicodeMS-4b"/>
      <use xlink:href="#ArialUnicodeMS-38" x="66.699219"/>
      <use xlink:href="#ArialUnicodeMS-73" x="122.314453"/>
      <use xlink:href="#ArialUnicodeMS-2d" x="172.314453"/>
      <use xlink:href="#ArialUnicodeMS-41" x="205.615234"/>
      <use xlink:href="#ArialUnicodeMS-44" x="272.314453"/>
     </g>
    </g>
   </g>
  </g>
 </g>
 <defs>
  <clipPath id="p15019f2adc">
   <rect x="57.6" y="41.472" width="357.12" height="266.112"/>
  </clipPath>
 </defs>
</svg>
