<?xml version="1.0" encoding="utf-8" standalone="no"?>
<!DOCTYPE svg PUBLIC "-//W3C//DTD SVG 1.1//EN"
  "http://www.w3.org/Graphics/SVG/1.1/DTD/svg11.dtd">
<svg xmlns:xlink="http://www.w3.org/1999/xlink" width="460.8pt" height="345.6pt" viewBox="0 0 460.8 345.6" xmlns="http://www.w3.org/2000/svg" version="1.1">
 <metadata>
  <rdf:RDF xmlns:dc="http://purl.org/dc/elements/1.1/" xmlns:cc="http://creativecommons.org/ns#" xmlns:rdf="http://www.w3.org/1999/02/22-rdf-syntax-ns#">
   <cc:Work>
    <dc:type rdf:resource="http://purl.org/dc/dcmitype/StillImage"/>
    <dc:date>2023-02-25T07:02:02.293915</dc:date>
    <dc:format>image/svg+xml</dc:format>
    <dc:creator>
     <cc:Agent>
      <dc:title>Matplotlib v3.5.3, https://matplotlib.org/</dc:title>
     </cc:Agent>
    </dc:creator>
   </cc:Work>
  </rdf:RDF>
 </metadata>
 <defs>
  <style type="text/css">*{stroke-linejoin: round; stroke-linecap: butt}</style>
 </defs>
 <g id="figure_1">
  <g id="patch_1">
   <path d="M 0 345.6 
L 460.8 345.6 
L 460.8 0 
L 0 0 
z
" style="fill: #ffffff"/>
  </g>
  <g id="axes_1">
   <g id="patch_2">
    <path d="M 57.6 307.584 
L 414.72 307.584 
L 414.72 41.472 
L 57.6 41.472 
z
" style="fill: #ffffff"/>
   </g>
   <g id="matplotlib.axis_1">
    <g id="xtick_1">
     <g id="line2d_1">
      <path d="M 64.814545 307.584 
L 64.814545 41.472 
" clip-path="url(#pc691e144e6)" style="fill: none; stroke-dasharray: 1.85,0.8; stroke-dashoffset: 0; stroke: #b0b0b0; stroke-width: 0.5"/>
     </g>
     <g id="line2d_2">
      <defs>
       <path id="med32083f41" d="M 0 0 
L 0 3.5 
" style="stroke: #000000; stroke-width: 0.8"/>
      </defs>
      <g>
       <use xlink:href="#med32083f41" x="64.814545" y="307.584" style="stroke: #000000; stroke-width: 0.8"/>
      </g>
     </g>
     <g id="text_1">
      <!-- 5 -->
      <g transform="translate(62.034077 321.741812)scale(0.1 -0.1)">
       <defs>
        <path id="ArialUnicodeMS-35" d="M 1013 2753 
Q 1431 3041 1881 3041 
Q 2453 3041 2878 2636 
Q 3303 2231 3303 1556 
Q 3303 875 2872 398 
Q 2441 -78 1741 -78 
Q 1169 -78 750 245 
Q 331 569 269 1203 
L 856 1247 
Q 928 813 1162 598 
Q 1397 384 1741 384 
Q 2169 384 2434 707 
Q 2700 1031 2700 1503 
Q 2700 1984 2428 2262 
Q 2156 2541 1728 2541 
Q 1188 2541 897 2100 
L 366 2163 
L 813 4519 
L 3084 4519 
L 3084 3975 
L 1259 3975 
L 1013 2753 
z
" transform="scale(0.015625)"/>
       </defs>
       <use xlink:href="#ArialUnicodeMS-35"/>
      </g>
     </g>
    </g>
    <g id="xtick_2">
     <g id="line2d_3">
      <path d="M 109.905455 307.584 
L 109.905455 41.472 
" clip-path="url(#pc691e144e6)" style="fill: none; stroke-dasharray: 1.85,0.8; stroke-dashoffset: 0; stroke: #b0b0b0; stroke-width: 0.5"/>
     </g>
     <g id="line2d_4">
      <g>
       <use xlink:href="#med32083f41" x="109.905455" y="307.584" style="stroke: #000000; stroke-width: 0.8"/>
      </g>
     </g>
     <g id="text_2">
      <!-- 10 -->
      <g transform="translate(104.344517 321.741812)scale(0.1 -0.1)">
       <defs>
        <path id="ArialUnicodeMS-31" d="M 2400 0 
L 1838 0 
L 1838 3584 
Q 1416 3184 709 2906 
L 709 3450 
Q 1681 3916 2034 4603 
L 2400 4603 
L 2400 0 
z
" transform="scale(0.015625)"/>
        <path id="ArialUnicodeMS-30" d="M 1778 4603 
Q 3272 4603 3272 2259 
Q 3272 1075 2886 498 
Q 2500 -78 1778 -78 
Q 288 -78 288 2259 
Q 288 3444 673 4023 
Q 1059 4603 1778 4603 
z
M 1778 384 
Q 2231 384 2462 823 
Q 2694 1263 2694 2259 
Q 2694 2953 2592 3351 
Q 2491 3750 2286 3945 
Q 2081 4141 1772 4141 
Q 1319 4141 1091 3694 
Q 863 3247 863 2259 
Q 863 1575 966 1175 
Q 1069 775 1272 579 
Q 1475 384 1778 384 
z
" transform="scale(0.015625)"/>
       </defs>
       <use xlink:href="#ArialUnicodeMS-31"/>
       <use xlink:href="#ArialUnicodeMS-30" x="55.615234"/>
      </g>
     </g>
    </g>
    <g id="xtick_3">
     <g id="line2d_5">
      <path d="M 154.996364 307.584 
L 154.996364 41.472 
" clip-path="url(#pc691e144e6)" style="fill: none; stroke-dasharray: 1.85,0.8; stroke-dashoffset: 0; stroke: #b0b0b0; stroke-width: 0.5"/>
     </g>
     <g id="line2d_6">
      <g>
       <use xlink:href="#med32083f41" x="154.996364" y="307.584" style="stroke: #000000; stroke-width: 0.8"/>
      </g>
     </g>
     <g id="text_3">
      <!-- 15 -->
      <g transform="translate(149.435426 321.741812)scale(0.1 -0.1)">
       <use xlink:href="#ArialUnicodeMS-31"/>
       <use xlink:href="#ArialUnicodeMS-35" x="55.615234"/>
      </g>
     </g>
    </g>
    <g id="xtick_4">
     <g id="line2d_7">
      <path d="M 200.087273 307.584 
L 200.087273 41.472 
" clip-path="url(#pc691e144e6)" style="fill: none; stroke-dasharray: 1.85,0.8; stroke-dashoffset: 0; stroke: #b0b0b0; stroke-width: 0.5"/>
     </g>
     <g id="line2d_8">
      <g>
       <use xlink:href="#med32083f41" x="200.087273" y="307.584" style="stroke: #000000; stroke-width: 0.8"/>
      </g>
     </g>
     <g id="text_4">
      <!-- 20 -->
      <g transform="translate(194.526335 321.741812)scale(0.1 -0.1)">
       <defs>
        <path id="ArialUnicodeMS-32" d="M 3231 0 
L 197 0 
Q 197 388 467 784 
Q 738 1181 1478 1778 
Q 1931 2141 2287 2539 
Q 2644 2938 2644 3341 
Q 2644 3688 2398 3914 
Q 2153 4141 1778 4141 
Q 1400 4141 1144 3908 
Q 888 3675 884 3213 
L 306 3278 
Q 359 3922 764 4262 
Q 1169 4603 1791 4603 
Q 2466 4603 2842 4229 
Q 3219 3856 3219 3328 
Q 3219 2888 2901 2436 
Q 2584 1984 1638 1228 
Q 1141 831 978 544 
L 3231 544 
L 3231 0 
z
" transform="scale(0.015625)"/>
       </defs>
       <use xlink:href="#ArialUnicodeMS-32"/>
       <use xlink:href="#ArialUnicodeMS-30" x="55.615234"/>
      </g>
     </g>
    </g>
    <g id="xtick_5">
     <g id="line2d_9">
      <path d="M 245.178182 307.584 
L 245.178182 41.472 
" clip-path="url(#pc691e144e6)" style="fill: none; stroke-dasharray: 1.85,0.8; stroke-dashoffset: 0; stroke: #b0b0b0; stroke-width: 0.5"/>
     </g>
     <g id="line2d_10">
      <g>
       <use xlink:href="#med32083f41" x="245.178182" y="307.584" style="stroke: #000000; stroke-width: 0.8"/>
      </g>
     </g>
     <g id="text_5">
      <!-- 25 -->
      <g transform="translate(239.617244 321.741812)scale(0.1 -0.1)">
       <use xlink:href="#ArialUnicodeMS-32"/>
       <use xlink:href="#ArialUnicodeMS-35" x="55.615234"/>
      </g>
     </g>
    </g>
    <g id="xtick_6">
     <g id="line2d_11">
      <path d="M 290.269091 307.584 
L 290.269091 41.472 
" clip-path="url(#pc691e144e6)" style="fill: none; stroke-dasharray: 1.85,0.8; stroke-dashoffset: 0; stroke: #b0b0b0; stroke-width: 0.5"/>
     </g>
     <g id="line2d_12">
      <g>
       <use xlink:href="#med32083f41" x="290.269091" y="307.584" style="stroke: #000000; stroke-width: 0.8"/>
      </g>
     </g>
     <g id="text_6">
      <!-- 30 -->
      <g transform="translate(284.708153 321.741812)scale(0.1 -0.1)">
       <defs>
        <path id="ArialUnicodeMS-33" d="M 2425 2478 
Q 2850 2397 3067 2067 
Q 3284 1738 3284 1350 
Q 3284 725 2829 323 
Q 2375 -78 1741 -78 
Q 1134 -78 740 275 
Q 347 628 281 1209 
L 844 1288 
Q 928 834 1151 609 
Q 1375 384 1741 384 
Q 2134 384 2407 661 
Q 2681 938 2681 1338 
Q 2681 1722 2432 1975 
Q 2184 2228 1784 2228 
Q 1622 2228 1388 2169 
L 1453 2663 
Q 1678 2663 1809 2684 
Q 1941 2706 2103 2790 
Q 2266 2875 2372 3033 
Q 2478 3191 2478 3425 
Q 2478 3766 2251 3953 
Q 2025 4141 1728 4141 
Q 1388 4141 1173 3925 
Q 959 3709 903 3309 
L 341 3413 
Q 450 4009 823 4306 
Q 1197 4603 1716 4603 
Q 2288 4603 2670 4258 
Q 3053 3913 3053 3413 
Q 3053 2772 2425 2491 
L 2425 2478 
z
" transform="scale(0.015625)"/>
       </defs>
       <use xlink:href="#ArialUnicodeMS-33"/>
       <use xlink:href="#ArialUnicodeMS-30" x="55.615234"/>
      </g>
     </g>
    </g>
    <g id="xtick_7">
     <g id="line2d_13">
      <path d="M 335.36 307.584 
L 335.36 41.472 
" clip-path="url(#pc691e144e6)" style="fill: none; stroke-dasharray: 1.85,0.8; stroke-dashoffset: 0; stroke: #b0b0b0; stroke-width: 0.5"/>
     </g>
     <g id="line2d_14">
      <g>
       <use xlink:href="#med32083f41" x="335.36" y="307.584" style="stroke: #000000; stroke-width: 0.8"/>
      </g>
     </g>
     <g id="text_7">
      <!-- 35 -->
      <g transform="translate(329.799062 321.741812)scale(0.1 -0.1)">
       <use xlink:href="#ArialUnicodeMS-33"/>
       <use xlink:href="#ArialUnicodeMS-35" x="55.615234"/>
      </g>
     </g>
    </g>
    <g id="xtick_8">
     <g id="line2d_15">
      <path d="M 380.450909 307.584 
L 380.450909 41.472 
" clip-path="url(#pc691e144e6)" style="fill: none; stroke-dasharray: 1.85,0.8; stroke-dashoffset: 0; stroke: #b0b0b0; stroke-width: 0.5"/>
     </g>
     <g id="line2d_16">
      <g>
       <use xlink:href="#med32083f41" x="380.450909" y="307.584" style="stroke: #000000; stroke-width: 0.8"/>
      </g>
     </g>
     <g id="text_8">
      <!-- 40 -->
      <g transform="translate(374.889972 321.741812)scale(0.1 -0.1)">
       <defs>
        <path id="ArialUnicodeMS-34" d="M 3263 1094 
L 2644 1094 
L 2644 0 
L 2081 0 
L 2081 1094 
L 97 1094 
L 97 1613 
L 2181 4581 
L 2644 4581 
L 2644 1613 
L 3263 1613 
L 3263 1094 
z
M 2081 1613 
L 2081 3681 
L 2069 3681 
L 647 1613 
L 2081 1613 
z
" transform="scale(0.015625)"/>
       </defs>
       <use xlink:href="#ArialUnicodeMS-34"/>
       <use xlink:href="#ArialUnicodeMS-30" x="55.615234"/>
      </g>
     </g>
    </g>
    <g id="text_9">
     <!-- 任务类型均衡程度 -->
     <g transform="translate(196.16 334.891812)scale(0.1 -0.1)">
      <defs>
       <path id="ArialUnicodeMS-4efb" d="M 2322 5081 
L 1741 3859 
L 1741 -469 
L 1228 -469 
L 1228 3059 
Q 1013 2653 575 2266 
L 172 2613 
Q 1034 3388 1844 5313 
L 2322 5081 
z
M 6075 2028 
L 4231 2028 
L 4231 225 
L 5650 225 
L 5650 -244 
L 2272 -244 
L 2272 225 
L 3694 225 
L 3694 2028 
L 1919 2028 
L 1919 2516 
L 3694 2516 
L 3694 4078 
Q 3072 4022 2491 4013 
L 2228 4500 
Q 4097 4491 5306 4928 
L 5613 4556 
Q 4978 4278 4231 4153 
L 4231 2516 
L 6075 2516 
L 6075 2028 
z
" transform="scale(0.015625)"/>
       <path id="ArialUnicodeMS-52a1" d="M 6131 2516 
L 5819 2088 
Q 4191 2431 3272 2981 
Q 2244 2309 422 2016 
L 225 2478 
Q 1959 2775 2828 3278 
Q 2081 3847 1966 4013 
Q 1447 3406 794 3144 
L 428 3584 
Q 1728 4050 2188 5306 
L 2613 5069 
Q 2597 5031 2456 4756 
L 4856 4756 
L 4856 4325 
Q 4434 3797 3700 3272 
Q 4516 2819 6131 2516 
z
M 4191 4288 
L 2297 4288 
Q 2516 4016 3256 3547 
Q 3853 3931 4191 4288 
z
M 5088 1978 
Q 5084 1322 4968 661 
Q 4853 0 4689 -208 
Q 4525 -416 4206 -416 
Q 3994 -416 3531 -347 
L 3413 213 
Q 3963 53 4178 53 
Q 4284 53 4345 156 
Q 4406 259 4490 770 
Q 4575 1281 4588 1509 
L 3206 1509 
Q 2841 -22 666 -441 
Q 441 -41 409 38 
Q 2394 316 2706 1509 
L 878 1509 
L 878 1978 
L 2784 1978 
Q 2794 2047 2794 2206 
Q 2794 2394 2803 2534 
L 3278 2472 
L 3272 1978 
L 5088 1978 
z
" transform="scale(0.015625)"/>
       <path id="ArialUnicodeMS-7c7b" d="M 5663 3634 
L 3347 3634 
L 3347 2431 
L 2859 2431 
L 2859 3547 
L 2841 3547 
Q 2131 2678 581 2328 
L 288 2747 
Q 1594 3016 2272 3634 
L 544 3634 
L 544 4103 
L 2859 4103 
L 2859 5338 
L 3347 5338 
L 3347 4103 
L 5663 4103 
L 5663 3634 
z
M 5063 5013 
Q 4613 4425 4044 4197 
L 3681 4538 
Q 4403 4869 4672 5281 
L 5063 5013 
z
M 2509 4500 
L 2100 4166 
Q 1709 4666 1203 4941 
L 1569 5228 
Q 2069 5009 2509 4500 
z
M 5478 2766 
L 5228 2388 
Q 4450 2906 3456 3188 
L 3706 3541 
Q 4634 3341 5478 2766 
z
M 6069 56 
L 5778 -353 
Q 4766 -91 4192 284 
Q 3619 659 3278 1472 
L 3188 1472 
Q 2728 50 525 -397 
L 250 38 
Q 1353 219 1934 623 
Q 2516 1028 2681 1472 
L 403 1472 
L 403 1941 
L 2822 1941 
L 2881 2356 
L 3322 2328 
Q 3322 2175 3272 1941 
L 5850 1941 
L 5850 1472 
L 3744 1472 
Q 3894 1147 4225 847 
Q 4556 547 4840 437 
Q 5125 328 6069 56 
z
" transform="scale(0.015625)"/>
       <path id="ArialUnicodeMS-578b" d="M 5606 2303 
Q 5606 1791 5172 1791 
L 4409 1791 
L 4206 2278 
Q 4641 2253 4716 2259 
L 5019 2278 
Q 5119 2288 5119 2456 
L 5119 5294 
L 5606 5294 
L 5606 2303 
z
M 4019 3188 
L 3284 3188 
L 3284 1906 
L 2797 1906 
L 2797 3188 
L 1925 3188 
Q 1897 2078 744 1550 
L 378 1894 
Q 922 2128 1201 2484 
Q 1481 2841 1453 3188 
L 609 3188 
L 609 3653 
L 1447 3653 
L 1447 4525 
L 756 4525 
L 756 4991 
L 3828 4991 
L 3828 4525 
L 3284 4525 
L 3284 3653 
L 4019 3653 
L 4019 3188 
z
M 2797 3653 
L 2797 4525 
L 1931 4525 
L 1931 3653 
L 2797 3653 
z
M 4603 2606 
L 4116 2606 
L 4116 4891 
L 4603 4891 
L 4603 2606 
z
M 6100 -159 
L 378 -159 
L 378 313 
L 2969 313 
L 2969 878 
L 984 878 
L 984 1344 
L 2969 1344 
L 2969 1778 
L 3456 1778 
L 3456 1344 
L 5472 1344 
L 5472 878 
L 3456 878 
L 3456 313 
L 6100 313 
L 6100 -159 
z
" transform="scale(0.015625)"/>
       <path id="ArialUnicodeMS-5747" d="M 5797 4459 
Q 5772 1716 5730 978 
Q 5688 241 5458 -81 
Q 5228 -403 4744 -403 
Q 4606 -403 4006 -306 
L 3847 250 
Q 4413 128 4788 128 
Q 5022 128 5133 340 
Q 5244 553 5283 1968 
Q 5322 3384 5306 3994 
L 3347 3994 
Q 3056 3181 2559 2650 
L 2156 2944 
Q 2253 3025 2344 3128 
L 1728 3128 
L 1728 1441 
L 2541 1766 
L 2541 1259 
L 641 538 
L 319 978 
L 1241 1288 
L 1241 3128 
L 488 3128 
L 488 3597 
L 1241 3597 
L 1241 5100 
L 1728 5100 
L 1728 3597 
L 2413 3597 
L 2413 3231 
Q 3006 4097 3194 5319 
L 3675 5166 
Q 3572 4644 3494 4459 
L 5797 4459 
z
M 4813 2566 
L 2888 2566 
L 2888 3041 
L 4813 3041 
L 4813 2566 
z
M 4959 1900 
L 4959 1409 
Q 4266 1156 2706 709 
L 2431 1153 
Q 4391 1697 4959 1900 
z
" transform="scale(0.015625)"/>
       <path id="ArialUnicodeMS-8861" d="M 4575 794 
L 3291 794 
L 3263 634 
Q 3875 538 4306 231 
L 4025 -153 
Q 3534 178 3053 275 
Q 2753 -238 1825 -409 
L 1575 31 
Q 2634 169 2791 794 
L 1728 794 
L 1728 1269 
L 2841 1253 
L 2841 1606 
L 1966 1606 
L 1966 3475 
L 1850 3578 
L 1484 2969 
L 1484 -441 
L 997 -441 
L 997 2400 
Q 753 2178 603 2088 
L 213 2406 
Q 1041 2931 1497 3891 
L 1722 3750 
Q 2313 4378 2572 5344 
L 2994 5178 
L 2888 4850 
L 3950 4850 
Q 3841 4288 3694 3928 
L 4244 3928 
L 4244 1606 
L 3328 1606 
L 3328 1259 
L 4575 1259 
L 4575 794 
z
M 3397 4384 
L 2713 4384 
Q 2528 4019 2456 3928 
L 3200 3928 
Q 3331 4166 3397 4384 
z
M 3756 3016 
L 3756 3463 
L 3347 3463 
L 3347 3016 
L 3756 3016 
z
M 2859 3016 
L 2859 3463 
L 2450 3463 
L 2450 3016 
L 2859 3016 
z
M 3756 2075 
L 3756 2572 
L 3347 2572 
L 3347 2075 
L 3756 2075 
z
M 2859 2075 
L 2859 2572 
L 2450 2572 
L 2450 2075 
L 2859 2075 
z
M 1875 5094 
Q 1472 4219 788 3756 
L 372 4063 
Q 1075 4503 1484 5306 
L 1875 5094 
z
M 5888 4488 
L 4441 4488 
L 4441 4953 
L 5888 4953 
L 5888 4488 
z
M 6047 2969 
L 5447 2969 
L 5447 147 
Q 5447 -141 5290 -266 
Q 5134 -391 5013 -391 
L 4453 -391 
L 4281 103 
Q 4466 63 4647 63 
Q 4959 63 4959 231 
L 4959 2969 
L 4319 2969 
L 4319 3438 
L 6047 3438 
L 6047 2969 
z
" transform="scale(0.015625)"/>
       <path id="ArialUnicodeMS-7a0b" d="M 2791 1844 
L 2394 1544 
Q 2159 2056 1856 2350 
L 1856 -447 
L 1369 -447 
L 1369 2034 
L 1363 2034 
Q 1100 1384 575 697 
L 184 1031 
Q 1006 1956 1319 3206 
L 403 3206 
L 403 3675 
L 1369 3675 
L 1369 4397 
Q 928 4284 588 4250 
L 366 4678 
Q 1678 4850 2463 5222 
L 2772 4878 
Q 2388 4669 1856 4506 
L 1856 3675 
L 2675 3675 
L 2675 3206 
L 1856 3206 
L 1856 2688 
L 2028 2841 
Q 2341 2547 2791 1844 
z
M 5575 3194 
L 2894 3194 
L 2894 5063 
L 5575 5063 
L 5575 3194 
z
M 5088 3659 
L 5088 4622 
L 3378 4622 
L 3378 3659 
L 5088 3659 
z
M 6075 -103 
L 2284 -103 
L 2284 341 
L 3988 341 
L 3988 1119 
L 2688 1119 
L 2688 1588 
L 3988 1588 
L 3988 2322 
L 2619 2322 
L 2619 2766 
L 5844 2766 
L 5844 2322 
L 4475 2322 
L 4475 1588 
L 5703 1588 
L 5703 1119 
L 4475 1119 
L 4475 341 
L 6075 341 
L 6075 -103 
z
" transform="scale(0.015625)"/>
       <path id="ArialUnicodeMS-5ea6" d="M 5913 4269 
L 1363 4269 
L 1363 2278 
Q 1363 1144 1180 528 
Q 997 -88 684 -434 
L 294 -147 
Q 669 378 773 940 
Q 878 1503 878 2350 
L 878 4738 
L 3200 4738 
L 3200 5288 
L 3706 5288 
L 3706 4738 
L 5913 4738 
L 5913 4269 
z
M 5778 3194 
L 4728 3194 
L 4728 2303 
L 2350 2303 
L 2350 3194 
L 1472 3194 
L 1472 3659 
L 2350 3659 
L 2350 4147 
L 2828 4147 
L 2828 3659 
L 4244 3659 
L 4244 4147 
L 4728 4147 
L 4728 3659 
L 5778 3659 
L 5778 3194 
z
M 4244 2747 
L 4244 3194 
L 2834 3194 
L 2834 2747 
L 4244 2747 
z
M 6081 72 
L 5819 -397 
Q 4484 -216 3531 263 
Q 2494 -234 1388 -397 
L 1088 44 
Q 2078 134 3034 550 
Q 2509 934 2113 1528 
L 1625 1528 
L 1625 1972 
L 5159 1972 
L 5159 1544 
Q 4819 1025 4044 538 
Q 4963 166 6081 72 
z
M 4544 1528 
L 2700 1528 
Q 3125 1038 3531 781 
Q 4194 1159 4544 1528 
z
" transform="scale(0.015625)"/>
      </defs>
      <use xlink:href="#ArialUnicodeMS-4efb"/>
      <use xlink:href="#ArialUnicodeMS-52a1" x="100"/>
      <use xlink:href="#ArialUnicodeMS-7c7b" x="200"/>
      <use xlink:href="#ArialUnicodeMS-578b" x="300"/>
      <use xlink:href="#ArialUnicodeMS-5747" x="400"/>
      <use xlink:href="#ArialUnicodeMS-8861" x="500"/>
      <use xlink:href="#ArialUnicodeMS-7a0b" x="600"/>
      <use xlink:href="#ArialUnicodeMS-5ea6" x="700"/>
     </g>
    </g>
   </g>
   <g id="matplotlib.axis_2">
    <g id="ytick_1">
     <g id="line2d_17">
      <path d="M 57.6 295.488 
L 414.72 295.488 
" clip-path="url(#pc691e144e6)" style="fill: none; stroke-dasharray: 1.85,0.8; stroke-dashoffset: 0; stroke: #b0b0b0; stroke-width: 0.5"/>
     </g>
     <g id="line2d_18">
      <defs>
       <path id="m9fcbf76a62" d="M 0 0 
L -3.5 0 
" style="stroke: #000000; stroke-width: 0.8"/>
      </defs>
      <g>
       <use xlink:href="#m9fcbf76a62" x="57.6" y="295.488" style="stroke: #000000; stroke-width: 0.8"/>
      </g>
     </g>
     <g id="text_10">
      <!-- 0.0 -->
      <g transform="translate(36.7 299.066906)scale(0.1 -0.1)">
       <defs>
        <path id="ArialUnicodeMS-2e" d="M 1209 0 
L 569 0 
L 569 641 
L 1209 641 
L 1209 0 
z
" transform="scale(0.015625)"/>
       </defs>
       <use xlink:href="#ArialUnicodeMS-30"/>
       <use xlink:href="#ArialUnicodeMS-2e" x="55.615234"/>
       <use xlink:href="#ArialUnicodeMS-30" x="83.398438"/>
      </g>
     </g>
    </g>
    <g id="ytick_2">
     <g id="line2d_19">
      <path d="M 57.6 242.650254 
L 414.72 242.650254 
" clip-path="url(#pc691e144e6)" style="fill: none; stroke-dasharray: 1.85,0.8; stroke-dashoffset: 0; stroke: #b0b0b0; stroke-width: 0.5"/>
     </g>
     <g id="line2d_20">
      <g>
       <use xlink:href="#m9fcbf76a62" x="57.6" y="242.650254" style="stroke: #000000; stroke-width: 0.8"/>
      </g>
     </g>
     <g id="text_11">
      <!-- 0.2 -->
      <g transform="translate(36.7 246.22916)scale(0.1 -0.1)">
       <use xlink:href="#ArialUnicodeMS-30"/>
       <use xlink:href="#ArialUnicodeMS-2e" x="55.615234"/>
       <use xlink:href="#ArialUnicodeMS-32" x="83.398438"/>
      </g>
     </g>
    </g>
    <g id="ytick_3">
     <g id="line2d_21">
      <path d="M 57.6 189.812507 
L 414.72 189.812507 
" clip-path="url(#pc691e144e6)" style="fill: none; stroke-dasharray: 1.85,0.8; stroke-dashoffset: 0; stroke: #b0b0b0; stroke-width: 0.5"/>
     </g>
     <g id="line2d_22">
      <g>
       <use xlink:href="#m9fcbf76a62" x="57.6" y="189.812507" style="stroke: #000000; stroke-width: 0.8"/>
      </g>
     </g>
     <g id="text_12">
      <!-- 0.4 -->
      <g transform="translate(36.7 193.391413)scale(0.1 -0.1)">
       <use xlink:href="#ArialUnicodeMS-30"/>
       <use xlink:href="#ArialUnicodeMS-2e" x="55.615234"/>
       <use xlink:href="#ArialUnicodeMS-34" x="83.398438"/>
      </g>
     </g>
    </g>
    <g id="ytick_4">
     <g id="line2d_23">
      <path d="M 57.6 136.974761 
L 414.72 136.974761 
" clip-path="url(#pc691e144e6)" style="fill: none; stroke-dasharray: 1.85,0.8; stroke-dashoffset: 0; stroke: #b0b0b0; stroke-width: 0.5"/>
     </g>
     <g id="line2d_24">
      <g>
       <use xlink:href="#m9fcbf76a62" x="57.6" y="136.974761" style="stroke: #000000; stroke-width: 0.8"/>
      </g>
     </g>
     <g id="text_13">
      <!-- 0.6 -->
      <g transform="translate(36.7 140.553667)scale(0.1 -0.1)">
       <defs>
        <path id="ArialUnicodeMS-36" d="M 838 2363 
Q 1225 2969 1941 2969 
Q 2503 2969 2897 2553 
Q 3291 2138 3291 1491 
Q 3291 838 2898 380 
Q 2506 -78 1856 -78 
Q 1197 -78 733 409 
Q 269 897 269 2144 
Q 269 3369 689 3986 
Q 1109 4603 1906 4603 
Q 2422 4603 2778 4315 
Q 3134 4028 3213 3463 
L 2650 3413 
Q 2497 4141 1875 4141 
Q 1444 4141 1134 3712 
Q 825 3284 825 2363 
L 838 2363 
z
M 1844 384 
Q 2231 384 2472 696 
Q 2713 1009 2713 1453 
Q 2713 1897 2472 2187 
Q 2231 2478 1825 2478 
Q 1453 2478 1184 2204 
Q 916 1931 916 1484 
Q 916 1028 1180 706 
Q 1444 384 1844 384 
z
" transform="scale(0.015625)"/>
       </defs>
       <use xlink:href="#ArialUnicodeMS-30"/>
       <use xlink:href="#ArialUnicodeMS-2e" x="55.615234"/>
       <use xlink:href="#ArialUnicodeMS-36" x="83.398438"/>
      </g>
     </g>
    </g>
    <g id="ytick_5">
     <g id="line2d_25">
      <path d="M 57.6 84.137014 
L 414.72 84.137014 
" clip-path="url(#pc691e144e6)" style="fill: none; stroke-dasharray: 1.85,0.8; stroke-dashoffset: 0; stroke: #b0b0b0; stroke-width: 0.5"/>
     </g>
     <g id="line2d_26">
      <g>
       <use xlink:href="#m9fcbf76a62" x="57.6" y="84.137014" style="stroke: #000000; stroke-width: 0.8"/>
      </g>
     </g>
     <g id="text_14">
      <!-- 0.8 -->
      <g transform="translate(36.7 87.71592)scale(0.1 -0.1)">
       <defs>
        <path id="ArialUnicodeMS-38" d="M 2425 2478 
Q 3284 2203 3284 1306 
Q 3284 716 2862 319 
Q 2441 -78 1778 -78 
Q 1109 -78 689 322 
Q 269 722 269 1325 
Q 269 1759 505 2084 
Q 741 2409 1141 2478 
L 1141 2491 
Q 453 2703 453 3419 
Q 453 3925 815 4264 
Q 1178 4603 1766 4603 
Q 2363 4603 2730 4253 
Q 3097 3903 3097 3406 
Q 3097 2731 2425 2491 
L 2425 2478 
z
M 1778 2700 
Q 2094 2700 2308 2901 
Q 2522 3103 2522 3406 
Q 2522 3716 2305 3928 
Q 2088 4141 1772 4141 
Q 1450 4141 1240 3931 
Q 1031 3722 1031 3438 
Q 1031 3097 1247 2898 
Q 1463 2700 1778 2700 
z
M 1778 384 
Q 2175 384 2440 640 
Q 2706 897 2706 1306 
Q 2706 1716 2432 1978 
Q 2159 2241 1766 2241 
Q 1356 2241 1100 1970 
Q 844 1700 844 1319 
Q 844 922 1108 653 
Q 1372 384 1778 384 
z
" transform="scale(0.015625)"/>
       </defs>
       <use xlink:href="#ArialUnicodeMS-30"/>
       <use xlink:href="#ArialUnicodeMS-2e" x="55.615234"/>
       <use xlink:href="#ArialUnicodeMS-38" x="83.398438"/>
      </g>
     </g>
    </g>
    <g id="text_15">
     <!-- 无效云边服务调整所占比例 -->
     <g transform="translate(30.707812 234.528)rotate(-90)scale(0.1 -0.1)">
      <defs>
       <path id="ArialUnicodeMS-65e0" d="M 5972 2606 
L 3150 2606 
Q 2875 1481 2322 790 
Q 1769 100 838 -378 
L 453 19 
Q 2113 709 2631 2606 
L 416 2606 
L 416 3072 
L 2725 3072 
Q 2791 3344 2791 3622 
L 2791 4500 
L 703 4500 
L 703 4984 
L 5434 4984 
L 5434 4500 
L 3309 4500 
L 3309 3628 
Q 3309 3428 3256 3072 
L 5972 3072 
L 5972 2606 
z
M 6041 1119 
Q 5841 209 5630 50 
Q 5419 -109 5234 -109 
L 3928 -109 
Q 3669 -47 3559 109 
Q 3450 266 3450 391 
L 3450 2328 
L 3938 2328 
L 3938 550 
Q 3938 450 4005 404 
Q 4072 359 4122 359 
L 5159 359 
Q 5300 359 5390 604 
Q 5481 850 5569 1356 
L 6041 1119 
z
" transform="scale(0.015625)"/>
       <path id="ArialUnicodeMS-6548" d="M 6119 -38 
L 5747 -409 
Q 5044 116 4609 756 
Q 4109 116 3384 -403 
L 3009 -63 
Q 3956 584 4341 1197 
Q 4041 1756 3866 2534 
Q 3672 2144 3450 1850 
L 3022 2081 
Q 3528 2766 3722 3500 
Q 3916 4234 3916 5338 
L 4366 5259 
Q 4384 4781 4306 4072 
L 5953 4072 
L 5953 3603 
L 5569 3603 
Q 5491 2219 4884 1184 
Q 5456 391 6119 -38 
z
M 5063 3603 
L 4231 3603 
L 4166 3322 
Q 4375 2238 4628 1716 
Q 5025 2469 5063 3603 
z
M 3359 3878 
L 569 3878 
L 569 4347 
L 1753 4347 
L 1753 5184 
L 2253 5184 
L 2253 4347 
L 3359 4347 
L 3359 3878 
z
M 1656 3641 
Q 1409 2850 775 2419 
L 384 2719 
Q 953 3006 1234 3803 
L 1656 3641 
z
M 3366 2803 
L 2969 2553 
Q 2688 3184 2150 3547 
L 2559 3794 
Q 3134 3359 3366 2803 
z
M 3278 628 
L 2888 281 
Q 2581 716 2234 1063 
Q 1747 269 769 -306 
L 469 103 
Q 1353 613 1869 1416 
Q 1272 2016 984 2163 
L 1344 2456 
Q 1422 2409 2113 1838 
Q 2219 2069 2375 2650 
L 2797 2456 
Q 2691 1897 2491 1503 
Q 2981 1028 3278 628 
z
" transform="scale(0.015625)"/>
       <path id="ArialUnicodeMS-4e91" d="M 5422 4378 
L 1081 4378 
L 1081 4863 
L 5422 4863 
L 5422 4378 
z
M 5978 2638 
L 2969 2638 
Q 2588 1622 1919 616 
L 4806 813 
Q 4425 1291 3859 1747 
L 4225 2059 
Q 5359 1159 5941 -25 
L 5522 -319 
Q 5372 19 5100 391 
L 709 25 
L 563 525 
L 1350 575 
Q 2153 1881 2406 2638 
L 453 2638 
L 453 3122 
L 5978 3122 
L 5978 2638 
z
" transform="scale(0.015625)"/>
       <path id="ArialUnicodeMS-8fb9" d="M 5313 4056 
Q 5284 3438 5206 2703 
Q 5128 1969 5061 1462 
Q 4994 956 4858 825 
Q 4722 694 4592 642 
Q 4463 591 4259 591 
Q 4094 591 3775 616 
L 3603 1166 
Q 3994 1100 4188 1100 
Q 4447 1100 4494 1172 
Q 4541 1244 4655 2023 
Q 4769 2803 4819 3591 
L 3872 3591 
Q 3772 2244 3420 1637 
Q 3069 1031 2419 563 
L 2100 941 
Q 2769 1413 3061 2020 
Q 3353 2628 3384 3591 
L 2075 3591 
L 2075 4056 
L 3384 4056 
L 3384 5269 
L 3872 5269 
L 3872 4056 
L 5313 4056 
z
M 1772 4134 
L 1325 3822 
Q 959 4506 538 4850 
L 909 5147 
Q 1375 4722 1772 4134 
z
M 6009 341 
L 5850 -147 
L 3231 -147 
Q 2241 -147 1434 697 
L 603 -153 
L 213 244 
L 1234 1119 
L 1234 2747 
L 372 2747 
L 372 3213 
L 1691 3213 
L 1691 1106 
Q 1981 750 2398 534 
Q 2816 319 3175 301 
Q 3534 284 4122 284 
Q 4909 284 6009 341 
z
" transform="scale(0.015625)"/>
       <path id="ArialUnicodeMS-670d" d="M 6081 -31 
L 5791 -397 
Q 5209 -56 4831 341 
Q 4556 -6 3988 -481 
L 3653 -128 
Q 4213 309 4506 716 
Q 4022 1422 3859 2419 
L 3622 2419 
L 3622 -434 
L 3138 -447 
L 3138 5013 
L 5703 5013 
Q 5609 3778 5445 3498 
Q 5281 3219 4863 3219 
Q 4619 3219 4281 3272 
L 4141 3781 
Q 4756 3675 4934 3675 
Q 5084 3675 5153 4544 
L 3622 4544 
L 3622 2888 
L 5709 2888 
Q 5622 1775 5081 769 
Q 5328 453 6081 -31 
z
M 5191 2419 
L 4341 2419 
Q 4425 1822 4763 1197 
Q 5003 1672 5191 2419 
z
M 2725 134 
Q 2725 -22 2559 -155 
Q 2394 -288 2181 -288 
L 1613 -288 
L 1428 206 
L 1881 191 
Q 2241 181 2241 397 
L 2241 1606 
L 1375 1606 
Q 1319 266 738 -453 
L 341 -153 
Q 566 134 731 614 
Q 897 1094 897 2059 
L 897 5013 
L 2725 5013 
L 2725 134 
z
M 2241 3559 
L 2241 4544 
L 1381 4544 
L 1381 3559 
L 2241 3559 
z
M 2247 3091 
L 1381 3091 
L 1381 2075 
L 2234 2075 
L 2247 3091 
z
" transform="scale(0.015625)"/>
       <path id="ArialUnicodeMS-8c03" d="M 1991 4306 
L 1606 3975 
Q 1400 4422 838 4897 
L 1166 5184 
Q 1728 4806 1991 4306 
z
M 5741 294 
Q 5741 16 5577 -165 
Q 5413 -347 5147 -347 
L 4544 -347 
L 4378 128 
Q 4831 106 5006 106 
Q 5166 106 5209 150 
Q 5253 194 5253 288 
L 5253 4538 
L 3016 4538 
L 3016 2859 
L 3025 1884 
Q 3025 869 2828 348 
Q 2631 -172 2316 -544 
L 1900 -238 
Q 2225 181 2353 518 
Q 2481 856 2504 1259 
Q 2528 1663 2528 2938 
L 2528 5006 
L 5741 5006 
L 5741 294 
z
M 5119 2463 
L 3163 2463 
L 3163 2906 
L 3903 2906 
L 3903 3384 
L 3206 3384 
L 3206 3828 
L 3903 3828 
L 3903 4384 
L 4366 4384 
L 4366 3828 
L 5069 3828 
L 5069 3384 
L 4366 3384 
L 4366 2906 
L 5119 2906 
L 5119 2463 
z
M 2388 850 
L 1478 269 
L 1197 678 
Q 1288 834 1288 959 
L 1288 3003 
L 459 3003 
L 459 3469 
L 1772 3469 
L 1772 1038 
L 2388 1369 
L 2388 850 
z
M 4884 550 
L 3378 550 
L 3378 2228 
L 4884 2228 
L 4884 550 
z
M 4422 991 
L 4422 1784 
L 3841 1784 
L 3841 991 
L 4422 991 
z
" transform="scale(0.015625)"/>
       <path id="ArialUnicodeMS-6574" d="M 6053 2322 
L 5825 1953 
Q 5019 2141 4575 2553 
Q 4088 2206 3519 1953 
L 3278 2316 
Q 3838 2544 4269 2900 
Q 4088 3169 3963 3494 
L 3725 3128 
L 3384 3322 
L 3384 3003 
L 2541 3003 
Q 2988 2866 3406 2516 
L 3103 2156 
Q 2831 2428 2344 2631 
L 2344 1984 
L 1856 1984 
L 1856 2919 
Q 1572 2306 609 1913 
L 384 2309 
Q 1103 2569 1422 3003 
L 763 3003 
L 763 4219 
L 1856 4219 
L 1856 4416 
L 488 4416 
L 488 4884 
L 1856 4884 
L 1856 5331 
L 2344 5331 
L 2344 4884 
L 3688 4884 
L 3688 4416 
L 2344 4416 
L 2344 4219 
L 3384 4219 
L 3384 3444 
Q 3919 4209 4109 5375 
L 4603 5234 
Q 4491 4816 4409 4569 
L 5875 4569 
L 5875 4103 
L 5509 4103 
Q 5241 3209 4916 2875 
Q 5272 2506 6053 2322 
z
M 5031 4103 
L 4256 4103 
L 4225 3994 
Q 4453 3388 4594 3219 
Q 4916 3619 5031 4103 
z
M 2900 3444 
L 2900 3775 
L 2344 3775 
L 2344 3444 
L 2900 3444 
z
M 1856 3444 
L 1856 3775 
L 1222 3775 
L 1222 3444 
L 1856 3444 
z
M 2413 3003 
L 2344 3003 
L 2344 2900 
L 2413 3003 
z
M 6047 -116 
L 325 -116 
L 325 325 
L 1369 325 
L 1369 1197 
L 1856 1197 
L 1856 325 
L 2900 325 
L 2900 1466 
L 716 1466 
L 716 1931 
L 5684 1931 
L 5684 1466 
L 3384 1466 
L 3384 1159 
L 5381 1159 
L 5381 716 
L 3384 716 
L 3384 325 
L 6047 325 
L 6047 -116 
z
" transform="scale(0.015625)"/>
       <path id="ArialUnicodeMS-6240" d="M 6138 2869 
L 5253 2869 
L 5253 -409 
L 4769 -409 
L 4769 2869 
L 4006 2869 
L 4006 2009 
Q 4006 338 3128 -447 
L 2731 -116 
Q 3488 519 3488 2028 
L 3488 4641 
Q 4541 4725 5575 5381 
L 5953 5006 
Q 4928 4353 4006 4231 
L 4006 3334 
L 6138 3334 
L 6138 2869 
z
M 3334 4519 
L 538 4519 
L 538 4978 
L 3334 4978 
L 3334 4519 
z
M 2969 1772 
L 1428 1772 
Q 1419 466 653 -391 
L 269 -31 
Q 613 356 767 773 
Q 922 1191 922 1966 
L 922 3756 
L 2969 3756 
L 2969 1772 
z
M 2463 2241 
L 2463 3291 
L 1428 3291 
L 1428 2241 
L 2463 2241 
z
" transform="scale(0.015625)"/>
       <path id="ArialUnicodeMS-5360" d="M 5778 3731 
L 3072 3731 
L 3072 2431 
L 5319 2431 
L 5319 -422 
L 4813 -422 
L 4813 103 
L 1684 103 
L 1684 -447 
L 1178 -447 
L 1178 2431 
L 2566 2431 
L 2566 5325 
L 3072 5325 
L 3072 4219 
L 5778 4219 
L 5778 3731 
z
M 4813 588 
L 4813 1947 
L 1684 1947 
L 1684 588 
L 4813 588 
z
" transform="scale(0.015625)"/>
       <path id="ArialUnicodeMS-6bd4" d="M 6119 1100 
Q 5975 -197 5300 -197 
L 4103 -197 
Q 3828 -197 3658 -42 
Q 3488 113 3488 378 
L 3488 5191 
L 3994 5191 
L 3994 2906 
Q 4775 3172 5600 3916 
L 5984 3584 
Q 5013 2703 3994 2388 
L 3994 506 
Q 4022 269 4225 269 
L 5153 269 
Q 5375 269 5464 464 
Q 5553 659 5625 1325 
L 6119 1100 
z
M 3238 306 
L 653 -231 
L 378 250 
L 1131 391 
L 1131 5166 
L 1638 5166 
L 1638 3450 
L 3238 3450 
L 3238 2981 
L 1638 2981 
L 1638 500 
L 3238 819 
L 3238 306 
z
" transform="scale(0.015625)"/>
       <path id="ArialUnicodeMS-4f8b" d="M 2081 5247 
Q 2025 4947 1838 4338 
L 1650 3738 
L 1650 -403 
L 1166 -403 
L 1166 2681 
Q 1041 2422 691 2034 
L 263 2278 
Q 1306 3531 1638 5409 
L 2081 5247 
z
M 5831 134 
Q 5831 -406 5153 -397 
L 4722 -391 
L 4513 122 
L 4978 97 
Q 5125 84 5231 184 
Q 5338 284 5338 441 
L 5325 5325 
L 5831 5325 
L 5831 134 
z
M 4231 4506 
L 3116 4506 
Q 3072 3997 3034 3688 
L 4141 3688 
Q 4134 2003 3682 1200 
Q 3231 397 2253 -397 
L 1906 -25 
Q 2938 797 3278 1509 
Q 3006 1888 2597 2125 
L 2894 2497 
Q 3156 2350 3456 1984 
Q 3591 2453 3647 3219 
L 2944 3219 
Q 2650 2138 2150 1569 
L 1691 1831 
Q 2606 2872 2606 4506 
L 2138 4506 
L 2138 4972 
L 4231 4972 
L 4231 4506 
z
M 4941 872 
L 4453 872 
L 4453 4441 
L 4941 4441 
L 4941 872 
z
" transform="scale(0.015625)"/>
      </defs>
      <use xlink:href="#ArialUnicodeMS-65e0"/>
      <use xlink:href="#ArialUnicodeMS-6548" x="100"/>
      <use xlink:href="#ArialUnicodeMS-4e91" x="200"/>
      <use xlink:href="#ArialUnicodeMS-8fb9" x="300"/>
      <use xlink:href="#ArialUnicodeMS-670d" x="400"/>
      <use xlink:href="#ArialUnicodeMS-52a1" x="500"/>
      <use xlink:href="#ArialUnicodeMS-8c03" x="600"/>
      <use xlink:href="#ArialUnicodeMS-6574" x="700"/>
      <use xlink:href="#ArialUnicodeMS-6240" x="800"/>
      <use xlink:href="#ArialUnicodeMS-5360" x="900"/>
      <use xlink:href="#ArialUnicodeMS-6bd4" x="1000"/>
      <use xlink:href="#ArialUnicodeMS-4f8b" x="1100"/>
     </g>
    </g>
   </g>
   <g id="line2d_27">
    <path d="M 73.832727 295.488 
L 91.869091 240.19277 
L 109.905455 266.133726 
L 127.941818 199.930407 
L 145.978182 161.228079 
L 164.014545 149.113176 
L 182.050909 173.178392 
L 200.087273 147.382211 
L 218.123636 123.190978 
L 236.16 135.486321 
L 254.196364 101.23161 
L 272.232727 81.781243 
L 290.269091 70.198152 
L 308.305455 85.61832 
L 326.341818 98.182608 
L 344.378182 58.774896 
L 362.414545 53.568 
L 380.450909 55.13596 
L 398.487273 56.360739 
" clip-path="url(#pc691e144e6)" style="fill: none; stroke: #ff0000; stroke-width: 2; stroke-linecap: square"/>
    <defs>
     <path id="m8b7bbad478" d="M 0 3 
C 0.795609 3 1.55874 2.683901 2.12132 2.12132 
C 2.683901 1.55874 3 0.795609 3 0 
C 3 -0.795609 2.683901 -1.55874 2.12132 -2.12132 
C 1.55874 -2.683901 0.795609 -3 0 -3 
C -0.795609 -3 -1.55874 -2.683901 -2.12132 -2.12132 
C -2.683901 -1.55874 -3 -0.795609 -3 0 
C -3 0.795609 -2.683901 1.55874 -2.12132 2.12132 
C -1.55874 2.683901 -0.795609 3 0 3 
z
" style="stroke: #ff0000"/>
    </defs>
    <g clip-path="url(#pc691e144e6)">
     <use xlink:href="#m8b7bbad478" x="73.832727" y="295.488" style="fill: #ff0000; stroke: #ff0000"/>
     <use xlink:href="#m8b7bbad478" x="91.869091" y="240.19277" style="fill: #ff0000; stroke: #ff0000"/>
     <use xlink:href="#m8b7bbad478" x="109.905455" y="266.133726" style="fill: #ff0000; stroke: #ff0000"/>
     <use xlink:href="#m8b7bbad478" x="127.941818" y="199.930407" style="fill: #ff0000; stroke: #ff0000"/>
     <use xlink:href="#m8b7bbad478" x="145.978182" y="161.228079" style="fill: #ff0000; stroke: #ff0000"/>
     <use xlink:href="#m8b7bbad478" x="164.014545" y="149.113176" style="fill: #ff0000; stroke: #ff0000"/>
     <use xlink:href="#m8b7bbad478" x="182.050909" y="173.178392" style="fill: #ff0000; stroke: #ff0000"/>
     <use xlink:href="#m8b7bbad478" x="200.087273" y="147.382211" style="fill: #ff0000; stroke: #ff0000"/>
     <use xlink:href="#m8b7bbad478" x="218.123636" y="123.190978" style="fill: #ff0000; stroke: #ff0000"/>
     <use xlink:href="#m8b7bbad478" x="236.16" y="135.486321" style="fill: #ff0000; stroke: #ff0000"/>
     <use xlink:href="#m8b7bbad478" x="254.196364" y="101.23161" style="fill: #ff0000; stroke: #ff0000"/>
     <use xlink:href="#m8b7bbad478" x="272.232727" y="81.781243" style="fill: #ff0000; stroke: #ff0000"/>
     <use xlink:href="#m8b7bbad478" x="290.269091" y="70.198152" style="fill: #ff0000; stroke: #ff0000"/>
     <use xlink:href="#m8b7bbad478" x="308.305455" y="85.61832" style="fill: #ff0000; stroke: #ff0000"/>
     <use xlink:href="#m8b7bbad478" x="326.341818" y="98.182608" style="fill: #ff0000; stroke: #ff0000"/>
     <use xlink:href="#m8b7bbad478" x="344.378182" y="58.774896" style="fill: #ff0000; stroke: #ff0000"/>
     <use xlink:href="#m8b7bbad478" x="362.414545" y="53.568" style="fill: #ff0000; stroke: #ff0000"/>
     <use xlink:href="#m8b7bbad478" x="380.450909" y="55.13596" style="fill: #ff0000; stroke: #ff0000"/>
     <use xlink:href="#m8b7bbad478" x="398.487273" y="56.360739" style="fill: #ff0000; stroke: #ff0000"/>
    </g>
   </g>
   <g id="line2d_28">
    <path d="M 73.832727 281.583324 
L 91.869091 182.882837 
L 109.905455 154.345962 
L 127.941818 131.175554 
L 145.978182 138.931606 
L 164.014545 84.449549 
L 182.050909 113.377423 
L 200.087273 94.316734 
L 218.123636 133.15512 
L 236.16 92.265837 
L 254.196364 79.023641 
L 272.232727 78.117474 
L 290.269091 111.251232 
L 308.305455 57.523962 
L 326.341818 80.396366 
L 344.378182 63.675333 
L 362.414545 61.782684 
L 380.450909 56.408029 
L 398.487273 60.09716 
" clip-path="url(#pc691e144e6)" style="fill: none; stroke: #008000; stroke-width: 2; stroke-linecap: square"/>
    <defs>
     <path id="m1de40dcfed" d="M 0 -3 
L -3 3 
L 3 3 
z
" style="stroke: #008000; stroke-linejoin: miter"/>
    </defs>
    <g clip-path="url(#pc691e144e6)">
     <use xlink:href="#m1de40dcfed" x="73.832727" y="281.583324" style="fill: #008000; stroke: #008000; stroke-linejoin: miter"/>
     <use xlink:href="#m1de40dcfed" x="91.869091" y="182.882837" style="fill: #008000; stroke: #008000; stroke-linejoin: miter"/>
     <use xlink:href="#m1de40dcfed" x="109.905455" y="154.345962" style="fill: #008000; stroke: #008000; stroke-linejoin: miter"/>
     <use xlink:href="#m1de40dcfed" x="127.941818" y="131.175554" style="fill: #008000; stroke: #008000; stroke-linejoin: miter"/>
     <use xlink:href="#m1de40dcfed" x="145.978182" y="138.931606" style="fill: #008000; stroke: #008000; stroke-linejoin: miter"/>
     <use xlink:href="#m1de40dcfed" x="164.014545" y="84.449549" style="fill: #008000; stroke: #008000; stroke-linejoin: miter"/>
     <use xlink:href="#m1de40dcfed" x="182.050909" y="113.377423" style="fill: #008000; stroke: #008000; stroke-linejoin: miter"/>
     <use xlink:href="#m1de40dcfed" x="200.087273" y="94.316734" style="fill: #008000; stroke: #008000; stroke-linejoin: miter"/>
     <use xlink:href="#m1de40dcfed" x="218.123636" y="133.15512" style="fill: #008000; stroke: #008000; stroke-linejoin: miter"/>
     <use xlink:href="#m1de40dcfed" x="236.16" y="92.265837" style="fill: #008000; stroke: #008000; stroke-linejoin: miter"/>
     <use xlink:href="#m1de40dcfed" x="254.196364" y="79.023641" style="fill: #008000; stroke: #008000; stroke-linejoin: miter"/>
     <use xlink:href="#m1de40dcfed" x="272.232727" y="78.117474" style="fill: #008000; stroke: #008000; stroke-linejoin: miter"/>
     <use xlink:href="#m1de40dcfed" x="290.269091" y="111.251232" style="fill: #008000; stroke: #008000; stroke-linejoin: miter"/>
     <use xlink:href="#m1de40dcfed" x="308.305455" y="57.523962" style="fill: #008000; stroke: #008000; stroke-linejoin: miter"/>
     <use xlink:href="#m1de40dcfed" x="326.341818" y="80.396366" style="fill: #008000; stroke: #008000; stroke-linejoin: miter"/>
     <use xlink:href="#m1de40dcfed" x="344.378182" y="63.675333" style="fill: #008000; stroke: #008000; stroke-linejoin: miter"/>
     <use xlink:href="#m1de40dcfed" x="362.414545" y="61.782684" style="fill: #008000; stroke: #008000; stroke-linejoin: miter"/>
     <use xlink:href="#m1de40dcfed" x="380.450909" y="56.408029" style="fill: #008000; stroke: #008000; stroke-linejoin: miter"/>
     <use xlink:href="#m1de40dcfed" x="398.487273" y="60.09716" style="fill: #008000; stroke: #008000; stroke-linejoin: miter"/>
    </g>
   </g>
   <g id="line2d_29">
    <path d="M 73.832727 273.003848 
L 91.869091 200.206749 
L 109.905455 156.61957 
L 127.941818 138.162025 
L 145.978182 148.344915 
L 164.014545 102.588219 
L 182.050909 106.781687 
L 200.087273 87.780969 
L 218.123636 126.28859 
L 236.16 103.350668 
L 254.196364 98.505182 
L 272.232727 83.233753 
L 290.269091 99.308316 
L 308.305455 82.432468 
L 326.341818 113.643725 
L 344.378182 90.007816 
L 362.414545 91.776295 
L 380.450909 93.79549 
L 398.487273 68.350152 
" clip-path="url(#pc691e144e6)" style="fill: none; stroke: #800080; stroke-width: 2; stroke-linecap: square"/>
    <defs>
     <path id="m22cd955b71" d="M 0 -3 
L -0.673542 -0.927051 
L -2.85317 -0.927051 
L -1.089814 0.354102 
L -1.763356 2.427051 
L -0 1.145898 
L 1.763356 2.427051 
L 1.089814 0.354102 
L 2.85317 -0.927051 
L 0.673542 -0.927051 
z
" style="stroke: #800080; stroke-linejoin: bevel"/>
    </defs>
    <g clip-path="url(#pc691e144e6)">
     <use xlink:href="#m22cd955b71" x="73.832727" y="273.003848" style="fill: #800080; stroke: #800080; stroke-linejoin: bevel"/>
     <use xlink:href="#m22cd955b71" x="91.869091" y="200.206749" style="fill: #800080; stroke: #800080; stroke-linejoin: bevel"/>
     <use xlink:href="#m22cd955b71" x="109.905455" y="156.61957" style="fill: #800080; stroke: #800080; stroke-linejoin: bevel"/>
     <use xlink:href="#m22cd955b71" x="127.941818" y="138.162025" style="fill: #800080; stroke: #800080; stroke-linejoin: bevel"/>
     <use xlink:href="#m22cd955b71" x="145.978182" y="148.344915" style="fill: #800080; stroke: #800080; stroke-linejoin: bevel"/>
     <use xlink:href="#m22cd955b71" x="164.014545" y="102.588219" style="fill: #800080; stroke: #800080; stroke-linejoin: bevel"/>
     <use xlink:href="#m22cd955b71" x="182.050909" y="106.781687" style="fill: #800080; stroke: #800080; stroke-linejoin: bevel"/>
     <use xlink:href="#m22cd955b71" x="200.087273" y="87.780969" style="fill: #800080; stroke: #800080; stroke-linejoin: bevel"/>
     <use xlink:href="#m22cd955b71" x="218.123636" y="126.28859" style="fill: #800080; stroke: #800080; stroke-linejoin: bevel"/>
     <use xlink:href="#m22cd955b71" x="236.16" y="103.350668" style="fill: #800080; stroke: #800080; stroke-linejoin: bevel"/>
     <use xlink:href="#m22cd955b71" x="254.196364" y="98.505182" style="fill: #800080; stroke: #800080; stroke-linejoin: bevel"/>
     <use xlink:href="#m22cd955b71" x="272.232727" y="83.233753" style="fill: #800080; stroke: #800080; stroke-linejoin: bevel"/>
     <use xlink:href="#m22cd955b71" x="290.269091" y="99.308316" style="fill: #800080; stroke: #800080; stroke-linejoin: bevel"/>
     <use xlink:href="#m22cd955b71" x="308.305455" y="82.432468" style="fill: #800080; stroke: #800080; stroke-linejoin: bevel"/>
     <use xlink:href="#m22cd955b71" x="326.341818" y="113.643725" style="fill: #800080; stroke: #800080; stroke-linejoin: bevel"/>
     <use xlink:href="#m22cd955b71" x="344.378182" y="90.007816" style="fill: #800080; stroke: #800080; stroke-linejoin: bevel"/>
     <use xlink:href="#m22cd955b71" x="362.414545" y="91.776295" style="fill: #800080; stroke: #800080; stroke-linejoin: bevel"/>
     <use xlink:href="#m22cd955b71" x="380.450909" y="93.79549" style="fill: #800080; stroke: #800080; stroke-linejoin: bevel"/>
     <use xlink:href="#m22cd955b71" x="398.487273" y="68.350152" style="fill: #800080; stroke: #800080; stroke-linejoin: bevel"/>
    </g>
   </g>
   <g id="patch_3">
    <path d="M 57.6 307.584 
L 57.6 41.472 
" style="fill: none; stroke: #000000; stroke-width: 0.8; stroke-linejoin: miter; stroke-linecap: square"/>
   </g>
   <g id="patch_4">
    <path d="M 414.72 307.584 
L 414.72 41.472 
" style="fill: none; stroke: #000000; stroke-width: 0.8; stroke-linejoin: miter; stroke-linecap: square"/>
   </g>
   <g id="patch_5">
    <path d="M 57.6 307.584 
L 414.72 307.584 
" style="fill: none; stroke: #000000; stroke-width: 0.8; stroke-linejoin: miter; stroke-linecap: square"/>
   </g>
   <g id="patch_6">
    <path d="M 57.6 41.472 
L 414.72 41.472 
" style="fill: none; stroke: #000000; stroke-width: 0.8; stroke-linejoin: miter; stroke-linecap: square"/>
   </g>
   <g id="legend_1">
    <g id="patch_7">
     <path d="M 64.6 91.922 
L 144.934375 91.922 
Q 146.934375 91.922 146.934375 89.922 
L 146.934375 48.472 
Q 146.934375 46.472 144.934375 46.472 
L 64.6 46.472 
Q 62.6 46.472 62.6 48.472 
L 62.6 89.922 
Q 62.6 91.922 64.6 91.922 
z
" style="fill: #ffffff; opacity: 0.8; stroke: #cccccc; stroke-linejoin: miter"/>
    </g>
    <g id="line2d_30">
     <path d="M 66.6 54.129813 
L 76.6 54.129813 
L 86.6 54.129813 
" style="fill: none; stroke: #ff0000; stroke-width: 2; stroke-linecap: square"/>
     <g>
      <use xlink:href="#m8b7bbad478" x="76.6" y="54.129813" style="fill: #ff0000; stroke: #ff0000"/>
     </g>
    </g>
    <g id="text_16">
     <!-- SWD-AD -->
     <g transform="translate(94.6 57.629813)scale(0.1 -0.1)">
      <defs>
       <path id="ArialUnicodeMS-53" d="M 3213 3238 
Q 3175 3675 2897 3895 
Q 2619 4116 2100 4116 
Q 1631 4116 1337 3941 
Q 1044 3766 1044 3431 
Q 1044 3134 1270 2989 
Q 1497 2844 2138 2700 
Q 2706 2575 3065 2444 
Q 3425 2313 3681 2036 
Q 3938 1759 3938 1294 
Q 3938 703 3467 312 
Q 2997 -78 2241 -78 
Q 1275 -78 795 353 
Q 316 784 288 1472 
L 863 1522 
Q 903 972 1287 720 
Q 1672 469 2216 469 
Q 2725 469 3039 678 
Q 3353 888 3353 1247 
Q 3353 1622 3025 1794 
Q 2697 1966 1923 2133 
Q 1150 2300 809 2603 
Q 469 2906 469 3391 
Q 469 3941 900 4300 
Q 1331 4659 2075 4659 
Q 2838 4659 3302 4301 
Q 3766 3944 3794 3284 
L 3213 3238 
z
" transform="scale(0.015625)"/>
       <path id="ArialUnicodeMS-57" d="M 5972 4581 
L 4709 0 
L 4128 0 
L 3128 3609 
Q 3050 3888 3028 4031 
L 3016 4031 
L 2888 3488 
L 1913 0 
L 1300 0 
L 78 4581 
L 697 4581 
L 1403 1575 
Q 1544 984 1581 706 
Q 1588 650 1588 641 
L 1600 641 
Q 1725 1234 1797 1491 
L 2669 4581 
L 3406 4581 
L 4056 2266 
Q 4300 1403 4409 641 
L 4422 641 
Q 4488 1013 4641 1638 
L 5363 4581 
L 5972 4581 
z
" transform="scale(0.015625)"/>
       <path id="ArialUnicodeMS-44" d="M 513 4581 
L 2094 4581 
Q 2509 4581 2809 4539 
Q 3109 4497 3382 4333 
Q 3656 4169 3861 3881 
Q 4066 3594 4183 3220 
Q 4300 2847 4300 2316 
Q 4300 1303 3819 651 
Q 3338 0 2163 0 
L 513 0 
L 513 4581 
z
M 1119 544 
L 2100 544 
Q 2400 544 2636 581 
Q 2872 619 3114 784 
Q 3356 950 3515 1328 
Q 3675 1706 3675 2328 
Q 3675 2672 3614 2970 
Q 3553 3269 3389 3514 
Q 3225 3759 3012 3873 
Q 2800 3988 2598 4013 
Q 2397 4038 2081 4038 
L 1119 4038 
L 1119 544 
z
" transform="scale(0.015625)"/>
       <path id="ArialUnicodeMS-2d" d="M 1925 1375 
L 206 1375 
L 206 1941 
L 1925 1941 
L 1925 1375 
z
" transform="scale(0.015625)"/>
       <path id="ArialUnicodeMS-41" d="M 4275 0 
L 3591 0 
L 3053 1394 
L 1141 1394 
L 634 0 
L -6 0 
L 1753 4581 
L 2406 4581 
L 4275 0 
z
M 2869 1875 
Q 2306 3363 2234 3564 
Q 2163 3766 2075 4103 
L 2059 4103 
Q 1972 3641 1825 3247 
L 1313 1875 
L 2869 1875 
z
" transform="scale(0.015625)"/>
      </defs>
      <use xlink:href="#ArialUnicodeMS-53"/>
      <use xlink:href="#ArialUnicodeMS-57" x="66.699219"/>
      <use xlink:href="#ArialUnicodeMS-44" x="161.083984"/>
      <use xlink:href="#ArialUnicodeMS-2d" x="233.300781"/>
      <use xlink:href="#ArialUnicodeMS-41" x="266.601562"/>
      <use xlink:href="#ArialUnicodeMS-44" x="333.300781"/>
     </g>
    </g>
    <g id="line2d_31">
     <path d="M 66.6 68.279812 
L 76.6 68.279812 
L 86.6 68.279812 
" style="fill: none; stroke: #008000; stroke-width: 2; stroke-linecap: square"/>
     <g>
      <use xlink:href="#m1de40dcfed" x="76.6" y="68.279812" style="fill: #008000; stroke: #008000; stroke-linejoin: miter"/>
     </g>
    </g>
    <g id="text_17">
     <!-- Swarm-AD -->
     <g transform="translate(94.6 71.779812)scale(0.1 -0.1)">
      <defs>
       <path id="ArialUnicodeMS-77" d="M 4588 3316 
L 3547 0 
L 2963 0 
L 2438 1991 
Q 2434 1991 2371 2259 
Q 2309 2528 2309 2553 
L 2297 2553 
L 1638 0 
L 1050 0 
L 31 3316 
L 616 3316 
L 1338 691 
L 1450 1138 
L 2041 3316 
L 2619 3316 
L 3066 1578 
Q 3253 859 3272 763 
L 3284 763 
L 4038 3316 
L 4588 3316 
z
" transform="scale(0.015625)"/>
       <path id="ArialUnicodeMS-61" d="M 3303 0 
L 2713 0 
Q 2631 156 2597 409 
Q 2031 -78 1375 -78 
Q 850 -78 547 184 
Q 244 447 244 878 
Q 244 1291 536 1558 
Q 828 1825 1550 1913 
L 2075 1991 
Q 2369 2038 2559 2106 
Q 2559 2359 2543 2464 
Q 2528 2569 2451 2681 
Q 2375 2794 2206 2862 
Q 2038 2931 1753 2931 
Q 1391 2931 1180 2797 
Q 969 2663 891 2297 
L 341 2369 
Q 431 2878 806 3134 
Q 1181 3391 1838 3391 
Q 2434 3391 2714 3214 
Q 2994 3038 3058 2788 
Q 3122 2538 3122 2144 
L 3122 1388 
Q 3122 697 3148 461 
Q 3175 225 3303 0 
z
M 2559 1459 
L 2559 1663 
Q 2119 1516 1481 1430 
Q 844 1344 844 891 
Q 844 663 1016 514 
Q 1188 366 1509 366 
Q 1925 366 2242 614 
Q 2559 863 2559 1459 
z
" transform="scale(0.015625)"/>
       <path id="ArialUnicodeMS-72" d="M 2216 3213 
L 2022 2694 
Q 1813 2816 1613 2816 
Q 1297 2816 1134 2533 
Q 972 2250 972 1741 
L 972 0 
L 409 0 
L 409 3316 
L 922 3316 
L 922 2816 
L 934 2816 
Q 1203 3391 1638 3391 
Q 1925 3391 2216 3213 
z
" transform="scale(0.015625)"/>
       <path id="ArialUnicodeMS-6d" d="M 4922 0 
L 4359 0 
L 4359 2094 
Q 4359 2325 4328 2489 
Q 4297 2653 4167 2779 
Q 4038 2906 3763 2906 
Q 3431 2906 3190 2675 
Q 2950 2444 2950 1925 
L 2950 0 
L 2388 0 
L 2388 2156 
Q 2388 2588 2236 2747 
Q 2084 2906 1806 2906 
Q 1444 2906 1211 2656 
Q 978 2406 978 1722 
L 978 0 
L 416 0 
L 416 3316 
L 922 3316 
L 922 2853 
L 934 2853 
Q 1272 3391 1925 3391 
Q 2291 3391 2527 3245 
Q 2763 3100 2869 2809 
Q 3238 3391 3891 3391 
Q 4406 3391 4664 3112 
Q 4922 2834 4922 2278 
L 4922 0 
z
" transform="scale(0.015625)"/>
      </defs>
      <use xlink:href="#ArialUnicodeMS-53"/>
      <use xlink:href="#ArialUnicodeMS-77" x="66.699219"/>
      <use xlink:href="#ArialUnicodeMS-61" x="138.916016"/>
      <use xlink:href="#ArialUnicodeMS-72" x="194.53125"/>
      <use xlink:href="#ArialUnicodeMS-6d" x="227.832031"/>
      <use xlink:href="#ArialUnicodeMS-2d" x="311.132812"/>
      <use xlink:href="#ArialUnicodeMS-41" x="344.433594"/>
      <use xlink:href="#ArialUnicodeMS-44" x="411.132812"/>
     </g>
    </g>
    <g id="line2d_32">
     <path d="M 66.6 82.429813 
L 76.6 82.429813 
L 86.6 82.429813 
" style="fill: none; stroke: #800080; stroke-width: 2; stroke-linecap: square"/>
     <g>
      <use xlink:href="#m22cd955b71" x="76.6" y="82.429813" style="fill: #800080; stroke: #800080; stroke-linejoin: bevel"/>
     </g>
    </g>
    <g id="text_18">
     <!-- K8s-AD -->
     <g transform="translate(94.6 85.929813)scale(0.1 -0.1)">
      <defs>
       <path id="ArialUnicodeMS-4b" d="M 4256 0 
L 3456 0 
L 1831 2316 
L 1075 1588 
L 1075 0 
L 469 0 
L 469 4581 
L 1075 4581 
L 1075 2309 
L 3353 4581 
L 4172 4581 
L 2253 2725 
L 4256 0 
z
" transform="scale(0.015625)"/>
       <path id="ArialUnicodeMS-73" d="M 2278 2388 
Q 2241 2659 2058 2795 
Q 1875 2931 1550 2931 
Q 1228 2931 1029 2822 
Q 831 2713 831 2503 
Q 831 2306 989 2222 
Q 1147 2138 1613 2016 
Q 2138 1881 2398 1778 
Q 2659 1675 2804 1489 
Q 2950 1303 2950 972 
Q 2950 528 2587 225 
Q 2225 -78 1619 -78 
Q 988 -78 633 189 
Q 278 456 197 991 
L 756 1075 
Q 800 728 1014 556 
Q 1228 384 1613 384 
Q 1981 384 2178 539 
Q 2375 694 2375 916 
Q 2375 1066 2284 1156 
Q 2194 1247 2058 1292 
Q 1922 1338 1447 1453 
Q 741 1622 514 1862 
Q 288 2103 288 2438 
Q 288 2853 619 3122 
Q 950 3391 1509 3391 
Q 2103 3391 2433 3158 
Q 2763 2925 2828 2463 
L 2278 2388 
z
" transform="scale(0.015625)"/>
      </defs>
      <use xlink:href="#ArialUnicodeMS-4b"/>
      <use xlink:href="#ArialUnicodeMS-38" x="66.699219"/>
      <use xlink:href="#ArialUnicodeMS-73" x="122.314453"/>
      <use xlink:href="#ArialUnicodeMS-2d" x="172.314453"/>
      <use xlink:href="#ArialUnicodeMS-41" x="205.615234"/>
      <use xlink:href="#ArialUnicodeMS-44" x="272.314453"/>
     </g>
    </g>
   </g>
  </g>
 </g>
 <defs>
  <clipPath id="pc691e144e6">
   <rect x="57.6" y="41.472" width="357.12" height="266.112"/>
  </clipPath>
 </defs>
</svg>
